<svg width="332" height="364" viewBox="0 0 332 364" fill="none" xmlns="http://www.w3.org/2000/svg">
<path d="M323.084 280.157C323.084 282.902 321.029 286.315 318.493 287.778L189.888 362.028C187.353 363.492 183.242 363.492 180.708 362.028L4.7406 260.433C2.20612 258.97 0.150757 255.557 0.150757 252.812C0.150757 250.066 2.20508 246.653 4.7406 245.19L133.346 170.94C135.881 169.476 139.991 169.476 142.526 170.94L318.495 272.535C321.03 273.998 323.084 277.411 323.084 280.157Z" fill="#37474F"/>
<path d="M270.026 244.551L318.496 272.535C321.031 273.999 323.086 277.411 323.086 280.156C323.086 282.902 321.031 286.315 318.495 287.778L189.89 362.028C188.622 362.759 186.961 363.126 185.3 363.126V244.551H270.026Z" fill="#263238"/>
<path d="M327.39 272.698C329.768 271.326 331.696 267.839 331.696 264.913L331.697 111.44C331.697 108.514 329.642 104.954 327.107 103.49L151.14 1.89577C148.606 0.431913 144.622 0.358767 142.243 1.73147C139.865 3.10417 137.937 6.59051 137.937 9.51717V162.989C137.937 165.916 139.992 169.475 142.527 170.939L318.496 272.535C321.03 273.998 325.013 274.072 327.39 272.698Z" fill="#455A64"/>
<path d="M310.166 118.571L330.351 106.916C331.181 108.354 331.695 109.976 331.695 111.44L331.694 264.912C331.694 267.839 329.767 271.325 327.389 272.698C325.011 274.071 321.027 273.997 318.493 272.534L298.422 260.946L310.166 118.571Z" fill="#263238"/>
<path d="M323.086 116.413V269.885C323.086 272.812 321.031 273.999 318.496 272.535L142.528 170.94C139.993 169.477 137.938 165.917 137.938 162.99V9.51826C137.938 6.5916 139.993 5.4044 142.528 6.86826L318.496 108.463C321.031 109.927 323.086 113.486 323.086 116.413Z" fill="#37474F"/>
<path d="M318.496 277.835L189.889 352.085C187.355 353.549 183.244 353.549 180.709 352.085L4.74094 250.49C2.20541 249.026 2.20541 246.653 4.74094 245.19L133.346 170.94C135.881 169.476 139.992 169.476 142.526 170.94L318.496 272.535C321.03 273.998 321.03 276.372 318.496 277.835Z" fill="#455A64"/>
<path d="M316.025 116.98L144.995 18.2363C143.474 17.3586 142.242 18.0699 142.242 19.8263V152.68C142.242 154.437 143.474 156.573 144.995 157.45L316.025 256.191C317.547 257.069 318.779 256.358 318.779 254.601V121.75C318.779 119.993 317.547 117.858 316.025 116.98Z" fill="white"/>
<path d="M303.567 273.86L140.231 179.559C138.963 178.828 136.909 178.828 135.641 179.559L127.287 184.382C126.019 185.114 126.019 186.301 127.287 187.032L290.648 281.318C291.915 282.049 293.971 282.049 295.238 281.318L303.567 276.51C304.835 275.779 304.835 274.592 303.567 273.86Z" fill="#263238"/>
<path d="M282.037 286.29L118.702 191.988C117.435 191.257 115.38 191.257 114.113 191.988L62.7271 221.656C61.4594 222.388 61.4594 223.575 62.7271 224.306L225.875 318.479C227.143 319.21 229.199 319.213 230.469 318.486L282.033 288.933C283.302 288.205 283.305 287.022 282.037 286.29Z" fill="#263238"/>
<path d="M135.622 234.415L130.509 231.463C130.291 231.337 130.304 231.126 130.537 230.992L136.451 227.577C136.684 227.443 137.05 227.435 137.267 227.56L142.382 230.513C142.599 230.639 142.586 230.85 142.352 230.984L136.438 234.398C136.205 234.533 135.84 234.54 135.622 234.415ZM145.714 222.683L150.829 225.635C151.046 225.761 151.033 225.972 150.8 226.107L144.886 229.521C144.653 229.656 144.288 229.663 144.07 229.538L138.957 226.585C138.739 226.46 138.752 226.249 138.985 226.114L144.899 222.7C145.132 222.566 145.497 222.558 145.714 222.683ZM162.237 232.222L170.891 237.219C171.109 237.344 171.096 237.555 170.863 237.69L164.949 241.104C164.716 241.239 164.35 241.246 164.133 241.121L155.478 236.124C155.261 235.999 155.273 235.788 155.507 235.653L161.42 232.239C161.655 232.105 162.019 232.097 162.237 232.222ZM153.188 226.999L158.303 229.952C158.519 230.077 158.507 230.288 158.273 230.422L152.359 233.837C152.126 233.971 151.761 233.979 151.544 233.854L146.431 230.901C146.214 230.775 146.226 230.565 146.459 230.431L152.373 227.017C152.606 226.88 152.972 226.873 153.188 226.999ZM173.251 238.582L178.364 241.534C178.582 241.66 178.569 241.87 178.336 242.005L172.422 245.419C172.189 245.554 171.824 245.561 171.606 245.436L166.491 242.483C166.274 242.358 166.287 242.147 166.521 242.012L172.434 238.598C172.669 238.463 173.035 238.456 173.251 238.582ZM180.726 242.897L185.84 245.85C186.057 245.975 186.044 246.186 185.811 246.32L179.897 249.734C179.664 249.869 179.298 249.878 179.081 249.751L173.966 246.799C173.749 246.673 173.762 246.463 173.995 246.329L179.909 242.915C180.143 242.78 180.509 242.771 180.726 242.897ZM157.465 256.781L152.351 253.828C152.135 253.703 152.146 253.492 152.381 253.358L158.293 249.943C158.527 249.809 158.892 249.801 159.11 249.926L164.223 252.878C164.44 253.005 164.428 253.214 164.194 253.35L158.281 256.764C158.048 256.899 157.683 256.906 157.465 256.781ZM164.939 261.097L159.826 258.144C159.609 258.018 159.621 257.808 159.856 257.673L165.768 254.26C166.002 254.125 166.367 254.118 166.585 254.243L171.699 257.196C171.916 257.321 171.904 257.533 171.671 257.666L165.757 261.081C165.523 261.214 165.157 261.222 164.939 261.097ZM172.414 265.412L167.299 262.459C167.082 262.334 167.095 262.123 167.328 261.988L173.24 258.574C173.474 258.439 173.839 258.432 174.057 258.557L179.17 261.509C179.387 261.635 179.375 261.845 179.14 261.98L173.228 265.394C172.997 265.529 172.632 265.537 172.414 265.412ZM179.889 269.727L174.774 266.775C174.557 266.65 174.57 266.439 174.804 266.304L180.717 262.89C180.95 262.755 181.315 262.748 181.533 262.873L186.646 265.825C186.863 265.95 186.851 266.161 186.618 266.296L180.704 269.709C180.471 269.845 180.106 269.852 179.889 269.727ZM143.096 238.731L137.983 235.777C137.765 235.652 137.778 235.441 138.011 235.307L143.925 231.893C144.158 231.758 144.523 231.75 144.74 231.876L149.854 234.828C150.071 234.954 150.058 235.165 149.825 235.299L143.911 238.714C143.679 238.848 143.314 238.856 143.096 238.731ZM149.99 252.465L138.583 245.878C138.365 245.752 138.378 245.542 138.612 245.408L152.973 237.116C153.206 236.982 153.572 236.974 153.789 237.099L159.69 240.506C159.908 240.632 159.895 240.842 159.662 240.978L152.058 245.367C151.825 245.502 151.812 245.713 152.03 245.838L156.75 248.563C156.967 248.688 156.955 248.899 156.721 249.034L150.808 252.448C150.573 252.584 150.208 252.591 149.99 252.465ZM188.2 247.213L193.315 250.166C193.532 250.291 193.519 250.502 193.285 250.637L187.371 254.051C187.138 254.185 186.773 254.193 186.555 254.068L181.441 251.116C181.223 250.989 181.236 250.779 181.47 250.644L187.383 247.23C187.618 247.094 187.983 247.088 188.2 247.213ZM195.674 251.528L200.789 254.48C201.006 254.606 200.993 254.816 200.76 254.952L194.847 258.366C194.614 258.501 194.249 258.508 194.031 258.383L188.918 255.43C188.7 255.305 188.713 255.093 188.946 254.959L194.86 251.545C195.092 251.41 195.457 251.403 195.674 251.528ZM233.024 299.918C232.791 300.053 232.427 300.06 232.208 299.935L227.094 296.982C226.876 296.857 226.89 296.645 227.123 296.51L233.037 293.096C233.27 292.961 233.636 292.954 233.853 293.079L238.967 296.031C239.184 296.157 239.171 296.367 238.938 296.503L233.024 299.918ZM255.47 286.051L260.584 289.003C260.802 289.128 260.789 289.339 260.556 289.474L254.642 292.887C254.409 293.022 254.043 293.03 253.826 292.904L248.711 289.952C248.494 289.827 248.507 289.616 248.741 289.481L254.655 286.068C254.887 285.932 255.253 285.925 255.47 286.051ZM243.44 296.176C243.207 296.311 242.841 296.318 242.624 296.193L237.509 293.24C237.292 293.115 237.306 292.904 237.539 292.769L243.452 289.355C243.685 289.221 244.049 289.213 244.268 289.338L249.381 292.29C249.599 292.416 249.586 292.626 249.353 292.761L243.44 296.176ZM219.827 302.54L214.713 299.588C214.496 299.462 214.508 299.252 214.742 299.118L220.655 295.703C220.888 295.569 221.254 295.561 221.471 295.688L226.585 298.64C226.801 298.765 226.789 298.976 226.555 299.11L220.641 302.525C220.41 302.658 220.045 302.666 219.827 302.54ZM228.118 306.839C227.884 306.973 227.519 306.981 227.302 306.856L222.188 303.903C221.971 303.777 221.983 303.567 222.217 303.432L228.13 300.018C228.364 299.883 228.728 299.876 228.947 300.001L234.061 302.954C234.278 303.079 234.266 303.29 234.031 303.425L228.118 306.839ZM247.995 281.735L253.109 284.687C253.327 284.813 253.314 285.023 253.08 285.158L247.167 288.572C246.934 288.706 246.568 288.714 246.351 288.589L241.237 285.636C241.02 285.511 241.033 285.3 241.266 285.165L247.18 281.751C247.413 281.617 247.779 281.61 247.995 281.735ZM210.623 260.158L215.738 263.111C215.954 263.237 215.942 263.447 215.708 263.581L209.794 266.995C209.561 267.13 209.197 267.138 208.978 267.012L203.864 264.059C203.646 263.934 203.659 263.723 203.892 263.589L209.806 260.174C210.041 260.041 210.406 260.033 210.623 260.158ZM240.521 277.421L245.635 280.373C245.853 280.498 245.84 280.709 245.607 280.843L239.693 284.258C239.46 284.392 239.094 284.401 238.877 284.275L233.763 281.322C233.546 281.196 233.559 280.986 233.793 280.852L239.706 277.438C239.938 277.302 240.303 277.294 240.521 277.421ZM203.149 255.843L208.263 258.796C208.48 258.921 208.467 259.132 208.233 259.267L202.319 262.681C202.086 262.816 201.722 262.824 201.503 262.698L196.389 259.746C196.171 259.62 196.184 259.41 196.417 259.275L202.331 255.861C202.566 255.725 202.932 255.718 203.149 255.843ZM218.097 264.474L223.212 267.426C223.429 267.551 223.417 267.762 223.183 267.896L217.27 271.311C217.036 271.445 216.671 271.454 216.453 271.328L211.34 268.376C211.123 268.251 211.135 268.04 211.369 267.905L217.282 264.491C217.516 264.356 217.88 264.349 218.097 264.474ZM225.573 268.789L230.686 271.742C230.903 271.867 230.891 272.078 230.657 272.213L224.744 275.627C224.51 275.762 224.145 275.769 223.927 275.644L218.813 272.692C218.597 272.566 218.609 272.355 218.843 272.22L224.755 268.806C224.99 268.671 225.355 268.664 225.573 268.789ZM233.047 273.104L238.161 276.056C238.378 276.183 238.366 276.393 238.133 276.528L232.219 279.942C231.986 280.077 231.62 280.084 231.403 279.959L226.288 277.006C226.071 276.881 226.084 276.67 226.318 276.534L232.232 273.12C232.464 272.987 232.829 272.979 233.047 273.104ZM194.838 278.358L189.723 275.404C189.506 275.279 189.519 275.067 189.752 274.934L195.666 271.52C195.899 271.385 196.265 271.378 196.482 271.503L201.596 274.455C201.814 274.581 201.801 274.791 201.567 274.926L195.653 278.341C195.42 278.475 195.055 278.483 194.838 278.358ZM129.192 213.144L134.306 216.097C134.523 216.223 134.51 216.434 134.277 216.568L128.363 219.982C128.13 220.117 127.764 220.124 127.547 219.999L122.434 217.047C122.216 216.921 122.229 216.711 122.462 216.576L128.376 213.161C128.609 213.026 128.975 213.019 129.192 213.144ZM138.24 218.368L143.354 221.321C143.571 221.446 143.558 221.657 143.325 221.792L137.412 225.206C137.179 225.341 136.813 225.348 136.596 225.223L131.482 222.271C131.264 222.145 131.277 221.935 131.51 221.799L137.424 218.385C137.657 218.249 138.023 218.243 138.24 218.368ZM121.718 208.829L126.831 211.781C127.049 211.906 127.036 212.117 126.803 212.253L120.889 215.666C120.656 215.801 120.29 215.808 120.074 215.683L114.959 212.731C114.742 212.605 114.755 212.394 114.988 212.259L120.901 208.845C121.135 208.711 121.5 208.703 121.718 208.829ZM160.406 248.723L155.292 245.771C155.075 245.645 155.088 245.435 155.322 245.299L161.235 241.885C161.468 241.751 161.834 241.743 162.051 241.868L167.166 244.821C167.383 244.946 167.37 245.157 167.137 245.292L161.223 248.706C160.988 248.842 160.623 248.849 160.406 248.723ZM113.428 204.531C113.661 204.396 114.027 204.389 114.244 204.514L119.357 207.466C119.575 207.592 119.562 207.802 119.329 207.937L113.415 211.351C113.182 211.485 112.817 211.493 112.6 211.368L107.485 208.415C107.268 208.29 107.281 208.079 107.514 207.944L113.428 204.531ZM187.363 274.042L182.249 271.09C182.032 270.964 182.045 270.754 182.279 270.62L188.193 267.205C188.426 267.071 188.791 267.063 189.009 267.188L194.123 270.142C194.341 270.267 194.328 270.478 194.095 270.612L188.182 274.026C187.946 274.16 187.58 274.167 187.363 274.042ZM95.7035 221.122L90.5901 218.17C90.3728 218.045 90.3855 217.833 90.6187 217.698L96.5324 214.285C96.7656 214.15 97.1303 214.143 97.3486 214.268L102.462 217.22C102.679 217.345 102.667 217.557 102.433 217.692L96.5197 221.106C96.2865 221.241 95.9208 221.248 95.7035 221.122ZM111.626 220.561L106.512 217.608C106.295 217.483 106.308 217.272 106.542 217.137L112.456 213.723C112.689 213.588 113.054 213.581 113.271 213.706L118.385 216.658C118.603 216.784 118.59 216.994 118.357 217.129L112.443 220.543C112.209 220.679 111.843 220.686 111.626 220.561ZM104.98 209.408C105.213 209.273 105.578 209.266 105.796 209.391L110.91 212.344C111.127 212.469 111.115 212.68 110.881 212.815L104.967 216.229C104.734 216.364 104.368 216.371 104.152 216.246L99.0372 213.294C98.8199 213.168 98.8326 212.958 99.0658 212.823L104.98 209.408ZM103.407 208.499L89.0456 216.791C88.8124 216.925 88.4467 216.933 88.2294 216.808L83.116 213.856C82.8987 213.729 82.9114 213.519 83.1446 213.384L97.5055 205.093C97.7387 204.958 98.1044 204.951 98.3217 205.076L103.435 208.028C103.652 208.153 103.64 208.365 103.407 208.499ZM120.744 218.021L125.858 220.973C126.076 221.099 126.063 221.31 125.83 221.444L119.916 224.858C119.683 224.993 119.317 225.001 119.1 224.875L113.986 221.923C113.769 221.797 113.782 221.587 114.015 221.453L119.928 218.038C120.162 217.904 120.528 217.896 120.744 218.021ZM176.998 250.5L182.113 253.453C182.33 253.578 182.317 253.789 182.084 253.924L176.17 257.338C175.937 257.472 175.571 257.48 175.354 257.355L170.24 254.403C170.022 254.277 170.035 254.067 170.269 253.932L176.183 250.518C176.416 250.382 176.781 250.375 176.998 250.5ZM103.994 225.421C103.762 225.556 103.396 225.563 103.178 225.438L98.0631 222.486C97.8468 222.36 97.8585 222.15 98.0927 222.015L104.006 218.601C104.24 218.467 104.605 218.459 104.822 218.584L109.936 221.537C110.153 221.662 110.141 221.873 109.908 222.008L103.994 225.421ZM169.524 246.185L174.639 249.137C174.856 249.263 174.842 249.473 174.609 249.607L168.695 253.022C168.462 253.156 168.097 253.164 167.879 253.038L162.764 250.085C162.547 249.96 162.56 249.749 162.793 249.615L168.706 246.2C168.942 246.067 169.307 246.059 169.524 246.185ZM225.55 295.602C225.317 295.736 224.951 295.744 224.734 295.619L219.62 292.667C219.403 292.54 219.415 292.331 219.649 292.196L225.563 288.782C225.796 288.647 226.161 288.64 226.378 288.765L231.493 291.718C231.71 291.843 231.697 292.054 231.464 292.189L225.55 295.602ZM236.794 285.023L241.908 287.976C242.126 288.101 242.113 288.312 241.879 288.447L235.965 291.861C235.732 291.996 235.366 292.003 235.149 291.878L230.034 288.926C229.817 288.8 229.83 288.59 230.063 288.454L235.976 285.04C236.212 284.904 236.576 284.897 236.794 285.023ZM217.261 291.303L212.147 288.351C211.929 288.226 211.942 288.015 212.175 287.881L218.089 284.466C218.322 284.332 218.688 284.323 218.905 284.449L224.02 287.402C224.236 287.527 224.224 287.738 223.99 287.872L218.076 291.286C217.843 291.421 217.477 291.43 217.261 291.303ZM209.786 286.988L204.672 284.036C204.454 283.91 204.467 283.7 204.7 283.565L210.614 280.151C210.846 280.017 211.212 280.009 211.43 280.134L216.543 283.086C216.761 283.212 216.748 283.422 216.514 283.557L210.6 286.971C210.369 287.106 210.003 287.113 209.786 286.988ZM202.312 282.673L197.197 279.721C196.98 279.595 196.993 279.385 197.226 279.249L203.14 275.835C203.373 275.7 203.738 275.693 203.956 275.819L209.069 278.771C209.287 278.896 209.274 279.108 209.041 279.242L203.128 282.656C202.894 282.791 202.529 282.799 202.312 282.673ZM229.32 280.708L234.433 283.66C234.65 283.785 234.638 283.996 234.405 284.131L228.491 287.546C228.258 287.68 227.893 287.688 227.675 287.563L222.56 284.611C222.343 284.485 222.355 284.273 222.589 284.139L228.502 280.725C228.737 280.59 229.102 280.582 229.32 280.708ZM221.845 276.392L226.959 279.344C227.176 279.471 227.164 279.681 226.93 279.815L221.017 283.229C220.784 283.364 220.418 283.371 220.2 283.246L215.086 280.293C214.87 280.168 214.881 279.957 215.116 279.823L221.029 276.408C221.263 276.274 221.628 276.266 221.845 276.392ZM191.947 259.131L197.062 262.083C197.279 262.21 197.266 262.419 197.032 262.555L191.118 265.968C190.885 266.103 190.521 266.11 190.302 265.985L185.189 263.033C184.971 262.908 184.984 262.696 185.217 262.562L191.131 259.147C191.365 259.013 191.73 259.005 191.947 259.131ZM199.422 263.446L204.537 266.399C204.754 266.524 204.741 266.736 204.508 266.869L198.596 270.284C198.362 270.418 197.997 270.426 197.779 270.301L192.665 267.348C192.448 267.222 192.46 267.012 192.693 266.877L198.607 263.463C198.839 263.328 199.205 263.32 199.422 263.446ZM184.473 254.815L189.588 257.767C189.805 257.893 189.792 258.103 189.559 258.238L183.646 261.652C183.413 261.787 183.048 261.794 182.83 261.669L177.716 258.716C177.498 258.591 177.511 258.38 177.745 258.245L183.659 254.831C183.89 254.697 184.256 254.69 184.473 254.815ZM214.37 272.076L219.485 275.029C219.702 275.154 219.69 275.365 219.456 275.5L213.543 278.914C213.309 279.049 212.945 279.056 212.726 278.931L207.612 275.979C207.395 275.853 207.407 275.643 207.641 275.508L213.554 272.095C213.788 271.959 214.153 271.951 214.37 272.076ZM206.896 267.762L212.011 270.714C212.228 270.84 212.216 271.05 211.981 271.185L206.068 274.599C205.834 274.733 205.47 274.741 205.252 274.616L200.139 271.663C199.922 271.538 199.934 271.327 200.168 271.192L206.081 267.778C206.313 267.643 206.679 267.636 206.896 267.762ZM212.353 298.225L207.24 295.272C207.023 295.147 207.035 294.936 207.268 294.801L213.182 291.387C213.415 291.253 213.78 291.245 213.998 291.37L219.112 294.322C219.329 294.448 219.316 294.658 219.083 294.794L213.171 298.208C212.935 298.343 212.571 298.35 212.353 298.225ZM256.214 293.797L262.128 290.382C262.361 290.248 262.726 290.24 262.944 290.365L268.057 293.318C268.275 293.444 268.262 293.655 268.029 293.789L262.115 297.203C261.882 297.338 261.516 297.345 261.299 297.22L256.185 294.268C255.968 294.142 255.982 293.931 256.214 293.797ZM245.013 297.085L250.927 293.67C251.16 293.536 251.525 293.527 251.743 293.653L259.61 298.196C259.828 298.321 259.815 298.532 259.581 298.666L253.667 302.079C253.434 302.214 253.069 302.222 252.851 302.096L244.983 297.554C244.767 297.429 244.78 297.219 245.013 297.085ZM265.288 287.196L271.201 283.783C271.435 283.648 271.799 283.64 272.018 283.766L278.312 287.399C278.529 287.525 278.516 287.737 278.283 287.87L272.371 291.284C272.137 291.419 271.772 291.426 271.554 291.301L265.26 287.668C265.041 287.541 265.054 287.331 265.288 287.196ZM260.461 284.41C260.228 284.545 259.864 284.552 259.646 284.427L254.533 281.474C254.316 281.349 254.328 281.138 254.561 281.003L260.475 277.589C260.708 277.454 261.074 277.447 261.291 277.572L266.405 280.524C266.622 280.65 266.609 280.86 266.376 280.995L260.461 284.41ZM234.598 300.825L240.512 297.411C240.745 297.277 241.111 297.269 241.328 297.395L251.163 303.073C251.38 303.199 251.368 303.409 251.133 303.543L245.221 306.957C244.988 307.092 244.623 307.1 244.405 306.974L234.57 301.296C234.353 301.171 234.365 300.961 234.598 300.825ZM229.691 307.747L235.604 304.333C235.837 304.198 236.202 304.19 236.42 304.316L242.714 307.95C242.931 308.075 242.918 308.287 242.685 308.42L236.771 311.835C236.538 311.969 236.173 311.977 235.955 311.851L229.661 308.218C229.445 308.093 229.459 307.882 229.691 307.747ZM204.889 252.325C204.656 252.46 204.291 252.467 204.074 252.342L198.96 249.389C198.743 249.264 198.756 249.053 198.989 248.918L204.903 245.504C205.136 245.369 205.501 245.362 205.719 245.487L210.832 248.439C211.05 248.565 211.037 248.775 210.804 248.91L204.889 252.325ZM219.838 260.956C219.605 261.09 219.239 261.098 219.022 260.973L213.907 258.019C213.69 257.894 213.703 257.683 213.937 257.549L219.851 254.135C220.084 254 220.449 253.992 220.667 254.118L225.781 257.07C225.999 257.196 225.986 257.406 225.753 257.541L219.838 260.956ZM252.987 280.094C252.754 280.229 252.388 280.237 252.171 280.111L247.057 277.159C246.839 277.034 246.852 276.823 247.085 276.688L252.999 273.274C253.232 273.139 253.597 273.132 253.815 273.257L258.93 276.209C259.147 276.334 259.134 276.545 258.901 276.68L252.987 280.094ZM212.364 256.64C212.131 256.775 211.765 256.783 211.548 256.657L206.433 253.705C206.216 253.58 206.23 253.369 206.463 253.235L212.376 249.82C212.609 249.686 212.973 249.678 213.192 249.803L218.305 252.755C218.523 252.881 218.51 253.091 218.277 253.226L212.364 256.64ZM227.312 265.271C227.079 265.405 226.713 265.413 226.496 265.287L221.382 262.335C221.165 262.21 221.178 261.998 221.411 261.863L227.324 258.449C227.557 258.314 227.923 258.307 228.14 258.432L233.254 261.384C233.472 261.51 233.459 261.721 233.225 261.856L227.312 265.271ZM225.583 308.303C225.816 308.168 226.182 308.16 226.399 308.286L234.267 312.828C234.484 312.953 234.471 313.164 234.238 313.298L228.324 316.713C228.091 316.847 227.726 316.856 227.508 316.73L219.641 312.188C219.424 312.062 219.436 311.852 219.67 311.717L225.583 308.303ZM238.039 271.463C237.806 271.598 237.441 271.605 237.223 271.48L232.109 268.528C231.891 268.402 231.904 268.192 232.137 268.057L238.051 264.642C238.284 264.508 238.65 264.5 238.867 264.625L243.982 267.578C244.199 267.704 244.186 267.914 243.953 268.049L238.039 271.463ZM245.513 275.78C245.28 275.914 244.914 275.922 244.697 275.797L239.584 272.844C239.366 272.718 239.379 272.507 239.612 272.373L245.526 268.959C245.759 268.824 246.125 268.817 246.342 268.942L251.457 271.894C251.674 272.02 251.661 272.23 251.427 272.364L245.513 275.78ZM87.1112 228.355C87.3444 228.221 87.709 228.213 87.9273 228.338L100.515 235.607C100.732 235.732 100.719 235.943 100.486 236.078L94.5725 239.493C94.3404 239.627 93.9746 239.635 93.7563 239.51L81.1688 232.241C80.9515 232.116 80.9642 231.905 81.1974 231.771L87.1112 228.355ZM103.633 237.894C103.867 237.76 104.231 237.752 104.45 237.877L109.564 240.829C109.781 240.956 109.769 241.165 109.535 241.301L103.623 244.715C103.39 244.85 103.024 244.857 102.807 244.731L97.6931 241.779C97.4758 241.654 97.4885 241.443 97.7228 241.309L103.633 237.894ZM204.878 293.91L199.764 290.958C199.546 290.832 199.559 290.621 199.793 290.486L205.707 287.072C205.94 286.937 206.305 286.93 206.523 287.055L211.637 290.008C211.854 290.133 211.841 290.344 211.608 290.479L205.694 293.893C205.461 294.028 205.095 294.035 204.878 293.91ZM118.581 246.525C118.815 246.39 119.18 246.383 119.398 246.508L124.512 249.46C124.729 249.586 124.717 249.797 124.482 249.932L118.57 253.346C118.337 253.48 117.971 253.488 117.754 253.363L112.639 250.41C112.422 250.285 112.435 250.074 112.668 249.939L118.581 246.525ZM79.636 224.039C79.8692 223.904 80.2349 223.897 80.4522 224.022L85.5667 226.975C85.783 227.1 85.7713 227.311 85.537 227.446L79.6233 230.86C79.3901 230.995 79.0244 231.002 78.8071 230.877L73.6926 227.925C73.4753 227.799 73.488 227.589 73.7212 227.454L79.636 224.039ZM66.2482 223.139L80.6102 214.847C80.8434 214.712 81.208 214.705 81.4264 214.83L86.5408 217.783C86.7581 217.908 86.7455 218.119 86.5123 218.254L72.1514 226.546C71.9182 226.681 71.5535 226.688 71.3351 226.563L66.2207 223.61C66.0023 223.485 66.015 223.273 66.2482 223.139ZM146.512 262.651C146.746 262.516 147.111 262.509 147.328 262.634L153.622 266.267C153.839 266.392 153.826 266.604 153.593 266.739L147.68 270.152C147.446 270.287 147.081 270.294 146.863 270.169L140.569 266.535C140.352 266.41 140.364 266.198 140.598 266.065L146.512 262.651ZM127.63 251.748C127.863 251.614 128.229 251.606 128.446 251.732L136.314 256.275C136.532 256.4 136.519 256.611 136.286 256.745L130.372 260.16C130.139 260.294 129.773 260.302 129.556 260.176L121.688 255.634C121.471 255.509 121.484 255.298 121.718 255.164L127.63 251.748ZM163.821 272.643C164.054 272.509 164.42 272.501 164.637 272.626L206.73 296.929C206.947 297.054 206.935 297.265 206.701 297.399L200.788 300.814C200.554 300.948 200.19 300.957 199.971 300.831L157.879 276.529C157.662 276.403 157.674 276.192 157.907 276.057L163.821 272.643ZM208.274 298.309C208.508 298.174 208.873 298.167 209.091 298.292L215.385 301.926C215.602 302.051 215.589 302.262 215.355 302.397L209.441 305.812C209.208 305.946 208.843 305.954 208.625 305.828L202.331 302.194C202.115 302.069 202.126 301.858 202.361 301.723L208.274 298.309ZM155.167 267.647C155.401 267.513 155.766 267.505 155.984 267.63L162.278 271.264C162.495 271.39 162.482 271.6 162.249 271.735L156.336 275.149C156.102 275.285 155.737 275.292 155.519 275.166L149.225 271.531C149.008 271.406 149.02 271.195 149.255 271.061L155.167 267.647ZM216.929 303.305C217.163 303.17 217.527 303.163 217.746 303.288L224.04 306.921C224.257 307.048 224.243 307.257 224.01 307.392L218.097 310.806C217.864 310.941 217.5 310.948 217.281 310.823L210.987 307.19C210.77 307.063 210.782 306.854 211.016 306.718L216.929 303.305ZM137.858 257.654C138.091 257.519 138.455 257.511 138.674 257.637L144.968 261.27C145.184 261.396 145.172 261.606 144.938 261.741L139.025 265.155C138.791 265.29 138.426 265.297 138.21 265.172L131.915 261.539C131.698 261.414 131.711 261.203 131.945 261.068L137.858 257.654ZM111.107 242.21C111.341 242.075 111.706 242.067 111.924 242.193L117.037 245.146C117.254 245.271 117.242 245.482 117.007 245.616L111.094 249.031C110.86 249.165 110.496 249.173 110.277 249.048L105.164 246.095C104.947 245.969 104.959 245.759 105.193 245.624L111.107 242.21ZM94.7304 230.315L89.617 227.363C89.3997 227.237 89.4124 227.026 89.6456 226.891L95.5594 223.478C95.7926 223.344 96.1572 223.336 96.3755 223.461L101.49 226.413C101.706 226.538 101.695 226.749 101.46 226.885L95.5466 230.299C95.3123 230.433 94.9467 230.44 94.7304 230.315ZM128.148 230.1L123.035 227.148C122.817 227.023 122.83 226.812 123.063 226.677L128.977 223.263C129.21 223.128 129.576 223.12 129.793 223.246L134.907 226.198C135.124 226.324 135.111 226.534 134.877 226.669L128.964 230.083C128.731 230.218 128.365 230.225 128.148 230.1ZM145.084 259.387L130.134 250.756C129.917 250.631 129.93 250.42 130.164 250.286L136.077 246.871C136.31 246.737 136.676 246.729 136.893 246.854L151.842 255.485C152.059 255.61 152.047 255.821 151.814 255.956L145.9 259.369C145.666 259.504 145.301 259.513 145.084 259.387ZM103.02 234.614C102.786 234.748 102.421 234.756 102.204 234.63L97.09 231.678C96.8727 231.552 96.8854 231.342 97.1186 231.207L103.032 227.792C103.266 227.658 103.63 227.65 103.847 227.775L108.962 230.729C109.179 230.854 109.165 231.065 108.933 231.199L103.02 234.614ZM110.653 229.753L105.538 226.8C105.322 226.675 105.334 226.464 105.568 226.33L111.482 222.915C111.715 222.781 112.081 222.773 112.298 222.898L117.411 225.851C117.629 225.977 117.616 226.187 117.383 226.321L111.469 229.735C111.235 229.871 110.869 229.879 110.653 229.753ZM152.559 263.702L147.444 260.749C147.227 260.624 147.24 260.413 147.473 260.278L153.387 256.864C153.62 256.729 153.985 256.722 154.203 256.847L159.317 259.8C159.535 259.925 159.522 260.136 159.288 260.271L153.375 263.685C153.141 263.82 152.776 263.828 152.559 263.702ZM119.543 244.154C119.31 244.288 118.944 244.296 118.727 244.17L113.613 241.217C113.396 241.092 113.409 240.881 113.642 240.747L119.556 237.332C119.789 237.198 120.153 237.19 120.372 237.315L125.486 240.268C125.704 240.394 125.691 240.604 125.458 240.738L119.543 244.154ZM189.93 285.279L184.817 282.326C184.599 282.201 184.612 281.99 184.845 281.856L190.759 278.441C190.992 278.307 191.357 278.299 191.575 278.424L196.689 281.378C196.906 281.503 196.893 281.714 196.66 281.848L190.746 285.262C190.512 285.397 190.147 285.405 189.93 285.279ZM182.456 280.963L177.342 278.011C177.124 277.885 177.137 277.675 177.371 277.54L183.285 274.126C183.518 273.991 183.883 273.984 184.1 274.11L189.215 277.062C189.432 277.187 189.419 277.398 189.186 277.533L183.272 280.947C183.038 281.082 182.672 281.089 182.456 280.963ZM197.404 289.594L192.29 286.642C192.072 286.516 192.085 286.306 192.318 286.171L198.232 282.758C198.465 282.623 198.831 282.615 199.048 282.741L204.162 285.693C204.379 285.818 204.366 286.029 204.133 286.163L198.219 289.578C197.986 289.712 197.621 289.72 197.404 289.594ZM167.507 272.333L162.393 269.38C162.176 269.254 162.189 269.043 162.422 268.909L168.336 265.495C168.569 265.36 168.935 265.352 169.152 265.478L174.266 268.431C174.484 268.556 174.471 268.767 174.238 268.901L168.325 272.316C168.09 272.451 167.724 272.459 167.507 272.333ZM174.981 276.648L169.867 273.696C169.65 273.571 169.663 273.36 169.896 273.225L175.81 269.811C176.043 269.676 176.409 269.669 176.626 269.794L181.741 272.746C181.958 272.872 181.945 273.083 181.711 273.218L175.797 276.632C175.564 276.767 175.198 276.774 174.981 276.648ZM160.033 268.017L154.918 265.065C154.701 264.94 154.714 264.729 154.947 264.595L160.861 261.18C161.094 261.046 161.46 261.037 161.677 261.163L166.791 264.115C167.009 264.241 166.996 264.451 166.762 264.586L160.848 268C160.615 268.136 160.25 268.143 160.033 268.017ZM125.837 204.179C125.604 204.313 125.238 204.321 125.021 204.196L119.906 201.243C119.689 201.118 119.702 200.907 119.935 200.772L121.509 199.863C121.742 199.728 122.108 199.72 122.325 199.846L127.439 202.799C127.655 202.924 127.643 203.135 127.409 203.269L125.837 204.179ZM162.613 227.916C162.38 228.051 162.015 228.06 161.797 227.933L156.682 224.981C156.465 224.856 156.478 224.645 156.711 224.511L162.624 221.097C162.858 220.962 163.223 220.954 163.441 221.081L168.555 224.034C168.772 224.159 168.76 224.37 168.527 224.504L162.613 227.916ZM147.664 219.286C147.43 219.421 147.065 219.428 146.848 219.303L141.734 216.351C141.517 216.225 141.529 216.015 141.763 215.879L147.676 212.465C147.91 212.33 148.275 212.323 148.493 212.448L153.607 215.401C153.823 215.526 153.812 215.738 153.577 215.872L147.664 219.286ZM171.739 233.186C171.506 233.32 171.142 233.328 170.923 233.203L165.809 230.251C165.591 230.126 165.604 229.915 165.838 229.78L171.751 226.366C171.984 226.231 172.35 226.224 172.567 226.35L177.682 229.302C177.899 229.427 177.886 229.638 177.653 229.774L171.739 233.186ZM155.139 223.601C154.906 223.736 154.54 223.743 154.323 223.618L149.209 220.665C148.993 220.54 149.005 220.329 149.239 220.194L155.153 216.78C155.386 216.645 155.751 216.638 155.968 216.763L161.081 219.715C161.298 219.841 161.286 220.051 161.052 220.186L155.139 223.601ZM186.689 241.817C186.455 241.952 186.091 241.959 185.872 241.833L180.759 238.881C180.542 238.756 180.554 238.545 180.788 238.409L186.701 234.996C186.935 234.862 187.3 234.854 187.518 234.979L192.632 237.931C192.849 238.057 192.836 238.267 192.602 238.403L186.689 241.817ZM179.215 237.502C178.981 237.637 178.616 237.644 178.398 237.519L173.284 234.566C173.067 234.441 173.079 234.23 173.314 234.095L179.226 230.681C179.459 230.546 179.825 230.539 180.042 230.664L185.156 233.616C185.373 233.742 185.36 233.952 185.127 234.088L179.215 237.502ZM140.786 212.809C140.553 212.944 140.187 212.951 139.97 212.826L134.856 209.873C134.638 209.748 134.651 209.537 134.884 209.403L136.458 208.494C136.692 208.359 137.057 208.352 137.274 208.477L142.388 211.43C142.605 211.555 142.593 211.766 142.359 211.901L140.786 212.809ZM118.363 199.864C118.13 199.998 117.764 200.006 117.547 199.881L112.432 196.928C112.215 196.802 112.228 196.592 112.462 196.458L114.036 195.548C114.269 195.414 114.634 195.406 114.852 195.532L119.967 198.485C120.184 198.61 120.171 198.822 119.937 198.956L118.363 199.864ZM105.941 207.036C105.708 207.17 105.342 207.178 105.125 207.052L100.011 204.1C99.794 203.974 99.8068 203.764 100.04 203.63L105.954 200.216C106.187 200.081 106.553 200.073 106.77 200.199L111.884 203.152C112.102 203.277 112.089 203.488 111.856 203.622L105.941 207.036ZM87.2553 226L82.1408 223.047C81.9235 222.922 81.9362 222.711 82.1694 222.576L88.0832 219.162C88.3164 219.027 88.6821 219.02 88.8994 219.145L94.0128 222.097C94.2301 222.223 94.2174 222.433 93.9831 222.568L88.0704 225.982C87.8383 226.118 87.4737 226.125 87.2553 226ZM133.311 208.494C133.078 208.629 132.713 208.637 132.495 208.511L127.381 205.559C127.163 205.434 127.176 205.223 127.409 205.088L128.983 204.18C129.216 204.045 129.582 204.037 129.799 204.163L134.914 207.115C135.13 207.241 135.119 207.451 134.884 207.586L133.311 208.494ZM194.163 246.133C193.929 246.267 193.564 246.275 193.346 246.15L188.232 243.197C188.015 243.071 188.027 242.861 188.261 242.727L194.174 239.313C194.408 239.178 194.773 239.17 194.991 239.296L200.105 242.249C200.321 242.374 200.31 242.585 200.075 242.719L194.163 246.133Z" fill="#455A64"/>
<path d="M163.77 292.586L107.795 260.27L73.3484 280.157L129.324 312.473L163.77 292.586Z" fill="#263238"/>
</svg>
