<svg width="1080" height="1080" viewBox="0 0 1080 1080" fill="none" xmlns="http://www.w3.org/2000/svg">
<path d="M81.2599 692.13C73.4699 692.13 67.5499 690.1 63.4899 686.04C59.4299 681.98 57.3999 676.06 57.3999 668.27V540.78C57.3999 532.99 59.4299 527.07 63.4899 523.01C67.5499 518.95 73.4699 516.92 81.2599 516.92H165.75C171.38 516.92 175.73 518.41 178.8 521.39C181.86 524.37 183.4 528.68 183.4 534.31C183.4 539.94 181.87 544.54 178.8 547.6C175.73 550.67 171.38 552.2 165.75 552.2H100.89V585.5H160.04C165.84 585.5 170.23 586.99 173.21 589.97C176.19 592.95 177.68 597.34 177.68 603.14C177.68 608.94 176.19 613.12 173.21 616.19C170.23 619.26 165.84 620.79 160.04 620.79H100.89V656.82H165.75C171.38 656.82 175.73 658.35 178.8 661.42C181.86 664.49 183.4 668.84 183.4 674.47C183.4 680.1 181.87 684.66 178.8 687.64C175.73 690.62 171.38 692.11 165.75 692.11H81.2599V692.13Z" fill="white"/>
<path d="M218.18 694.61C213.04 694.61 208.74 693.37 205.26 690.88C201.78 688.4 199.63 685.04 198.8 680.82C197.97 676.6 198.71 671.83 201.04 666.53L262.92 533.33C265.9 526.87 269.54 522.11 273.85 519.04C278.16 515.98 283.21 514.44 289.01 514.44C294.81 514.44 299.57 515.97 303.8 519.04C308.02 522.11 311.63 526.87 314.61 533.33L376.74 666.53C379.23 671.83 380.1 676.64 379.35 680.94C378.6 685.25 376.57 688.61 373.26 691C369.94 693.4 365.72 694.6 360.59 694.6C354.29 694.6 349.32 693.02 345.68 689.88C342.03 686.74 338.8 681.85 335.99 675.22L322.57 643.91L340.21 656.83H237.58L254.98 643.91L241.56 675.22C238.74 682.01 235.76 686.94 232.61 690.01C229.46 693.07 224.66 694.61 218.2 694.61H218.18ZM288.51 564.64L259.68 633.48L252.72 621.55H325.04L317.83 633.48L289 564.64H288.5H288.51Z" fill="white"/>
<path d="M488.81 695.11C468.76 695.11 451.74 691.34 437.74 683.8C423.74 676.26 413.05 665.78 405.68 652.36C398.31 638.94 394.62 623.29 394.62 605.39C394.62 591.47 396.86 578.88 401.33 567.62C405.8 556.36 412.18 546.79 420.47 538.92C428.75 531.05 438.9 524.92 450.91 520.53C462.92 516.14 476.55 513.94 491.79 513.94C500.07 513.94 508.52 514.77 517.14 516.43C525.75 518.09 534.29 521.07 542.74 525.38C546.72 527.37 549.53 530.15 551.19 533.71C552.84 537.27 553.43 541.04 552.93 545.02C552.43 549 550.98 552.56 548.58 555.71C546.18 558.86 543.11 560.97 539.39 562.05C535.66 563.13 531.39 562.59 526.59 560.43C521.62 558.11 516.28 556.33 510.56 555.09C504.84 553.85 498.76 553.23 492.29 553.23C481.02 553.23 471.66 555.22 464.21 559.2C456.75 563.18 451.2 569.06 447.56 576.84C443.91 584.63 442.09 594.15 442.09 605.42C442.09 622.32 446.27 635.08 454.64 643.69C463 652.31 475.31 656.61 491.54 656.61C496.51 656.61 501.89 656.11 507.69 655.12C513.49 654.13 519.45 652.63 525.58 650.65L517.13 668.05V625.55H499.98C494.18 625.55 489.75 624.15 486.68 621.33C483.61 618.51 482.08 614.62 482.08 609.65C482.08 604.35 483.61 600.33 486.68 597.6C489.74 594.87 494.17 593.5 499.98 593.5H536.51C542.47 593.5 546.95 594.99 549.93 597.97C552.91 600.95 554.4 605.43 554.4 611.39V666.56C554.4 671.53 553.36 675.72 551.29 679.11C549.22 682.51 545.95 685.04 541.47 686.69C533.68 689.34 525.27 691.41 516.25 692.9C507.22 694.39 498.07 695.14 488.79 695.14L488.81 695.11Z" fill="white"/>
<path d="M608.59 692.13C601.13 692.13 595.38 690.1 591.32 686.04C587.26 681.98 585.23 676.22 585.23 668.77V539.79C585.23 532.34 587.22 526.62 591.19 522.64C595.16 518.66 600.88 516.68 608.34 516.68C615.8 516.68 621.01 518.67 624.99 522.64C628.97 526.61 630.95 532.33 630.95 539.79V654.1H691.83C698.12 654.1 702.93 655.72 706.24 658.95C709.55 662.18 711.21 666.86 711.21 672.99C711.21 679.12 709.55 683.84 706.24 687.15C702.92 690.47 698.12 692.12 691.83 692.12H608.58L608.59 692.13Z" fill="white"/>
<path d="M754.46 692.13C746.67 692.13 740.75 690.1 736.69 686.04C732.63 681.98 730.6 676.06 730.6 668.27V540.78C730.6 532.99 732.63 527.07 736.69 523.01C740.75 518.95 746.67 516.92 754.46 516.92H838.95C844.58 516.92 848.93 518.41 852 521.39C855.06 524.37 856.6 528.68 856.6 534.31C856.6 539.94 855.07 544.54 852 547.6C848.93 550.66 844.58 552.2 838.95 552.2H774.09V585.5H833.23C839.03 585.5 843.42 586.99 846.4 589.97C849.38 592.95 850.87 597.34 850.87 603.14C850.87 608.94 849.38 613.12 846.4 616.19C843.42 619.26 839.03 620.79 833.23 620.79H774.09V656.82H838.95C844.58 656.82 848.93 658.35 852 661.42C855.06 664.49 856.6 668.84 856.6 674.47C856.6 680.1 855.07 684.66 852 687.64C848.93 690.62 844.58 692.11 838.95 692.11H754.46V692.13Z" fill="white"/>
<path d="M948.54 695.11C941.75 695.11 934.79 694.61 927.67 693.62C920.54 692.63 913.71 691.22 907.17 689.4C900.62 687.58 894.78 685.42 889.65 682.94C885.18 680.79 882.03 677.89 880.21 674.24C878.39 670.6 877.73 666.83 878.22 662.93C878.72 659.04 880.12 655.56 882.44 652.49C884.76 649.43 887.82 647.36 891.63 646.28C895.44 645.2 899.75 645.74 904.55 647.9C910.84 650.88 917.97 653.24 925.92 654.98C933.87 656.72 941.41 657.59 948.53 657.59C959.3 657.59 966.88 656.06 971.27 652.99C975.66 649.93 977.86 646.32 977.86 642.18C977.86 638.37 976.33 635.31 973.26 632.99C970.19 630.67 964.77 628.68 956.98 627.03L927.9 620.82C911.83 617.34 899.94 611.5 892.24 603.3C884.54 595.1 880.68 584.46 880.68 571.37C880.68 562.59 882.5 554.72 886.15 547.76C889.79 540.8 894.85 534.84 901.31 529.87C907.77 524.9 915.56 521.01 924.67 518.19C933.78 515.37 943.81 513.97 954.74 513.97C963.35 513.97 972.09 514.96 980.96 516.95C989.82 518.94 997.49 521.84 1003.95 525.65C1007.76 527.64 1010.54 530.41 1012.27 533.98C1014.01 537.54 1014.67 541.15 1014.26 544.79C1013.84 548.44 1012.52 551.67 1010.28 554.48C1008.04 557.3 1005.06 559.16 1001.33 560.07C997.6 560.98 993.17 560.36 988.03 558.21C983.06 556.06 977.59 554.4 971.63 553.24C965.67 552.08 959.87 551.5 954.23 551.5C948.1 551.5 942.88 552.25 938.57 553.74C934.26 555.23 930.99 557.3 928.75 559.95C926.51 562.6 925.4 565.67 925.4 569.14C925.4 572.61 926.89 575.56 929.87 577.96C932.85 580.36 938.15 582.31 945.78 583.8L974.61 590.01C990.68 593.49 1002.69 599.25 1010.64 607.28C1018.59 615.32 1022.57 625.71 1022.57 638.47C1022.57 647.09 1020.83 654.83 1017.35 661.71C1013.87 668.59 1008.86 674.55 1002.32 679.6C995.77 684.65 987.99 688.51 978.96 691.16C969.93 693.81 959.78 695.14 948.52 695.14L948.54 695.11Z" fill="white"/>
<path d="M226.57 865.62V826.25C226.57 823.16 226.14 821.2 225.3 820.34C224.45 819.49 222.48 819.07 219.39 819.07H203.64C197.46 819.07 192.87 817.56 189.86 814.55C186.85 811.54 185.34 806.95 185.34 800.77V760.71C185.34 754.54 186.85 749.94 189.86 746.93C192.87 743.92 197.46 742.41 203.64 742.41H224.02C230.19 742.41 234.79 743.92 237.8 746.93C240.81 749.94 242.32 754.54 242.32 760.71V782.94H226.34V763.26C226.34 760.17 225.91 758.21 225.07 757.36C224.22 756.51 222.25 756.09 219.16 756.09H208.51C205.58 756.09 203.65 756.52 202.72 757.36C201.79 758.21 201.33 760.18 201.33 763.26V798.23C201.33 801.17 201.79 803.09 202.72 804.02C203.65 804.95 205.57 805.41 208.51 805.41H224.26C230.43 805.41 235.03 806.92 238.04 809.93C241.05 812.94 242.56 817.53 242.56 823.71V868.17C242.56 874.35 241.06 878.94 238.04 881.95C235.03 884.96 230.43 886.47 224.26 886.47H204.11C197.93 886.47 193.34 884.96 190.33 881.95C187.32 878.94 185.81 874.35 185.81 868.17V845.94H201.79V865.62C201.79 868.56 202.25 870.48 203.18 871.41C204.11 872.34 206.04 872.8 208.97 872.8H219.39C222.48 872.8 224.45 872.34 225.3 871.41C226.15 870.48 226.57 868.56 226.57 865.62Z" fill="white"/>
<path d="M299.98 794.99V854.04H284.23V792.44C284.23 786.27 285.74 781.67 288.75 778.66C291.76 775.65 296.35 774.14 302.53 774.14H315.04V787.8H307.17C304.24 787.8 302.31 788.23 301.38 789.07C300.45 789.92 299.99 791.89 299.99 794.97L299.98 794.99ZM299.98 840.38V865.62C299.98 868.56 300.44 870.48 301.37 871.41C302.3 872.34 304.23 872.8 307.16 872.8H314.34V886.46H302.53C296.35 886.46 291.76 884.95 288.75 881.94C285.74 878.93 284.23 874.34 284.23 868.16V840.37H299.98V840.38ZM328.7 865.62V842.23H344.45V868.17C344.45 874.35 342.95 878.94 339.93 881.95C336.92 884.96 332.32 886.47 326.15 886.47H312.02V872.81H321.51C324.6 872.81 326.56 872.35 327.42 871.42C328.27 870.49 328.69 868.57 328.69 865.63L328.7 865.62ZM328.7 853.81V794.99C328.7 791.9 328.27 789.94 327.43 789.09C326.58 788.24 324.61 787.82 321.52 787.82H313.65V774.16H326.16C332.33 774.16 336.93 775.67 339.94 778.68C342.95 781.69 344.46 786.29 344.46 792.46V853.83H328.71L328.7 853.81Z" fill="white"/>
<path d="M421.32 774.15V787.81H378.02V774.15H421.32ZM405.11 753.54V886.46H389.13V749.83C389.13 743.66 390.64 739.06 393.65 736.05C396.66 733.04 401.25 731.53 407.43 731.53H421.32V746.35H412.29C409.36 746.35 407.43 746.78 406.5 747.62C405.57 748.47 405.11 750.44 405.11 753.53V753.54Z" fill="white"/>
<path d="M488.94 774.15V787.81H446.79V774.15H488.94ZM472.96 755.86V864.47C472.96 867.4 473.42 869.33 474.35 870.26C475.28 871.19 477.21 871.65 480.14 871.65H488.94V886.47H475.28C469.1 886.47 464.51 884.96 461.5 881.95C458.49 878.94 456.98 874.35 456.98 868.17V755.86H472.96Z" fill="white"/>
<path d="M615.38 774.15H630.66L610.74 886.46H586.42L572.99 796.38L559.79 886.46H535.47L515.55 774.15H530.83L547.5 875.35L562.09 774.15H584.09L598.45 875.35L615.35 774.15H615.38Z" fill="white"/>
<path d="M680.22 834.59H664.24V792.44C664.24 786.27 665.75 781.67 668.76 778.66C671.77 775.65 676.36 774.14 682.54 774.14H691.8C695.81 774.14 699.09 775.18 701.64 777.27C704.19 779.36 705.46 783.02 705.46 788.27V802.63H704.53V796.15C704.53 793.06 703.91 790.9 702.68 789.67C701.44 788.44 699.44 787.82 696.66 787.82H687.4C684.47 787.82 682.54 788.25 681.61 789.09C680.68 789.94 680.22 791.91 680.22 794.99V834.59ZM664.24 826.02H680.22V865.62C680.22 868.56 680.68 870.48 681.61 871.41C682.54 872.34 684.47 872.8 687.4 872.8H696.66C699.44 872.8 701.44 872.18 702.68 870.95C703.91 869.72 704.53 867.56 704.53 864.47V858.45H705.46V872.34C705.46 877.59 704.19 881.26 701.64 883.34C699.09 885.42 695.81 886.47 691.8 886.47H682.54C676.36 886.47 671.77 884.96 668.76 881.95C665.75 878.94 664.24 874.35 664.24 868.17V826.02ZM720.51 886.46H704.53V774.15H720.51V886.46Z" fill="white"/>
<path d="M780.48 886.46H764.5V774.15H780.48V886.46ZM802.02 774.15V788.04H795.07C785.34 788.04 780.48 793.83 780.48 805.41V809.81H779.55V792.9C779.55 790.28 780.2 787.5 781.52 784.56C782.83 781.63 784.8 779.16 787.43 777.15C790.05 775.15 793.29 774.14 797.16 774.14H802.02V774.15Z" fill="white"/>
<path d="M852.73 794.99V865.62C852.73 868.56 853.19 870.48 854.12 871.41C855.05 872.34 856.97 872.8 859.91 872.8H865.47V886.46H855.05C848.87 886.46 844.28 884.95 841.27 881.94C838.26 878.93 836.75 874.34 836.75 868.16V792.44C836.75 786.27 838.26 781.67 841.27 778.66C844.28 775.65 848.87 774.14 855.05 774.14H867.09V787.8H859.91C856.97 787.8 855.05 788.23 854.12 789.07C853.19 789.92 852.73 791.89 852.73 794.97V794.99ZM894.64 822.08V835.74H843.69V822.08H894.64ZM878.66 833.43V794.99C878.66 791.9 878.23 789.94 877.39 789.09C876.54 788.24 874.57 787.82 871.48 787.82H863.61V774.16H876.35C882.52 774.16 887.12 775.67 890.13 778.68C893.14 781.69 894.65 786.29 894.65 792.46V833.45H878.67L878.66 833.43ZM877.97 865.62V855.43H893.95V868.17C893.95 874.35 892.45 878.94 889.43 881.95C886.41 884.96 881.82 886.47 875.65 886.47H863.61V872.81H870.79C873.88 872.81 875.85 872.35 876.7 871.42C877.55 870.49 877.97 868.57 877.97 865.63V865.62Z" fill="white"/>
<path d="M183 445.72C231.81 400.85 280.34 357.55 331.28 315.18C357.29 293.95 383.96 273.6 413.22 256.42C538.47 184.7 696.89 173.34 830.64 227.4C853.47 236.85 877.05 248.21 896.89 261.91C857.9 248.27 818.91 238.24 778.58 232.45C668.55 216.56 553.58 231.77 453.76 280.34C417.87 297.7 385.78 319.87 351.99 342.83C297.85 379.54 242.25 418.15 183.01 445.71L183 445.72Z" fill="white"/>
<path d="M861.98 270.75C873.85 274.11 887.19 279.32 891.14 291.01C895.08 302.69 887.48 315.16 878.45 323.57C855.79 344.67 823.35 352.44 792.38 351.93C761.42 351.42 731.13 343.53 700.84 337.14C654.94 327.46 608.33 321.15 561.52 318.24C538.11 316.79 514.65 316.18 491.2 316.44C477.05 316.59 454.39 316.51 420.12 325.82C467.46 295.56 505.99 282.52 522.96 277.11C543.48 270.57 564.37 265.17 585.48 260.9C628.47 252.21 672.42 248.27 716.28 249.18C765.5 250.2 814.61 257.34 861.99 270.76L861.98 270.75Z" fill="white"/>
<path d="M807.3 386.65C819.09 390.27 832.51 395.22 836.46 406.91C840.4 418.59 832.8 431.06 823.77 439.47C801.11 460.57 746.61 466.5 715.65 465.99C684.69 465.48 583.7 440.67 553.4 434.29C507.5 424.61 460.89 418.3 414.08 415.39C390.67 413.94 367.21 413.33 343.76 413.59C329.61 413.74 306.95 413.66 272.68 422.97C320.02 392.71 341.43 368.54 390.26 349.6C475.62 316.49 651.54 338.83 807.31 386.67L807.3 386.65Z" fill="white"/>
</svg>
