<svg width="1533" height="274" viewBox="0 0 1533 274" fill="none" xmlns="http://www.w3.org/2000/svg">
<g clip-path="url(#clip0_32_115)">
<path d="M844.396 130.868C838.698 130.868 834.368 129.384 831.398 126.414C828.428 123.444 826.943 119.114 826.943 113.416V20.1623C826.943 14.4642 828.428 10.134 831.398 7.16423C834.368 4.19451 838.698 2.70966 844.396 2.70966H906.197C910.315 2.70966 913.497 3.79953 915.742 5.97927C917.981 8.15902 919.107 11.3116 919.107 15.4297C919.107 19.5478 917.988 22.9125 915.742 25.1508C913.497 27.3964 910.315 28.5155 906.197 28.5155H858.754V52.8731H902.02C906.263 52.8731 909.474 53.9629 911.654 56.1427C913.833 58.3224 914.923 61.5335 914.923 65.776C914.923 70.0184 913.833 73.0759 911.654 75.3215C909.474 77.5671 906.263 78.6862 902.02 78.6862H858.754V105.041H906.197C910.315 105.041 913.497 106.16 915.742 108.405C917.981 110.651 919.107 113.833 919.107 117.951C919.107 122.069 917.988 125.404 915.742 127.584C913.497 129.764 910.315 130.854 906.197 130.854H844.396V130.868Z" fill="white"/>
<path d="M944.547 132.682C940.787 132.682 937.642 131.775 935.097 129.954C932.551 128.14 930.978 125.682 930.371 122.596C929.764 119.509 930.305 116.02 932.01 112.143L977.272 14.7129C979.452 9.98764 982.115 6.50589 985.267 4.26032C988.42 2.02206 992.114 0.89563 996.356 0.89563C1000.6 0.89563 1004.08 2.01474 1007.17 4.26032C1010.26 6.50589 1012.9 9.98764 1015.08 14.7129L1060.53 112.143C1062.35 116.02 1062.98 119.538 1062.44 122.683C1061.89 125.836 1060.4 128.294 1057.98 130.042C1055.55 131.797 1052.47 132.675 1048.71 132.675C1044.11 132.675 1040.47 131.519 1037.81 129.223C1035.14 126.926 1032.78 123.349 1030.72 118.499L1020.9 95.5975L1033.81 105.048H958.737L971.465 95.5975L961.648 118.499C959.586 123.466 957.406 127.072 955.102 129.318C952.798 131.556 949.287 132.682 944.562 132.682H944.547ZM995.99 37.6148L974.902 87.9684L969.812 79.2421H1022.71L1017.44 87.9684L996.349 37.6148H995.983H995.99Z" fill="white"/>
<path d="M1142.5 133.048C1127.84 133.048 1115.39 130.291 1105.15 124.775C1094.91 119.26 1087.09 111.594 1081.7 101.778C1076.3 91.9621 1073.61 80.5148 1073.61 67.4217C1073.61 57.2398 1075.24 48.0308 1078.51 39.7946C1081.78 31.5583 1086.45 24.5583 1092.51 18.8017C1098.57 13.0451 1105.99 8.56131 1114.78 5.35021C1123.56 2.13911 1133.53 0.529907 1144.68 0.529907C1150.74 0.529907 1156.92 1.13701 1163.22 2.35123C1169.52 3.56545 1175.77 5.74518 1181.95 8.89777C1184.86 10.3534 1186.92 12.3868 1188.13 14.9908C1189.34 17.5948 1189.77 20.3524 1189.4 23.2636C1189.04 26.1748 1187.98 28.7788 1186.22 31.0829C1184.47 33.387 1182.22 34.9304 1179.5 35.7203C1176.77 36.5103 1173.65 36.1153 1170.14 34.5354C1166.5 32.8384 1162.59 31.5364 1158.41 30.6294C1154.23 29.7224 1149.78 29.2689 1145.05 29.2689C1136.8 29.2689 1129.96 30.7245 1124.51 33.6357C1119.05 36.5469 1114.99 40.8478 1112.33 46.5386C1109.66 52.2366 1108.33 59.2001 1108.33 67.4437C1108.33 79.8053 1111.39 89.1387 1117.51 95.4366C1123.62 101.742 1132.63 104.887 1144.5 104.887C1148.13 104.887 1152.07 104.521 1156.31 103.797C1160.55 103.073 1164.91 101.976 1169.4 100.527L1163.22 113.255V82.1679H1150.67C1146.43 82.1679 1143.19 81.1439 1140.94 79.0812C1138.7 77.0185 1137.58 74.1731 1137.58 70.5377C1137.58 66.661 1138.7 63.7205 1140.94 61.7237C1143.18 59.7268 1146.42 58.7247 1150.67 58.7247H1177.39C1181.75 58.7247 1185.03 59.8145 1187.21 61.9943C1189.39 64.174 1190.48 67.451 1190.48 71.8105V112.165C1190.48 115.8 1189.72 118.865 1188.2 121.345C1186.69 123.832 1184.3 125.682 1181.02 126.889C1175.32 128.828 1169.17 130.342 1162.57 131.432C1155.97 132.521 1149.27 133.07 1142.49 133.07L1142.5 133.048Z" fill="white"/>
<path d="M1230.12 130.868C1224.66 130.868 1220.45 129.384 1217.48 126.414C1214.51 123.444 1213.03 119.231 1213.03 113.782V19.4381C1213.03 13.9887 1214.48 9.8048 1217.39 6.8936C1220.29 3.9824 1224.48 2.53412 1229.93 2.53412C1235.39 2.53412 1239.2 3.98971 1242.11 6.8936C1245.02 9.79749 1246.47 13.9814 1246.47 19.4381V103.051H1291C1295.6 103.051 1299.12 104.236 1301.54 106.599C1303.96 108.961 1305.18 112.384 1305.18 116.868C1305.18 121.352 1303.96 124.805 1301.54 127.226C1299.11 129.654 1295.6 130.861 1291 130.861H1230.11L1230.12 130.868Z" fill="white"/>
<path d="M1336.81 130.868C1331.11 130.868 1326.78 129.384 1323.81 126.414C1320.85 123.444 1319.36 119.114 1319.36 113.416V20.1623C1319.36 14.4642 1320.85 10.134 1323.81 7.16423C1326.78 4.19451 1331.11 2.70966 1336.81 2.70966H1398.61C1402.73 2.70966 1405.91 3.79953 1408.16 5.97927C1410.4 8.15902 1411.52 11.3116 1411.52 15.4297C1411.52 19.5478 1410.4 22.9125 1408.16 25.1508C1405.91 27.389 1402.73 28.5155 1398.61 28.5155H1351.17V52.8731H1394.43C1398.67 52.8731 1401.88 53.9629 1404.06 56.1427C1406.24 58.3224 1407.33 61.5335 1407.33 65.776C1407.33 70.0184 1406.24 73.0759 1404.06 75.3215C1401.88 77.5671 1398.67 78.6862 1394.43 78.6862H1351.17V105.041H1398.61C1402.73 105.041 1405.91 106.16 1408.16 108.405C1410.4 110.651 1411.52 113.833 1411.52 117.951C1411.52 122.069 1410.4 125.404 1408.16 127.584C1405.91 129.764 1402.73 130.854 1398.61 130.854H1336.81V130.868Z" fill="white"/>
<path d="M1478.78 133.048C1473.81 133.048 1468.72 132.682 1463.51 131.958C1458.29 131.234 1453.3 130.203 1448.51 128.872C1443.72 127.54 1439.45 125.96 1435.7 124.146C1432.43 122.574 1430.13 120.452 1428.79 117.783C1427.46 115.12 1426.98 112.363 1427.34 109.51C1427.7 106.664 1428.73 104.119 1430.43 101.873C1432.12 99.6352 1434.36 98.121 1437.15 97.3311C1439.93 96.5411 1443.09 96.9361 1446.6 98.516C1451.2 100.696 1456.41 102.422 1462.23 103.695C1468.04 104.967 1473.56 105.604 1478.77 105.604C1486.65 105.604 1492.19 104.485 1495.4 102.239C1498.61 100.001 1500.22 97.3603 1500.22 94.3321C1500.22 91.5452 1499.1 89.307 1496.86 87.61C1494.61 85.913 1490.65 84.4574 1484.95 83.2505L1463.68 78.7082C1451.92 76.1627 1443.23 71.891 1437.59 65.893C1431.96 59.8951 1429.14 52.1123 1429.14 42.5376C1429.14 36.1154 1430.47 30.3588 1433.14 25.2678C1435.8 20.1769 1439.5 15.8174 1444.23 12.1821C1448.95 8.54671 1454.65 5.70134 1461.32 3.63863C1467.98 1.57592 1475.32 0.55188 1483.31 0.55188C1489.61 0.55188 1496 1.27601 1502.49 2.73161C1508.97 4.18721 1514.58 6.30845 1519.31 9.0953C1522.09 10.5509 1524.13 12.577 1525.39 15.1883C1526.66 17.7923 1527.15 20.4329 1526.85 23.0954C1526.54 25.7652 1525.57 28.1278 1523.94 30.1832C1522.3 32.2459 1520.12 33.6064 1517.39 34.2721C1514.66 34.9377 1511.42 34.4842 1507.66 32.9116C1504.03 31.3389 1500.02 30.1247 1495.66 29.2762C1491.31 28.4277 1487.06 28.0035 1482.94 28.0035C1478.45 28.0035 1474.64 28.5521 1471.48 29.642C1468.33 30.7318 1465.94 32.2459 1464.3 34.1843C1462.66 36.1227 1461.85 38.3683 1461.85 40.9064C1461.85 43.4446 1462.94 45.6023 1465.12 47.3578C1467.3 49.1133 1471.18 50.5397 1476.76 51.6296L1497.84 56.1719C1509.6 58.7174 1518.38 62.9306 1524.2 68.8042C1530.01 74.6851 1532.93 82.285 1532.93 91.6184C1532.93 97.9235 1531.65 103.585 1529.11 108.617C1526.56 113.65 1522.9 118.009 1518.11 121.703C1513.32 125.397 1507.63 128.221 1501.03 130.159C1494.42 132.097 1487 133.07 1478.76 133.07L1478.78 133.048Z" fill="white"/>
<path d="M950.684 257.769V228.972C950.684 226.711 950.37 225.278 949.755 224.649C949.134 224.027 947.693 223.72 945.433 223.72H933.912C929.392 223.72 926.034 222.615 923.833 220.413C921.631 218.212 920.526 214.854 920.526 210.334V181.032C920.526 176.519 921.631 173.154 923.833 170.952C926.034 168.751 929.392 167.646 933.912 167.646H948.819C953.332 167.646 956.697 168.751 958.899 170.952C961.1 173.154 962.205 176.519 962.205 181.032V197.292H950.516V182.897C950.516 180.637 950.202 179.203 949.587 178.581C948.965 177.96 947.524 177.652 945.264 177.652H937.474C935.331 177.652 933.919 177.967 933.239 178.581C932.559 179.203 932.222 180.644 932.222 182.897V208.476C932.222 210.627 932.559 212.031 933.239 212.711C933.919 213.391 935.324 213.728 937.474 213.728H948.995C953.508 213.728 956.873 214.832 959.074 217.034C961.276 219.236 962.38 222.593 962.38 227.114V259.634C962.38 264.155 961.283 267.512 959.074 269.714C956.873 271.915 953.508 273.02 948.995 273.02H934.256C929.735 273.02 926.378 271.915 924.176 269.714C921.975 267.512 920.87 264.155 920.87 259.634V243.374H932.559V257.769C932.559 259.92 932.895 261.324 933.576 262.004C934.256 262.684 935.668 263.021 937.811 263.021H945.433C947.693 263.021 949.134 262.684 949.755 262.004C950.377 261.324 950.684 259.92 950.684 257.769Z" fill="white"/>
<path d="M1004.38 206.106V249.299H992.86V204.241C992.86 199.728 993.965 196.363 996.167 194.161C998.368 191.96 1001.73 190.855 1006.25 190.855H1015.4V200.847H1009.64C1007.5 200.847 1006.09 201.161 1005.4 201.776C1004.72 202.398 1004.39 203.839 1004.39 206.091L1004.38 206.106ZM1004.38 239.307V257.769C1004.38 259.919 1004.72 261.324 1005.4 262.004C1006.08 262.684 1007.49 263.021 1009.63 263.021H1014.88V273.013H1006.25C1001.73 273.013 998.368 271.908 996.167 269.706C993.965 267.505 992.86 264.147 992.86 259.627V239.3H1004.38V239.307ZM1025.39 257.769V240.66H1036.91V259.634C1036.91 264.155 1035.81 267.512 1033.6 269.714C1031.4 271.915 1028.04 273.02 1023.52 273.02H1013.19V263.028H1020.13C1022.39 263.028 1023.82 262.692 1024.45 262.011C1025.07 261.331 1025.38 259.927 1025.38 257.776L1025.39 257.769ZM1025.39 249.13V206.106C1025.39 203.846 1025.07 202.412 1024.46 201.791C1023.84 201.169 1022.4 200.862 1020.14 200.862H1014.38V190.87H1023.53C1028.04 190.87 1031.41 191.974 1033.61 194.176C1035.81 196.378 1036.92 199.742 1036.92 204.256V249.145H1025.4L1025.39 249.13Z" fill="white"/>
<path d="M1093.14 190.863V200.854H1061.46V190.863H1093.14ZM1081.28 175.787V273.013H1069.59V173.074C1069.59 168.56 1070.69 165.196 1072.9 162.994C1075.1 160.792 1078.46 159.688 1082.98 159.688H1093.14V170.528H1086.53C1084.39 170.528 1082.98 170.843 1082.3 171.457C1081.62 172.079 1081.28 173.52 1081.28 175.78V175.787Z" fill="white"/>
<path d="M1142.6 190.863V200.854H1111.77V190.863H1142.6ZM1130.91 177.484V256.928C1130.91 259.071 1131.24 260.483 1131.92 261.163C1132.6 261.843 1134.02 262.18 1136.16 262.18H1142.6V273.02H1132.6C1128.08 273.02 1124.73 271.915 1122.53 269.714C1120.32 267.512 1119.22 264.155 1119.22 259.634V177.484H1130.91Z" fill="white"/>
<path d="M1235.08 190.863H1246.26L1231.69 273.013H1213.9L1204.08 207.123L1194.42 273.013H1176.63L1162.06 190.863H1173.24L1185.43 264.886L1196.1 190.863H1212.19L1222.7 264.886L1235.06 190.863H1235.08Z" fill="white"/>
<path d="M1282.51 235.072H1270.82V204.241C1270.82 199.728 1271.93 196.363 1274.13 194.161C1276.33 191.96 1279.69 190.855 1284.21 190.855H1290.98C1293.91 190.855 1296.31 191.616 1298.18 193.145C1300.04 194.673 1300.97 197.351 1300.97 201.191V211.694H1300.29V206.955C1300.29 204.694 1299.84 203.114 1298.94 202.215C1298.03 201.315 1296.57 200.862 1294.54 200.862H1287.76C1285.62 200.862 1284.21 201.176 1283.53 201.791C1282.85 202.412 1282.51 203.853 1282.51 206.106V235.072ZM1270.82 228.803H1282.51V257.769C1282.51 259.919 1282.85 261.324 1283.53 262.004C1284.21 262.684 1285.62 263.021 1287.76 263.021H1294.54C1296.57 263.021 1298.03 262.567 1298.94 261.668C1299.84 260.768 1300.29 259.188 1300.29 256.928V252.524H1300.97V262.684C1300.97 266.525 1300.04 269.209 1298.18 270.73C1296.31 272.252 1293.91 273.02 1290.98 273.02H1284.21C1279.69 273.02 1276.33 271.915 1274.13 269.714C1271.93 267.512 1270.82 264.155 1270.82 259.634V228.803ZM1311.98 273.013H1300.29V190.863H1311.98V273.013Z" fill="white"/>
<path d="M1355.85 273.013H1344.16V190.863H1355.85V273.013ZM1371.6 190.863V201.022H1366.52C1359.4 201.022 1355.85 205.258 1355.85 213.728V216.946H1355.17V204.577C1355.17 202.661 1355.64 200.628 1356.61 198.477C1357.56 196.334 1359.01 194.527 1360.93 193.057C1362.85 191.594 1365.22 190.855 1368.05 190.855H1371.6V190.863Z" fill="white"/>
<path d="M1408.69 206.106V257.769C1408.69 259.919 1409.03 261.324 1409.71 262.004C1410.39 262.684 1411.8 263.021 1413.95 263.021H1418.01V273.013H1410.39C1405.87 273.013 1402.51 271.908 1400.31 269.706C1398.11 267.505 1397.01 264.147 1397.01 259.627V204.241C1397.01 199.728 1398.11 196.363 1400.31 194.161C1402.51 191.96 1405.87 190.855 1410.39 190.855H1419.2V200.847H1413.95C1411.8 200.847 1410.39 201.161 1409.71 201.776C1409.03 202.398 1408.69 203.839 1408.69 206.091V206.106ZM1439.35 225.921V235.913H1402.08V225.921H1439.35ZM1427.66 234.223V206.106C1427.66 203.846 1427.35 202.412 1426.73 201.791C1426.11 201.169 1424.67 200.862 1422.41 200.862H1416.65V190.87H1425.97C1430.48 190.87 1433.85 191.974 1436.05 194.176C1438.25 196.378 1439.36 199.742 1439.36 204.256V234.238H1427.67L1427.66 234.223ZM1427.16 257.769V250.315H1438.85V259.634C1438.85 264.155 1437.75 267.512 1435.54 269.714C1433.33 271.915 1429.97 273.02 1425.46 273.02H1416.65V263.028H1421.9C1424.16 263.028 1425.61 262.692 1426.23 262.011C1426.85 261.331 1427.16 259.927 1427.16 257.776V257.769Z" fill="white"/>
<path d="M0 252.72C48.81 207.85 97.34 164.55 148.28 122.18C174.29 100.95 200.96 80.6001 230.22 63.4201C355.47 -8.29988 513.89 -19.6599 647.64 34.4001C670.47 43.8501 694.05 55.2101 713.89 68.9101C674.9 55.2701 635.91 45.2401 595.58 39.4501C485.55 23.5601 370.58 38.7701 270.76 87.3401C234.87 104.7 202.78 126.87 168.99 149.83C114.85 186.54 59.25 225.15 0.00999451 252.71L0 252.72Z" fill="white"/>
<path d="M678.98 77.7501C690.85 81.1101 704.19 86.3201 708.14 98.0101C712.08 109.69 704.48 122.16 695.45 130.57C672.79 151.67 640.35 159.44 609.38 158.93C578.42 158.42 548.13 150.53 517.84 144.14C471.94 134.46 425.33 128.15 378.52 125.24C355.11 123.79 331.65 123.18 308.2 123.44C294.05 123.59 271.39 123.51 237.12 132.82C284.46 102.56 322.99 89.5201 339.96 84.1101C360.48 77.5701 381.37 72.1701 402.48 67.9001C445.47 59.2101 489.42 55.2701 533.28 56.1801C582.5 57.2001 631.61 64.3401 678.99 77.7601L678.98 77.7501Z" fill="white"/>
<path d="M624.3 193.65C636.09 197.27 649.51 202.22 653.46 213.91C657.4 225.59 649.8 238.06 640.77 246.47C618.11 267.57 563.61 273.5 532.65 272.99C501.69 272.48 400.7 247.67 370.4 241.29C324.5 231.61 277.89 225.3 231.08 222.39C207.67 220.94 184.21 220.33 160.76 220.59C146.61 220.74 123.95 220.66 89.6797 229.97C137.02 199.71 158.43 175.54 207.26 156.6C292.62 123.49 468.54 145.83 624.31 193.67L624.3 193.65Z" fill="white"/>
</g>
<defs>
<clipPath id="clip0_32_115">
<rect width="1533" height="274" fill="white"/>
</clipPath>
</defs>
</svg>
