<svg width="126" height="72" viewBox="0 0 126 72" fill="none" xmlns="http://www.w3.org/2000/svg">
<path d="M25.4699 36.7366H44.5953L64.1144 15.9176C64.1144 15.9176 65.4432 14.3522 65.4432 13.3732C65.4432 12.1946 64.018 11.0352 64.018 11.0352L55.592 1.99187C55.592 1.99187 53.9916 0.000176052 52.8337 0C51.3533 -0.000225035 49.682 1.99187 49.682 1.99187L23.7325 29.727C22.5355 31.0893 21.6227 31.867 21.2215 32.7875C20.066 35.439 22.0914 36.7366 25.4699 36.7366Z" fill="white"/>
<path d="M56.264 36.7442H63.285L82.5916 16.102C82.5916 16.102 83.7646 14.9203 83.7646 13.8352C83.7646 12.5889 82.3939 11.2196 82.3939 11.2196L80.1925 8.88469C80.1925 8.88469 78.5921 6.893 77.4342 6.89282C75.9538 6.8926 74.5936 8.71189 74.5936 8.71189L54.3906 30.2748C53.1936 31.637 52.1805 32.4653 51.7794 33.3858C50.6238 36.0373 52.8856 36.7442 56.264 36.7442Z" fill="white"/>
<path d="M85.4844 16.6513C86.0673 16.028 87.0558 16.028 87.6387 16.6513L103.96 34.1034C104.841 35.0457 104.173 36.5855 102.883 36.5855H70.2401C68.9499 36.5855 68.2817 35.0457 69.163 34.1034L85.4844 16.6513Z" fill="white"/>
<circle cx="24.5912" cy="42.1683" r="2.85874" fill="white"/>
<circle cx="66.6724" cy="42.128" r="2.70342" fill="white"/>
<circle cx="101.394" cy="42.1726" r="1.4416" fill="white"/>
<rect x="27.125" y="41.4363" width="38.9883" height="1.23088" fill="white"/>
<rect x="66.7354" y="41.4363" width="34.4037" height="1.23088" fill="white"/>
<path d="M4.24382 50.3379C4.45029 50.3361 4.65491 50.3343 4.86691 50.3306C6.20158 50.3361 7.05326 50.4393 8.08929 51.3371C8.53725 52.1445 8.47088 52.8764 8.4377 53.7834C8.43401 53.9548 8.43033 54.1263 8.42848 54.3032C8.41927 54.7254 8.40636 55.1475 8.39161 55.5697C7.53993 55.5697 6.68825 55.5697 5.81076 55.5697C5.81076 54.5963 5.81076 53.6211 5.81076 52.6201C5.35912 52.6146 4.90562 52.6109 4.43923 52.6072C4.29728 52.6054 4.15349 52.6036 4.00786 52.6017C3.68709 52.6017 3.36633 52.6091 3.04557 52.6201C2.80039 52.8229 2.80039 52.8229 2.8391 53.3299C2.8391 53.5658 2.8391 53.8 2.84094 54.0433C2.84094 54.1723 2.84094 54.3014 2.84094 54.436C2.84094 54.8655 2.84094 55.295 2.84279 55.7245C2.84279 56.0232 2.84463 56.32 2.84463 56.6168C2.84463 57.4003 2.84647 58.1856 2.84832 58.969C2.85016 59.7691 2.852 60.5673 2.852 61.3674C2.85385 62.938 2.85754 64.5068 2.86122 66.0774C3.77374 66.0166 4.68625 65.9558 5.62642 65.8931C5.68725 64.2506 5.74809 62.608 5.81076 60.9157C5.38492 60.9157 4.95908 60.9157 4.52034 60.9157C4.52034 60.3056 4.52034 59.6972 4.52034 59.0723C5.79786 59.0723 7.07538 59.0723 8.39161 59.0723C8.40821 60.0972 8.42295 61.124 8.43217 62.1509C8.43586 62.4993 8.44139 62.8477 8.44692 63.1979C8.45613 63.7012 8.45982 64.2026 8.46351 64.7059C8.4672 64.8608 8.47088 65.0156 8.47457 65.1741C8.47641 66.2397 8.30128 66.8775 7.65423 67.7366C6.64585 68.3394 5.39414 68.1716 4.25488 68.1735C4.03182 68.1771 3.80692 68.1827 3.57649 68.1864C1.7404 68.1937 1.7404 68.1937 1.08044 67.8011C0.201104 66.9162 0.0259748 66.0922 0.0222879 64.87C0.0204444 64.7354 0.0186009 64.6008 0.0186009 64.4607C0.014914 64.0183 0.0149139 63.5759 0.0167574 63.1334C0.0149139 62.8237 0.0149138 62.514 0.0130704 62.2043C0.0112269 61.5573 0.0112269 60.9102 0.0130704 60.2632C0.0167573 59.4354 0.0130706 58.6077 0.00754019 57.78C0.00385327 57.1403 0.00385318 56.5025 0.00385318 55.8628C0.00385318 55.5586 0.00385314 55.2526 0.00200968 54.9484C-0.00167725 54.5208 0.000166253 54.0931 0.00385318 53.6654C0.00385318 53.4221 0.00385318 53.1806 0.00385318 52.9299C0.136583 51.9473 0.486841 51.2283 1.28875 50.6071C2.27131 50.3048 3.2207 50.3269 4.24382 50.3379Z" fill="white"/>
<path d="M75.4937 50.407C76.3454 50.407 77.1971 50.407 78.0745 50.407C78.2515 51.5038 78.4285 52.6025 78.6055 53.6994C78.6663 54.0718 78.7253 54.4442 78.7861 54.8165C79.0995 56.7522 79.3982 58.6841 79.6157 60.6327C79.7171 61.5397 79.8553 62.4282 80.0323 63.3223C80.071 63.5122 80.071 63.5122 80.1079 63.7057C80.1669 64.0044 80.2259 64.303 80.2867 64.6017C80.7181 63.0384 80.9817 61.4973 81.1734 59.8898C81.4518 57.6776 81.7947 55.4839 82.1763 53.2865C82.2021 53.1427 82.226 52.997 82.2518 52.8496C82.3956 52.0348 82.5394 51.2199 82.6832 50.407C83.5349 50.407 84.3866 50.407 85.2641 50.407C85.1461 51.5665 84.982 52.7076 84.7774 53.8561C84.7479 54.0257 84.7184 54.1935 84.6889 54.3667C84.593 54.9143 84.4972 55.4599 84.3995 56.0074C84.2667 56.7688 84.1322 57.5301 83.9994 58.2915C83.9663 58.4832 83.9312 58.6731 83.8981 58.8685C83.6861 60.0778 83.4777 61.2889 83.275 62.5001C83.2492 62.6494 83.2233 62.7987 83.1975 62.9536C83.0556 63.7961 83.0556 63.7961 82.9155 64.6404C82.8528 65.0201 82.7883 65.398 82.7256 65.7778C82.6906 65.9879 82.6556 66.1981 82.6187 66.4156C82.4989 66.9982 82.4989 66.9982 82.1302 68.1042C80.9135 68.1042 79.6968 68.1042 78.4432 68.1042C78.4008 67.8443 78.3584 67.5844 78.316 67.3171C77.8349 64.3878 77.3058 61.4696 76.762 58.5532C76.6385 57.8933 76.515 57.2333 76.3933 56.5752C76.3177 56.1697 76.2421 55.7641 76.1666 55.3585C76.0984 54.9917 76.0301 54.6248 75.9619 54.258C75.8956 53.8985 75.8255 53.5409 75.7555 53.1814C75.7204 53.0081 75.6873 52.833 75.6522 52.6523C75.6209 52.4993 75.5914 52.3463 75.5601 52.1896C75.4808 51.5997 75.4937 51.0006 75.4937 50.407Z" fill="white"/>
<path d="M116.05 54.2783C116.841 54.2783 117.632 54.2783 118.447 54.2783C118.789 55.3752 118.985 56.4757 119.173 57.6076C119.411 59.0216 119.672 60.4207 119.984 61.8181C120.15 62.5997 120.275 63.3832 120.395 64.1722C120.454 64.6036 120.454 64.6036 120.659 64.9704C120.679 64.8469 120.699 64.7234 120.72 64.598C120.932 63.3168 121.145 62.0375 121.357 60.7581C121.437 60.2806 121.516 59.8013 121.595 59.3239C121.709 58.6381 121.822 57.9523 121.936 57.2647C121.973 57.0509 122.008 56.837 122.043 56.6177C122.076 56.4186 122.11 56.2176 122.145 56.013C122.174 55.8379 122.204 55.6628 122.233 55.4821C122.307 55.0784 122.403 54.6765 122.502 54.2783C123.354 54.2783 124.206 54.2783 125.083 54.2783C124.95 55.8195 124.635 57.3163 124.324 58.8298C123.947 60.6567 123.586 62.4836 123.262 64.3197C123.234 64.4782 123.206 64.6349 123.177 64.799C123.011 65.7281 123.011 65.7281 122.851 66.6572C122.185 70.5801 122.185 70.5801 120.843 71.6069C120.025 71.9369 119.348 72.0161 118.469 71.9977C118.257 71.9959 118.045 71.9922 117.825 71.9885C117.665 71.9848 117.506 71.9793 117.34 71.9756C117.34 71.3064 117.34 70.6372 117.34 69.9478C118.435 69.7653 118.435 69.7653 119.553 69.5791C119.735 69.0316 119.918 68.4841 120.106 67.92C119.68 67.92 119.254 67.92 118.815 67.92C118.142 65.1087 117.521 62.2882 116.924 59.4603C116.848 59.1008 116.773 58.7432 116.695 58.3856C116.588 57.8749 116.481 57.3661 116.374 56.8555C116.341 56.7025 116.308 56.5495 116.275 56.3909C116.245 56.2471 116.216 56.1033 116.185 55.9559C116.159 55.8324 116.133 55.707 116.105 55.5798C116.05 55.2001 116.05 55.2001 116.05 54.2783Z" fill="white"/>
<path d="M10.7882 54.2783C11.6399 54.2783 12.4916 54.2783 13.3691 54.2783C13.4299 58.05 13.4908 61.8218 13.5534 65.7078C14.2834 65.7078 15.0135 65.7078 15.7656 65.7078C16.0919 65.3815 15.9813 64.9114 15.9886 64.4708C15.9923 64.2459 15.996 64.0192 15.9997 63.7888C16.0016 63.5399 16.0052 63.2929 16.0089 63.0458C16.0126 62.7933 16.0163 62.5426 16.02 62.29C16.0292 61.6264 16.0384 60.9627 16.0476 60.2972C16.0569 59.6207 16.0679 58.9441 16.0771 58.2657C16.0974 56.9366 16.1158 55.6075 16.1343 54.2783C16.986 54.2783 17.8376 54.2783 18.7151 54.2783C18.7151 58.8409 18.7151 63.4035 18.7151 68.1043C17.8635 68.1043 17.0118 68.1043 16.1343 68.1043C16.0734 67.861 16.0126 67.6176 15.9499 67.3669C15.7619 67.5457 15.7619 67.5457 15.5683 67.7301C14.6208 68.3864 13.559 68.2315 12.4474 68.1043C11.7432 67.8757 11.4205 67.5015 11.0426 66.8636C10.7624 66.2 10.7219 65.7502 10.7256 65.0349C10.7256 64.7953 10.7256 64.5556 10.7256 64.3086C10.7292 64.0505 10.7311 63.7906 10.7348 63.5325C10.7348 63.2652 10.7366 62.9979 10.7366 62.7306C10.7385 62.0301 10.744 61.3296 10.7495 60.6309C10.7551 59.9156 10.7587 59.1985 10.7606 58.4833C10.768 57.0822 10.7772 55.6794 10.7882 54.2783Z" fill="white"/>
<path d="M66.3456 54.2206C66.5742 54.217 66.5742 54.217 66.8065 54.2114C67.9439 54.2114 68.8435 54.3773 69.756 55.1073C70.3902 55.9535 70.1579 57.1573 70.1468 58.1491C69.356 58.1491 68.567 58.1491 67.7503 58.1491C67.66 57.2365 67.66 57.2366 67.566 56.3056C66.8986 56.3664 66.2295 56.4273 65.5382 56.4899C65.4792 57.7066 65.4165 58.9233 65.3538 60.1769C66.4581 60.2008 66.4581 60.2008 67.5604 60.2156C68.6739 60.2561 69.1919 60.4718 69.9625 61.283C70.3717 62.0996 70.1984 63.1983 70.2058 64.0942C70.2113 64.321 70.2169 64.5477 70.2224 64.7818C70.2353 66.653 70.2353 66.653 69.8445 67.3185C68.8785 68.2476 67.7264 68.1664 66.4599 68.1609C66.2995 68.1646 66.1373 68.1683 65.9714 68.1701C65.0128 68.172 64.3362 68.0927 63.5104 67.5507C62.7435 66.5534 62.9186 65.4344 62.9573 64.2325C63.75 64.2325 64.539 64.2325 65.3538 64.2325C65.4147 64.8408 65.4773 65.4492 65.5382 66.076C66.5429 65.9856 66.5429 65.9856 67.566 65.8916C67.566 64.7358 67.566 63.5799 67.566 62.389C66.5779 62.3503 66.5779 62.3503 65.5879 62.3171C64.7584 62.2784 64.1722 62.1992 63.5104 61.6516C62.7398 60.5843 62.8707 59.5243 62.878 58.2541C62.8744 58.0292 62.8707 57.8062 62.867 57.5739C62.867 55.7415 62.867 55.7415 63.2744 55.0668C64.1832 54.1617 65.1289 54.2151 66.3456 54.2206Z" fill="white"/>
<path d="M101.855 49.3008C102.707 49.3008 103.559 49.3008 104.436 49.3008C104.436 55.5059 104.436 61.711 104.436 68.1041C103.584 68.1041 102.733 68.1041 101.855 68.1041C101.855 61.899 101.855 55.6939 101.855 49.3008Z" fill="white"/>
<path d="M96.8779 49.3008C97.6688 49.3008 98.4596 49.3008 99.2744 49.3008C99.2744 55.445 99.2744 61.5893 99.2744 67.9198C98.4836 67.9198 97.6927 67.9198 96.8779 67.9198C96.8779 61.7755 96.8779 55.6312 96.8779 49.3008Z" fill="white"/>
<path d="M31.2507 54.2782C32.1024 54.2782 32.9541 54.2782 33.8316 54.2782C33.8924 54.5824 33.9533 54.8865 34.0159 55.1999C34.1597 55.0819 34.3054 54.964 34.4547 54.8423C35.2123 54.2468 35.6363 54.2597 36.5968 54.2782C36.5968 55.0082 36.5968 55.7382 36.5968 56.4903C35.8059 56.612 35.0151 56.7337 34.2003 56.859C34.0399 57.5024 33.9883 57.9891 33.9772 58.6453C33.9735 58.8555 33.9698 59.0657 33.9662 59.2813C33.9625 59.6205 33.9625 59.6205 33.9569 59.9671C33.9533 60.1994 33.9496 60.4317 33.9459 60.6713C33.9367 61.287 33.9274 61.9028 33.9182 62.5185C33.909 63.1471 33.8979 63.7757 33.8887 64.4043C33.8685 65.6376 33.85 66.8709 33.8316 68.1042C32.9799 68.1042 32.1282 68.1042 31.2507 68.1042C31.2507 63.5416 31.2507 58.979 31.2507 54.2782Z" fill="white"/>
<path d="M37.8872 54.2783C38.7389 54.2783 39.5906 54.2783 40.4681 54.2783C40.4681 58.8409 40.4681 63.4035 40.4681 68.1043C39.6164 68.1043 38.7647 68.1043 37.8872 68.1043C37.8872 63.5417 37.8872 58.9792 37.8872 54.2783Z" fill="white"/>
<path fill-rule="evenodd" clip-rule="evenodd" d="M45.4454 49.3008H42.8645V68.1041H45.4454L45.6297 67.3667C45.7331 67.5727 45.7919 67.6898 45.8801 67.7773C45.9963 67.8926 46.1636 67.9563 46.5514 68.1041C46.5875 68.1079 46.6238 68.1117 46.6603 68.1155C47.683 68.223 48.9101 68.3519 49.8125 67.8055C50.7711 66.8192 50.8559 65.927 50.8596 64.6034C50.8559 64.3822 50.8541 64.1684 50.8522 63.9546L50.8522 63.9545C50.8513 63.7261 50.8509 63.4982 50.8504 63.2706C50.8499 63.0424 50.8495 62.8145 50.8485 62.5866C50.843 61.8695 50.8375 61.1524 50.8356 60.4353C50.8356 59.9652 50.8338 59.4951 50.832 59.0269C50.831 58.9133 50.8306 58.8016 50.8301 58.6905C50.8297 58.578 50.8292 58.4663 50.8283 58.354C50.8283 58.2427 50.8278 58.1328 50.8273 58.0236C50.8269 57.9158 50.8264 57.8086 50.8264 57.7014L50.8209 57.0968C50.8135 56.1603 50.6974 55.5409 50.054 54.8312C49.0364 54.0809 47.7626 54.1233 46.5514 54.2781L45.6297 54.8312L45.4454 49.3008ZM46.2623 56.2509C46.1457 56.2588 46.0298 56.2753 45.814 56.306C45.5866 56.6471 45.4995 56.7778 45.4548 56.9217C45.4271 57.0112 45.4157 57.1058 45.3974 57.2591C45.3964 57.3794 45.396 57.4389 45.3957 57.4983C45.3955 57.5564 45.3955 57.6144 45.3955 57.7292L45.39 58.262V58.8353L45.39 58.8354C45.3881 59.2354 45.3863 59.6354 45.3863 60.0354C45.3863 60.1614 45.3864 60.2875 45.3864 60.4137C45.3867 60.9187 45.387 61.4246 45.3826 61.9305C45.3808 62.3415 45.3789 62.7545 45.3789 63.1656V63.7555C45.3771 63.903 45.3761 63.9758 45.3754 64.0486C45.3748 64.1196 45.3743 64.1905 45.3734 64.3306C45.3743 64.4203 45.3748 64.5085 45.3752 64.5961C45.3757 64.685 45.3761 64.7733 45.3771 64.8616C45.3771 65.1206 45.3771 65.2369 45.3885 65.3521C45.3978 65.4459 45.4147 65.5389 45.4453 65.7077C45.7869 65.9354 45.9175 66.0225 46.0613 66.0675C46.1502 66.0954 46.2443 66.1071 46.3965 66.1262L46.8279 66.1225C47.486 66.1262 47.6353 66.0912 48.2105 65.7077C48.2344 65.5768 48.2566 65.4496 48.2787 65.3224V64.8431C48.2796 64.7508 48.2801 64.6602 48.2805 64.5703C48.281 64.479 48.2814 64.3885 48.2824 64.2975L48.2768 63.7094V62.4816C48.2761 62.3518 48.2753 62.2219 48.2745 62.0922C48.2712 61.5755 48.268 61.0595 48.2695 60.5423C48.2695 60.1202 48.2695 59.698 48.2676 59.2777C48.2676 59.0712 48.2676 58.8721 48.2658 58.6731V58.085L48.2603 57.5393C48.2592 57.2746 48.2588 57.1561 48.2505 57.0381C48.2438 56.9425 48.2319 56.8472 48.2105 56.6747C48.0174 56.4817 47.9255 56.3897 47.8147 56.338C47.7139 56.2909 47.5976 56.2771 47.3754 56.2507C47.2816 56.2507 47.1892 56.2503 47.0975 56.2498C47.0072 56.2494 46.9175 56.2489 46.8279 56.2489C46.5337 56.2439 46.3976 56.2417 46.2623 56.2509Z" fill="white"/>
<path fill-rule="evenodd" clip-rule="evenodd" d="M57.8323 54.8719C57.749 54.7981 57.6572 54.7339 57.392 54.5482C56.0776 53.8625 54.4977 54.1058 53.3732 55.0165C52.7575 55.8903 52.7575 55.8903 52.752 57.778C52.7538 57.9992 52.7556 58.213 52.7593 58.4287C52.7593 58.6562 52.7598 58.8836 52.7602 59.1113C52.7607 59.3394 52.7612 59.5677 52.7612 59.7966C52.7626 59.9758 52.7641 60.1551 52.7655 60.3344C52.77 60.8722 52.7745 61.4101 52.7759 61.9479C52.7759 62.1829 52.7764 62.4175 52.7768 62.6521C52.7773 62.8867 52.7778 63.1213 52.7778 63.3563L52.7779 63.3778C52.7797 63.5987 52.7814 63.813 52.7814 64.0273C52.7824 64.1379 52.7828 64.2462 52.7833 64.3536C52.7837 64.4628 52.7842 64.5711 52.7851 64.6799L52.7888 65.2846C52.7944 66.0164 52.8404 66.54 53.222 67.1833C53.8027 67.823 54.3392 68.0793 55.2074 68.1438C55.3289 68.145 55.4507 68.1485 55.5724 68.1519C56.3542 68.174 57.1292 68.196 57.7385 67.6313C57.7502 67.6185 57.7619 67.6058 57.7735 67.5932C57.8439 67.5165 57.9122 67.4421 57.9819 67.3677L58.1662 68.1051H60.7471V54.2791H58.1662L57.9819 55.0165C57.9181 54.9527 57.8764 54.911 57.8323 54.8719ZM56.8803 56.2733C56.8167 56.2729 56.7536 56.2724 56.6904 56.2715C56.0655 56.2586 55.9586 56.3028 55.4 56.6752C55.3811 56.7781 55.3634 56.8788 55.346 56.9781C55.3412 57.005 55.3365 57.0319 55.3318 57.0587V57.5398C55.3309 57.6313 55.3304 57.7218 55.33 57.8117C55.3295 57.903 55.329 57.9935 55.3281 58.0836L55.3336 58.6735V59.8994C55.3344 60.0288 55.3352 60.1583 55.336 60.2877C55.3392 60.8053 55.3425 61.323 55.341 61.8406C55.341 62.2628 55.341 62.6831 55.3428 63.1052C55.3428 63.3098 55.3428 63.5089 55.3447 63.708V64.2979L55.3502 64.8418C55.3512 65.1079 55.3517 65.2269 55.36 65.3452C55.3667 65.4408 55.3786 65.5361 55.4 65.7082C55.7687 66.0769 55.7687 66.0769 56.2351 66.1248C56.3289 66.1248 56.4213 66.1243 56.513 66.1239C56.6033 66.1234 56.6929 66.123 56.7826 66.123C57.0775 66.124 57.2135 66.1244 57.3492 66.1171C57.4654 66.1109 57.5813 66.099 57.7965 66.0769C58.0069 65.8665 58.0972 65.7762 58.1446 65.6672C58.1802 65.5851 58.1915 65.4925 58.2113 65.3303C58.2113 65.2494 58.2108 65.1699 58.2103 65.0911C58.2099 65.0137 58.2094 64.9369 58.2094 64.8602C58.2113 64.6777 58.2113 64.5026 58.2113 64.3256C58.2104 64.2284 58.2099 64.1325 58.2094 64.0371C58.209 63.9408 58.2085 63.8449 58.2076 63.7486V63.7483C58.2076 63.3483 58.2076 62.9484 58.2057 62.5485C58.2051 62.3368 58.2043 62.1251 58.2035 61.9135C58.2018 61.4912 58.2002 61.0691 58.2002 60.6479C58.2002 60.4414 58.1998 60.2349 58.1993 60.0285C58.1988 59.822 58.1984 59.6155 58.1984 59.4091C58.1965 59.2081 58.1965 59.0127 58.1965 58.8173C58.1965 58.6219 58.1965 58.4302 58.1947 58.2403C58.1938 58.1043 58.1933 58.0371 58.1931 57.9698C58.1928 57.9039 58.1928 57.838 58.1928 57.7076C58.1926 57.6769 58.1924 57.6471 58.1923 57.6181C58.1899 57.1782 58.1883 56.9059 57.9808 56.4909C57.6394 56.3771 57.5088 56.3335 57.3746 56.3095C57.2915 56.2946 57.207 56.2872 57.0702 56.2752C57.0061 56.2743 56.943 56.2738 56.8803 56.2733Z" fill="white"/>
<path fill-rule="evenodd" clip-rule="evenodd" d="M91.4794 54.796C91.3434 54.6392 91.1413 54.5397 90.6101 54.2781C89.5317 54.1288 88.538 54.1269 87.5463 54.5897C86.9656 55.1538 86.5969 55.6331 86.4844 56.4479C86.4844 56.5435 86.484 56.6382 86.4835 56.7322C86.483 56.8248 86.4826 56.9168 86.4826 57.0083L86.4771 57.648L86.4773 57.6744C86.479 57.899 86.4807 58.1155 86.4807 58.3337L86.4807 58.3338C86.4789 58.9384 86.4771 59.5431 86.4807 60.1477C86.4844 60.7782 86.4863 61.4105 86.4826 62.0428C86.4789 62.5368 86.4789 63.0309 86.4789 63.5249C86.4807 63.7646 86.4807 63.9987 86.4807 64.2328L86.4771 64.9186V64.9187C86.4807 65.2412 86.4807 65.2412 86.4826 65.5583C86.4844 66.3934 86.6098 66.8727 87.1075 67.5511C87.7066 67.94 88.1435 68.0949 88.8533 68.1834C89.0234 68.1843 89.1072 68.1848 89.1911 68.185C89.2726 68.1852 89.3542 68.1852 89.5151 68.1852C90.3115 68.1981 90.6746 68.187 91.3346 67.7299C91.4655 67.6064 91.5908 67.4865 91.7162 67.3667L91.9005 68.1041H94.297V54.4625H91.9005L91.7162 55.1998C91.6215 55.0099 91.5629 54.8921 91.4794 54.796ZM90.3115 56.4683C89.9189 56.4738 89.5262 56.4812 89.1354 56.4904L89.1354 56.5014C89.1317 57.6093 89.128 58.7154 89.1262 59.8234C89.1262 60.0492 89.1257 60.2755 89.1253 60.5018C89.1248 60.7281 89.1244 60.9544 89.1244 61.1802C89.1207 61.8494 89.1188 62.5167 89.1188 63.1859C89.1188 63.2935 89.1184 63.4002 89.1179 63.5062C89.1174 63.6108 89.117 63.7147 89.117 63.8182C89.117 63.924 89.1165 64.0283 89.116 64.132C89.1156 64.2343 89.1151 64.3359 89.1151 64.4376V65.0072C89.1133 65.3022 89.1188 65.5971 89.1354 65.8921C89.2058 65.9625 89.2493 66.006 89.3011 66.0342C89.3851 66.0799 89.4908 66.0856 89.7677 66.1004C89.9558 66.1004 90.1401 66.1004 90.3226 66.0985C90.3801 66.0987 90.4357 66.0993 90.4898 66.0998C90.9417 66.1043 91.2849 66.1078 91.7163 65.8921C91.8269 65.5602 91.8711 65.4275 91.894 65.2912C91.9092 65.2003 91.915 65.1079 91.9246 64.9537C91.9255 64.878 91.9259 64.8031 91.9264 64.7289C91.9269 64.6533 91.9273 64.5784 91.9283 64.5039C91.9283 64.4166 91.9287 64.3302 91.9292 64.2445C91.9296 64.1602 91.9301 64.0765 91.9301 63.9933C91.9319 63.8053 91.9319 63.6246 91.9319 63.4421C91.9319 63.0605 91.9338 62.6771 91.9356 62.2936C91.9356 61.689 91.9356 61.0843 91.9393 60.4797C91.9412 60.0852 91.943 59.6907 91.943 59.2962V58.7302L91.9431 58.7194C91.9449 58.5369 91.9467 58.358 91.9467 58.179C91.9467 58.0057 91.9467 57.838 91.9448 57.6702C91.9459 57.4238 91.9463 57.3129 91.9389 57.2026C91.9327 57.1124 91.9213 57.0225 91.9006 56.8591C91.7224 56.6808 91.6303 56.5888 91.5194 56.537C91.4009 56.4818 91.261 56.4726 90.9715 56.4535C90.864 56.4562 90.7581 56.4584 90.6532 56.4606C90.5386 56.463 90.4251 56.4654 90.3115 56.4683Z" fill="white"/>
<path fill-rule="evenodd" clip-rule="evenodd" d="M24.285 54.2363L23.7615 54.2437C23.0241 54.2492 22.4895 54.2935 21.848 54.6935C21.2765 55.1931 20.9613 55.6834 20.8599 56.443C20.8599 56.6328 20.8599 56.8153 20.8617 56.9978C20.8617 57.1066 20.8612 57.2135 20.8608 57.3195C20.8603 57.4236 20.8599 57.5269 20.8599 57.6301C20.8617 57.8606 20.8636 58.0836 20.8672 58.3067V58.3067C20.8672 58.9021 20.8672 59.4994 20.8728 60.0949C20.8783 60.7179 20.882 61.341 20.882 61.9641L20.882 61.9695C20.8838 62.4562 20.8857 62.9411 20.8857 63.4278L20.8858 63.4441C20.8876 63.6744 20.8894 63.8995 20.8894 64.1247C20.8912 64.3551 20.8912 64.58 20.8912 64.8049L20.8967 65.4317L20.8967 65.4321C20.9023 66.219 20.906 66.7554 21.435 67.3784C22.0305 67.8909 22.5393 68.0863 23.3246 68.1471C23.52 68.1434 23.7099 68.1416 23.8997 68.1397C23.9509 68.1394 24.0013 68.1392 24.0511 68.139C24.7377 68.1365 25.3033 68.1345 25.8464 67.6309C25.9035 67.5701 25.9588 67.5092 26.0135 67.449C26.0384 67.4216 26.0632 67.3944 26.0879 67.3673C26.1524 67.618 26.2133 67.8614 26.2723 68.1047H28.6688V54.4631H26.2723L26.0879 55.0161C25.5515 54.4778 25.0408 54.299 24.285 54.2363ZM24.6842 56.4683C24.2916 56.4738 23.8989 56.4812 23.5081 56.4904C23.5007 57.5762 23.4933 58.662 23.4896 59.7497C23.4887 59.9709 23.4883 60.1921 23.4878 60.4133C23.4873 60.6345 23.4869 60.8557 23.486 61.0769C23.4804 61.7295 23.4749 62.384 23.4731 63.0365C23.4731 63.2467 23.4731 63.4513 23.4712 63.656L23.4657 64.2606V64.8192C23.4647 65.093 23.4642 65.2151 23.4715 65.3367C23.4774 65.4344 23.4884 65.5319 23.5081 65.7077C23.7011 65.9008 23.7931 65.9927 23.9038 66.0445C24.0046 66.0916 24.121 66.1054 24.3432 66.1317C24.437 66.1317 24.5294 66.1322 24.6211 66.1327C24.7114 66.1331 24.801 66.1336 24.8907 66.1336C25.1849 66.1385 25.321 66.1408 25.4563 66.1316C25.5728 66.1236 25.6888 66.1071 25.9046 66.0764C26.1335 65.7331 26.2203 65.6029 26.2642 65.4596C26.291 65.372 26.3019 65.2796 26.3194 65.1307C26.3203 65.0132 26.3208 64.9551 26.321 64.8971C26.3212 64.8404 26.3212 64.7837 26.3212 64.6717C26.3221 64.5833 26.3226 64.4966 26.323 64.4109C26.3235 64.3233 26.324 64.2366 26.3249 64.15C26.323 63.9583 26.323 63.7722 26.323 63.5879V63.5877V62.4135L26.323 62.4109C26.3212 61.7924 26.3194 61.1757 26.3212 60.5589C26.323 60.1552 26.323 59.7515 26.323 59.3478V58.7708V58.7706C26.323 58.579 26.323 58.3928 26.3249 58.2085C26.324 58.1205 26.3235 58.0339 26.3231 57.9477C26.3226 57.8606 26.3221 57.7739 26.3212 57.6868C26.3202 57.4332 26.3197 57.3197 26.3118 57.2068C26.3053 57.1153 26.2939 57.0241 26.2733 56.8591C26.095 56.6808 26.0029 56.5888 25.8921 56.537C25.7736 56.4818 25.6336 56.4726 25.3442 56.4535C25.2366 56.4562 25.1308 56.4584 25.0259 56.4606C24.9113 56.463 24.7977 56.4654 24.6842 56.4683Z" fill="white"/>
<path fill-rule="evenodd" clip-rule="evenodd" d="M111.241 54.2017L110.704 54.209C109.473 54.1943 108.462 54.1888 107.386 54.8321C107.023 55.3206 106.846 55.6635 106.763 56.27C106.763 56.3687 106.762 56.4654 106.762 56.5613C106.761 56.6553 106.761 56.7484 106.761 56.8415L106.755 57.4922L106.756 57.5187C106.757 57.747 106.759 57.9672 106.759 58.1891L106.759 58.1891C106.757 58.8048 106.755 59.4205 106.759 60.0344C106.763 60.6777 106.765 61.3211 106.761 61.9626C106.757 62.4659 106.757 62.9692 106.757 63.4724C106.759 63.7158 106.759 63.9554 106.759 64.1932C106.759 64.4292 106.757 64.6596 106.755 64.89V64.8901L106.761 65.5408C106.763 66.3851 106.888 66.8644 107.386 67.552C108.223 68.1714 108.223 68.1714 110.134 68.1622C110.341 68.1585 110.54 68.1548 110.739 68.1493C110.904 68.1486 111.065 68.1504 111.225 68.1521C112.328 68.1639 113.314 68.1746 114.207 67.3677C114.413 67.0802 114.552 66.8861 114.643 66.6717C114.832 66.226 114.814 65.6923 114.76 64.0494H112.179C112.116 64.6744 112.055 65.2827 111.994 65.8929L109.414 66.0773L109.229 62.0216H114.76C114.774 61.2935 114.787 60.5653 114.797 59.8371C114.798 59.5403 114.802 59.2417 114.806 58.9449L114.806 58.9355C114.815 58.4999 114.824 58.0661 114.828 57.6323C114.829 57.5618 114.829 57.4923 114.83 57.4231C114.83 57.3531 114.831 57.2835 114.832 57.2139C114.854 56.4433 114.85 55.894 114.422 55.2211C113.477 54.2994 112.507 54.2072 111.241 54.2017ZM111.036 56.2679C110.921 56.2692 110.807 56.2706 110.693 56.2715C110.562 56.2722 110.428 56.2631 110.296 56.2541C109.753 56.2171 109.247 56.1828 109.209 56.8503C109.209 56.9291 109.209 57.0075 109.21 57.0854C109.21 57.1623 109.211 57.2388 109.211 57.3149C109.212 57.4863 109.212 57.6522 109.212 57.8163L109.218 58.3454L109.229 60.1778H112.363C112.37 59.7685 112.378 59.3593 112.381 58.95L112.387 58.4486C112.389 58.2809 112.392 58.1169 112.396 57.9528L112.396 57.9527C112.396 57.7905 112.398 57.6338 112.4 57.4771C112.403 57.2379 112.404 57.1291 112.398 57.0207C112.393 56.9304 112.382 56.8403 112.363 56.6752C111.994 56.3065 111.994 56.3065 111.401 56.2641C111.277 56.265 111.156 56.2665 111.036 56.2679Z" fill="white"/>
<path d="M37.8872 49.3008C38.7389 49.3008 39.5906 49.3008 40.4681 49.3008C40.4681 50.0916 40.4681 50.8825 40.4681 51.6973C39.6164 51.6973 38.7647 51.6973 37.8872 51.6973C37.8872 50.9064 37.8872 50.1156 37.8872 49.3008Z" fill="white"/>
<path d="M123.792 59.8086C123.853 59.8086 123.914 59.8086 123.977 59.8086C123.87 61.1267 123.669 62.406 123.413 63.702C123.361 63.9674 123.361 63.9674 123.308 64.2366C123.225 64.6661 123.14 65.0956 123.055 65.5233C122.994 65.5233 122.933 65.5233 122.871 65.5233C122.865 65.1583 122.862 64.7933 122.86 64.4283C122.858 64.2255 122.854 64.0228 122.852 63.8126C122.871 63.3112 122.871 63.3112 123.055 63.1268C123.085 62.8816 123.107 62.6365 123.125 62.3894C123.214 61.4751 123.47 60.6658 123.792 59.8086Z" fill="white"/>
<path d="M82.6833 50.407C83.535 50.407 84.3867 50.407 85.2642 50.407C85.2034 50.8937 85.1425 51.3803 85.0799 51.8818C85.019 51.8818 84.9582 51.8818 84.8955 51.8818C84.8955 51.5167 84.8955 51.1517 84.8955 50.7757C84.2263 50.7757 83.5572 50.7757 82.8677 50.7757C82.8069 50.9582 82.746 51.1407 82.6833 51.3287C82.6833 51.0245 82.6833 50.7204 82.6833 50.407Z" fill="white"/>
<path d="M64.1475 54.5632C64.3226 54.5669 64.4978 54.5706 64.6766 54.5743C64.9605 54.578 64.9605 54.578 65.2517 54.5817C65.449 54.589 65.6462 54.5946 65.8509 54.6001C66.05 54.6038 66.2491 54.6075 66.4555 54.6112C66.9496 54.6204 67.4418 54.6314 67.9358 54.6462C67.9358 54.707 67.9358 54.7679 67.9358 54.8305C66.5975 54.8305 65.2591 54.8305 63.8802 54.8305C63.8194 55.0739 63.7585 55.3172 63.6959 55.5679C63.5742 55.6896 63.4525 55.8113 63.3272 55.9366C63.2663 55.7541 63.2055 55.5716 63.1428 55.3836C63.412 54.8563 63.5576 54.672 64.1475 54.5632Z" fill="white"/>
<path d="M35.1218 56.306C35.1218 56.4277 35.1218 56.5493 35.1218 56.6747C34.8177 56.7355 34.5135 56.7963 34.2001 56.859C34.0784 57.224 33.9568 57.589 33.8314 57.9651C33.6655 57.5024 33.6231 57.2922 33.7964 56.824C34.1798 56.2396 34.4047 56.306 35.1218 56.306Z" fill="white"/>
</svg>
