<?xml version="1.0" encoding="utf-8"?>
<!-- Generator: Adobe Illustrator 22.1.0, SVG Export Plug-In . SVG Version: 6.00 Build 0)  -->
<svg version="1.1" id="Camada_1" xmlns="http://www.w3.org/2000/svg" xmlns:xlink="http://www.w3.org/1999/xlink" x="0px" y="0px"
	 viewBox="0 0 200 200" style="enable-background:new 0 0 200 200;" xml:space="preserve">
<style type="text/css">
	.st0{fill:#F2F2F2;}
	.st1{fill:#37474F;}
	.st2{fill:#263238;}
	.st3{fill:#455A64;}
	.st4{fill:#FFFFFF;}
	.st5{fill:#F5F5F5;}
	.st6{fill:#3F0753;}
	.st7{fill:#1D91A0;}
	.st8{opacity:0.1;enable-background:new    ;}
	.st9{opacity:0.4;fill:#FFFFFF;enable-background:new    ;}
	.st10{opacity:0.7;fill:#FFFFFF;enable-background:new    ;}
	.st11{fill:#E6E6E6;}
</style>
<g id="Grupo_493" transform="translate(-147.983 -1084.995)">
	<g id="Grupo_492">
		<path id="Caminho_75" class="st0" d="M248,1110c41.4,0,75,33.6,75,75s-33.6,75-75,75s-75-33.6-75-75S206.6,1110,248,1110z"/>
		<g id="Grupo_122" transform="translate(91.362 1049.406)">
			<g id="Laptop" transform="translate(105.946 78.579)">
				<path id="Caminho_49" class="st1" d="M-8.7,94.3c0.1,1.2,0.7,2.3,1.7,2.9l48.9,28.3c1.1,0.6,2.4,0.6,3.5,0l67-38.7
					c1.6-0.8,2.2-2.8,1.4-4.4c-0.3-0.6-0.8-1.1-1.4-1.4L63.5,52.8c-1.1-0.6-2.4-0.6-3.5,0L-7,91.4C-8,92.1-8.7,93.1-8.7,94.3z"/>
				<path id="Caminho_50" class="st2" d="M11.5,80.8L-7,91.4c-1.6,0.8-2.2,2.8-1.4,4.4c0.3,0.6,0.8,1.1,1.4,1.4l48.9,28.3
					c0.5,0.3,1.1,0.4,1.7,0.4V80.8H11.5z"/>
				<path id="Caminho_51" class="st3" d="M-10.4,91.5c-1-0.7-1.6-1.8-1.6-3V30.1c0.1-1.2,0.7-2.4,1.7-3l67-38.7c1.5-1,3.6-0.5,4.5,1
					c0.3,0.6,0.5,1.2,0.5,1.9v58.4c-0.1,1.2-0.7,2.4-1.7,3L-7,91.4C-8,92-9.3,92-10.4,91.5z"/>
				<path id="Caminho_52" class="st2" d="M-3.8,32.8l-7.7-4.4c-0.3,0.5-0.5,1.1-0.5,1.7v58.4c-0.1,1.8,1.3,3.3,3.2,3.4
					c0.7,0,1.3-0.1,1.9-0.5L0.6,87L-3.8,32.8z"/>
				<path id="Caminho_53" class="st1" d="M-8.7,32v58.4c0,1.1,0.8,1.6,1.7,1l67-38.7c1-0.7,1.7-1.8,1.7-3V-8.7c0-1.1-0.8-1.6-1.7-1
					L-7,29C-8,29.7-8.7,30.8-8.7,32z"/>
				<path id="Caminho_54" class="st3" d="M-7,93.4l48.9,28.3c1.1,0.6,2.4,0.6,3.5,0l67-38.7c0.6-0.2,0.9-0.8,0.7-1.4
					c-0.1-0.3-0.4-0.6-0.7-0.7L63.5,52.8c-1.1-0.6-2.4-0.6-3.5,0L-7,91.4c-0.9,0-1.5,0.2-1.5,1C-8.5,93.3-7.8,94-7,93.4z"/>
				<path id="Caminho_55" class="st4" d="M-6.1,32.2L59-5.4c0.6-0.3,1-0.1,1,0.6v50.6c0,0.7-0.4,1.4-1,1.8L-6.1,85.2
					c-0.6,0.3-1,0.1-1-0.6V34C-7.1,33.3-6.7,32.6-6.1,32.2z"/>
				<path id="Caminho_56" class="st2" d="M-1.3,91.9L60.8,56c0.5-0.3,1.2-0.3,1.7,0l3.2,1.8c0.3,0.1,0.4,0.4,0.3,0.7
					c-0.1,0.2-0.2,0.3-0.3,0.3L3.6,94.8c-0.5,0.3-1.2,0.3-1.7,0l-3.2-1.8c-0.3-0.1-0.4-0.4-0.3-0.7C-1.6,92.1-1.5,92-1.3,91.9z"/>
				<path id="Caminho_57" class="st2" d="M6.9,96.7L69,60.8c0.5-0.3,1.2-0.3,1.7,0l19.6,11.3c0.3,0.1,0.4,0.4,0.3,0.7
					c-0.1,0.2-0.2,0.3-0.3,0.3l-62.1,35.8c-0.5,0.3-1.2,0.3-1.7,0L6.9,97.7c-0.3-0.1-0.4-0.4-0.3-0.7C6.6,96.8,6.7,96.7,6.9,96.7z"
					/>
				<path id="Caminho_58" class="st3" d="M62.6,76.9l1.9-1.1c0.1,0,0.1-0.1,0-0.2l-2.3-1.3c-0.1-0.1-0.2-0.1-0.3,0L60,75.4
					c-0.1,0-0.1,0.1,0,0.2l2.3,1.3C62.4,77,62.5,77,62.6,76.9z M58.8,72.4l-1.9,1.1c-0.1,0-0.1,0.1,0,0.2l2.3,1.3
					c0.1,0.1,0.2,0.1,0.3,0l1.9-1.1c0.1,0,0.1-0.1,0-0.2l-2.3-1.3C59,72.4,58.9,72.4,58.8,72.4L58.8,72.4z M52.5,76.1L49.2,78
					c-0.1,0-0.1,0.1,0,0.2l2.3,1.3c0.1,0.1,0.2,0.1,0.3,0l3.3-1.9c0.1,0,0.1-0.1,0-0.2l-2.3-1.3C52.7,76,52.6,76,52.5,76.1
					L52.5,76.1z M55.9,74.1L54,75.2c-0.1,0-0.1,0.1,0,0.2l2.3,1.3c0.1,0.1,0.2,0.1,0.3,0l1.9-1.1c0.1,0,0.1-0.1,0-0.2l-2.3-1.3
					C56.1,74,56,74,55.9,74.1L55.9,74.1z M48.3,78.5l-1.9,1.1c-0.1,0-0.1,0.1,0,0.2l2.3,1.3c0.1,0.1,0.2,0.1,0.3,0l1.9-1.1
					c0.1,0,0.1-0.1,0-0.2l-2.3-1.3C48.5,78.5,48.4,78.4,48.3,78.5L48.3,78.5z M45.4,80.1l-1.9,1.1c-0.1,0-0.1,0.1,0,0.2l2.3,1.3
					c0.1,0.1,0.2,0.1,0.3,0l1.9-1.1c0.1,0,0.1-0.1,0-0.2l-2.3-1.3C45.6,80.1,45.5,80.1,45.4,80.1L45.4,80.1z M54.3,85.4l1.9-1.1
					c0.1,0,0.1-0.1,0-0.2L54,82.8c-0.1-0.1-0.2-0.1-0.3,0l-1.9,1.1c-0.1,0-0.1,0.1,0,0.2l2.3,1.3C54.1,85.5,54.2,85.5,54.3,85.4
					L54.3,85.4z M51.4,87.1l1.9-1.1c0.1,0,0.1-0.1,0-0.2l-2.3-1.3c-0.1-0.1-0.2-0.1-0.3,0l-1.9,1.1c-0.1,0-0.1,0.1,0,0.2l2.3,1.3
					C51.2,87.1,51.3,87.1,51.4,87.1L51.4,87.1z M48.6,88.7l1.9-1.1c0.1,0,0.1-0.1,0-0.2l-2.3-1.3c-0.1-0.1-0.2-0.1-0.3,0L46,87.2
					c-0.1,0-0.1,0.1,0,0.2l2.3,1.3C48.4,88.8,48.5,88.8,48.6,88.7L48.6,88.7z M45.8,90.3l1.9-1.1c0.1,0,0.1-0.1,0-0.2l-2.3-1.3
					c-0.1-0.1-0.2-0.1-0.3,0l-1.9,1.1c-0.1,0-0.1,0.1,0,0.2l2.3,1.3C45.5,90.4,45.7,90.4,45.8,90.3L45.8,90.3z M59.8,78.5l1.9-1.1
					c0.1,0,0.1-0.1,0-0.2l-2.3-1.3c-0.1-0.1-0.2-0.1-0.3,0l-1.9,1.1c-0.1,0-0.1,0.1,0,0.2l2.3,1.3C59.5,78.6,59.7,78.6,59.8,78.5
					L59.8,78.5z M57.1,83.8l4.3-2.5c0.1,0,0.1-0.1,0-0.2L56,77.9c-0.1-0.1-0.2-0.1-0.3,0l-2.2,1.3c-0.1,0-0.1,0.1,0,0.2l2.9,1.7
					c0.1,0.1,0.1,0.1,0,0.2l-1.8,1c-0.1,0-0.1,0.1,0,0.2l2.3,1.3C56.9,83.8,57,83.8,57.1,83.8L57.1,83.8z M42.6,81.8l-1.9,1.1
					c-0.1,0-0.1,0.1,0,0.2l2.3,1.3c0.1,0.1,0.2,0.1,0.3,0l1.9-1.1c0.1,0,0.1-0.1,0-0.2l-2.3-1.3C42.8,81.7,42.7,81.7,42.6,81.8
					L42.6,81.8z M39.7,83.4l-1.9,1.1c-0.1,0-0.1,0.1,0,0.2l2.3,1.3c0.1,0.1,0.2,0.1,0.3,0l1.9-1.1c0.1,0,0.1-0.1,0-0.2l-2.3-1.3
					C40,83.4,39.8,83.4,39.7,83.4L39.7,83.4z M25.5,101.8c0.1,0.1,0.2,0.1,0.3,0l1.9-1.1c0.1,0,0.1-0.1,0-0.2l-2.3-1.3
					c-0.1-0.1-0.2-0.1-0.3,0l-1.9,1.1c-0.1,0-0.1,0.1,0,0.2L25.5,101.8z M17,96.6L15,97.7c-0.1,0-0.1,0.1,0,0.2l2.3,1.3
					c0.1,0.1,0.2,0.1,0.3,0l1.9-1.1c0.1,0,0.1-0.1,0-0.2l-2.3-1.3C17.2,96.5,17.1,96.5,17,96.6L17,96.6z M21.6,100.4
					c0.1,0.1,0.2,0.1,0.3,0l1.9-1.1c0.1,0,0.1-0.1,0-0.2l-2.3-1.3c-0.1-0.1-0.2-0.1-0.3,0l-1.9,1.1c-0.1,0-0.1,0.1,0,0.2L21.6,100.4
					z M30.6,102.8l1.9-1.1c0.1,0,0.1-0.1,0-0.2l-2.3-1.3c-0.1-0.1-0.2-0.1-0.3,0l-1.9,1.1c-0.1,0-0.1,0.1,0,0.2l2.3,1.3
					C30.3,102.9,30.5,102.9,30.6,102.8L30.6,102.8z M27.4,104.5c0.1,0.1,0.2,0.1,0.3,0l1.9-1.1c0.1,0,0.1-0.1,0-0.2l-2.3-1.3
					c-0.1-0.1-0.2-0.1-0.3,0l-1.9,1.1c-0.1,0-0.1,0.1,0,0.2L27.4,104.5z M19.8,94.9L17.9,96c-0.1,0-0.1,0.1,0,0.2l2.3,1.3
					c0.1,0.1,0.2,0.1,0.3,0l1.9-1.1c0.1,0,0.1-0.1,0-0.2l-2.3-1.3C20,94.9,19.9,94.9,19.8,94.9L19.8,94.9z M34.1,86.7l-1.9,1.1
					c-0.1,0-0.1,0.1,0,0.2l2.3,1.3c0.1,0.1,0.2,0.1,0.3,0l1.9-1.1c0.1,0,0.1-0.1,0-0.2l-2.3-1.3C34.3,86.7,34.2,86.7,34.1,86.7
					L34.1,86.7z M22.7,93.3l-1.9,1.1c-0.1,0-0.1,0.1,0,0.2l2.3,1.3c0.1,0.1,0.2,0.1,0.3,0l1.9-1.1c0.1,0,0.1-0.1,0-0.2L23,93.3
					C22.9,93.2,22.8,93.2,22.7,93.3z M36.9,85.1L35,86.2c-0.1,0-0.1,0.1,0,0.2l2.3,1.3c0.1,0.1,0.2,0.1,0.3,0l1.9-1.1
					c0.1,0,0.1-0.1,0-0.2l-2.3-1.3C37.1,85,37,85,36.9,85.1L36.9,85.1z M31.2,88.3l-1.9,1.1c-0.1,0-0.1,0.1,0,0.2l2.3,1.3
					c0.1,0.1,0.2,0.1,0.3,0l1.9-1.1c0.1,0,0.1-0.1,0-0.2l-2.3-1.3C31.4,88.3,31.3,88.3,31.2,88.3L31.2,88.3z M28.4,90l-1.9,1.1
					c-0.1,0-0.1,0.1,0,0.2l2.3,1.3c0.1,0.1,0.2,0.1,0.3,0l1.9-1.1c0.1,0,0.1-0.1,0-0.2L28.7,90C28.6,89.9,28.5,89.9,28.4,90L28.4,90
					z M25.5,91.6l-1.9,1.1c-0.1,0-0.1,0.1,0,0.2l2.3,1.3c0.1,0.1,0.2,0.1,0.3,0l1.9-1.1c0.1,0,0.1-0.1,0-0.2l-2.3-1.3
					C25.7,91.6,25.6,91.6,25.5,91.6L25.5,91.6z M40.1,93.6l1.9-1.1c0.1,0,0.1-0.1,0-0.2L39.7,91c-0.1-0.1-0.2-0.1-0.3,0l-1.9,1.1
					c-0.1,0-0.1,0.1,0,0.2l2.3,1.3C39.8,93.7,40,93.7,40.1,93.6L40.1,93.6z M65,68.8l-1.9,1.1c-0.1,0-0.1,0.1,0,0.2l2.3,1.3
					c0.1,0.1,0.2,0.1,0.3,0l1.9-1.1c0.1,0,0.1-0.1,0-0.2l-2.3-1.3C65.3,68.8,65.1,68.8,65,68.8L65,68.8z M61.6,70.8l-1.9,1.1
					c-0.1,0-0.1,0.1,0,0.2l2.3,1.3c0.1,0.1,0.2,0.1,0.3,0l1.9-1.1c0.1,0,0.1-0.1,0-0.2l-2.3-1.3C61.8,70.8,61.7,70.8,61.6,70.8
					L61.6,70.8z M67.9,67.2l-1.9,1.1c-0.1,0-0.1,0.1,0,0.2l2.3,1.3c0.1,0.1,0.2,0.1,0.3,0l1.9-1.1c0.1,0,0.1-0.1,0-0.2l-2.3-1.3
					C68.1,67.1,68,67.1,67.9,67.2L67.9,67.2z M53.2,82.4l1.9-1.1c0.1,0,0.1-0.1,0-0.2l-2.3-1.3c-0.1-0.1-0.2-0.1-0.3,0l-1.9,1.1
					c-0.1,0-0.1,0.1,0,0.2l2.3,1.3C53,82.4,53.1,82.4,53.2,82.4z M71,65.5c-0.1-0.1-0.2-0.1-0.3,0l-1.9,1.1c-0.1,0-0.1,0.1,0,0.2
					l2.3,1.3c0.1,0.1,0.2,0.1,0.3,0l1.9-1.1c0.1,0,0.1-0.1,0-0.2L71,65.5z M42.9,92l1.9-1.1c0.1,0,0.1-0.1,0-0.2l-2.3-1.3
					c-0.1-0.1-0.2-0.1-0.3,0l-1.9,1.1c-0.1,0-0.1,0.1,0,0.2l2.3,1.3C42.7,92,42.8,92,42.9,92L42.9,92z M77.8,71.9l1.9-1.1
					c0.1,0,0.1-0.1,0-0.2l-2.3-1.3c-0.1-0.1-0.2-0.1-0.3,0l-1.9,1.1c-0.1,0-0.1,0.1,0,0.2l2.3,1.3C77.6,71.9,77.7,71.9,77.8,71.9
					L77.8,71.9z M71.7,71.6l1.9-1.1c0.1,0,0.1-0.1,0-0.2L71.4,69c-0.1-0.1-0.2-0.1-0.3,0l-1.9,1.1c-0.1,0-0.1,0.1,0,0.2l2.3,1.3
					C71.5,71.7,71.6,71.7,71.7,71.6L71.7,71.6z M74.3,67.4c-0.1-0.1-0.2-0.1-0.3,0L72,68.5c-0.1,0-0.1,0.1,0,0.2l2.3,1.3
					c0.1,0.1,0.2,0.1,0.3,0l1.9-1.1c0.1,0,0.1-0.1,0-0.2L74.3,67.4z M74.9,67.1l5.5,3.2c0.1,0.1,0.2,0.1,0.3,0l1.9-1.1
					c0.1,0,0.1-0.1,0-0.2l-5.5-3.2c-0.1-0.1-0.2-0.1-0.3,0l-1.9,1.1C74.8,66.9,74.8,67,74.9,67.1z M68.3,70.7l-1.9,1.1
					c-0.1,0-0.1,0.1,0,0.2l2.3,1.3c0.1,0.1,0.2,0.1,0.3,0l1.9-1.1c0.1,0,0.1-0.1,0-0.2l-2.3-1.3C68.5,70.6,68.4,70.6,68.3,70.7
					L68.3,70.7z M46.9,83l-1.9,1.1c-0.1,0-0.1,0.1,0,0.2l2.3,1.3c0.1,0.1,0.2,0.1,0.3,0l1.9-1.1c0.1,0,0.1-0.1,0-0.2L47.2,83
					C47.1,83,47,83,46.9,83z M74.6,73.5c0.1,0.1,0.2,0.1,0.3,0l1.9-1.1c0.1,0,0.1-0.1,0-0.2l-2.3-1.3c-0.1-0.1-0.2-0.1-0.3,0
					L72.4,72c-0.1,0-0.1,0.1,0,0.2L74.6,73.5z M49.7,81.4l-1.9,1.1c-0.1,0-0.1,0.1,0,0.2L50,84c0.1,0.1,0.2,0.1,0.3,0l1.9-1.1
					c0.1,0,0.1-0.1,0-0.2L50,81.4C49.9,81.3,49.8,81.3,49.7,81.4L49.7,81.4z M28.4,100.2c0.1,0.1,0.2,0.1,0.3,0l1.9-1.1
					c0.1,0,0.1-0.1,0-0.2l-2.3-1.3c-0.1-0.1-0.2-0.1-0.3,0l-1.9,1.1c-0.1,0-0.1,0.1,0,0.2L28.4,100.2z M24.1,96.2l-1.9,1.1
					c-0.1,0-0.1,0.1,0,0.2l2.3,1.3c0.1,0.1,0.2,0.1,0.3,0l1.9-1.1c0.1,0,0.1-0.1,0-0.2l-2.3-1.3C24.3,96.1,24.2,96.1,24.1,96.2
					L24.1,96.2z M31.5,98.6l1.9-1.1c0.1,0,0.1-0.1,0-0.2l-2.3-1.3c-0.1-0.1-0.2-0.1-0.3,0L29,97.1c-0.1,0-0.1,0.1,0,0.2l2.3,1.3
					C31.3,98.6,31.4,98.6,31.5,98.6L31.5,98.6z M34.4,96.9l1.9-1.1c0.1,0,0.1-0.1,0-0.2l-2.3-1.3c-0.1-0.1-0.2-0.1-0.3,0l-1.9,1.1
					c-0.1,0-0.1,0.1,0,0.2l2.3,1.3C34.2,97,34.3,97,34.4,96.9L34.4,96.9z M37.2,95.3l1.9-1.1c0.1,0,0.1-0.1,0-0.2l-2.3-1.3
					c-0.1-0.1-0.2-0.1-0.3,0l-1.9,1.1c-0.1,0-0.1,0.1,0,0.2l2.3,1.3C37,95.3,37.1,95.3,37.2,95.3L37.2,95.3z M26.9,94.5L25,95.6
					c-0.1,0-0.1,0.1,0,0.2l2.3,1.3c0.1,0.1,0.2,0.1,0.3,0l1.9-1.1c0.1,0,0.1-0.1,0-0.2l-2.3-1.3C27.2,94.5,27,94.5,26.9,94.5
					L26.9,94.5z M29.8,92.9L27.8,94c-0.1,0-0.1,0.1,0,0.2l2.3,1.3c0.1,0.1,0.2,0.1,0.3,0l1.9-1.1c0.1,0,0.1-0.1,0-0.2l-2.3-1.3
					C30,92.8,29.9,92.8,29.8,92.9L29.8,92.9z M41.2,86.3l-1.9,1.1c-0.1,0-0.1,0.1,0,0.2l2.3,1.3c0.1,0.1,0.2,0.1,0.3,0l1.9-1.1
					c0.1,0,0.1-0.1,0-0.2l-2.3-1.3C41.4,86.3,41.3,86.3,41.2,86.3L41.2,86.3z M38.3,88l-1.9,1.1c-0.1,0-0.1,0.1,0,0.2l2.3,1.3
					c0.1,0.1,0.2,0.1,0.3,0l1.9-1.1c0.1,0,0.1-0.1,0-0.2L38.6,88C38.5,87.9,38.4,87.9,38.3,88L38.3,88z M44,84.7l-1.9,1.1
					c-0.1,0-0.1,0.1,0,0.2l2.3,1.3c0.1,0.1,0.2,0.1,0.3,0l1.9-1.1c0.1,0,0.1-0.1,0-0.2l-2.3-1.3C44.2,84.6,44.1,84.6,44,84.7
					L44,84.7z M32.6,91.2l-1.9,1.1c-0.1,0-0.1,0.1,0,0.2l2.3,1.3c0.1,0.1,0.2,0.1,0.3,0l1.9-1.1c0.1,0,0.1-0.1,0-0.2l-2.3-1.3
					C32.8,91.2,32.7,91.2,32.6,91.2L32.6,91.2z M35.5,89.6l-1.9,1.1c-0.1,0-0.1,0.1,0,0.2l2.3,1.3c0.1,0.1,0.2,0.1,0.3,0l1.9-1.1
					c0.1,0,0.1-0.1,0-0.2l-2.3-1.3C35.7,89.5,35.6,89.6,35.5,89.6L35.5,89.6z M33.4,101.2l1.9-1.1c0.1,0,0.1-0.1,0-0.2l-2.3-1.3
					c-0.1-0.1-0.2-0.1-0.3,0l-1.9,1.1c-0.1,0-0.1,0.1,0,0.2l2.3,1.3C33.2,101.2,33.3,101.2,33.4,101.2L33.4,101.2z M16.7,99.5
					l-2.3-1.3c-0.1-0.1-0.2-0.1-0.3,0l-1.9,1.1c-0.1,0-0.1,0.1,0,0.2l2.3,1.3c0.1,0.1,0.2,0.1,0.3,0l1.9-1.1
					C16.8,99.6,16.8,99.6,16.7,99.5L16.7,99.5z M21,100.8l-2.3-1.3c-0.1-0.1-0.2-0.1-0.3,0l-3,1.7c-0.1,0-0.1,0.1,0,0.2l2.3,1.3
					c0.1,0.1,0.2,0.1,0.3,0l3-1.7C21.1,100.9,21.1,100.8,21,100.8L21,100.8z M13.3,97L11,95.7c-0.1-0.1-0.2-0.1-0.3,0l-2.4,1.4
					c-0.1,0-0.1,0.1,0,0.2l2.3,1.3c0.1,0.1,0.2,0.1,0.3,0l2.4-1.4C13.3,97.1,13.3,97,13.3,97L13.3,97z M15.1,95.9
					c0.1,0.1,0.2,0.1,0.3,0l1.9-1.1c0.1,0,0.1-0.1,0-0.2l-2.3-1.3c-0.1-0.1-0.2-0.1-0.3,0l-1.9,1.1c-0.1,0-0.1,0.1,0,0.2L15.1,95.9z
					 M24.9,102.2l-2.3-1.3c-0.1-0.1-0.2-0.1-0.3,0l-3.7,2.2c-0.1,0-0.1,0.1,0,0.2l2.3,1.3c0.1,0.1,0.2,0.1,0.3,0l3.7-2.2
					C25,102.3,25,102.2,24.9,102.2L24.9,102.2z M26.8,104.8l-2.3-1.3c-0.1-0.1-0.2-0.1-0.3,0l-2.4,1.4c-0.1,0-0.1,0.1,0,0.2l2.3,1.3
					c0.1,0.1,0.2,0.1,0.3,0l2.4-1.4C26.9,104.9,26.9,104.9,26.8,104.8L26.8,104.8z M36.2,83.7c0.1,0.1,0.2,0.1,0.3,0l1.9-1.1
					c0.1,0,0.1-0.1,0-0.2l-2.3-1.3c-0.1-0.1-0.2-0.1-0.3,0L34,82.2c-0.1,0-0.1,0.1,0,0.2L36.2,83.7z M30.6,87c0.1,0.1,0.2,0.1,0.3,0
					l1.9-1.1c0.1,0,0.1-0.1,0-0.2l-2.3-1.3c-0.1-0.1-0.2-0.1-0.3,0l-1.9,1.1c-0.1,0-0.1,0.1,0,0.2L30.6,87z M17.9,94.3
					c0.1,0.1,0.2,0.1,0.3,0l1.9-1.1c0.1,0,0.1-0.1,0-0.2l-2.3-1.3c-0.1-0.1-0.2-0.1-0.3,0l-1.9,1.1c-0.1,0-0.1,0.1,0,0.2L17.9,94.3z
					 M33.4,85.4c0.1,0.1,0.2,0.1,0.3,0l1.9-1.1c0.1,0,0.1-0.1,0-0.2l-2.3-1.3c-0.1-0.1-0.2-0.1-0.3,0l-1.9,1.1c-0.1,0-0.1,0.1,0,0.2
					L33.4,85.4z M27.7,88.6c0.1,0.1,0.2,0.1,0.3,0l1.9-1.1c0.1,0,0.1-0.1,0-0.2L27.7,86c-0.1-0.1-0.2-0.1-0.3,0l-1.9,1.1
					c-0.1,0-0.1,0.1,0,0.2L27.7,88.6z M28.4,105c-0.1-0.1-0.2-0.1-0.3,0l-3,1.7c-0.1,0-0.1,0.1,0,0.2l2.3,1.3c0.1,0.1,0.2,0.1,0.3,0
					l3-1.7c0.1,0,0.1-0.1,0-0.2L28.4,105z M23.6,91c0.1,0.1,0.2,0.1,0.3,0l1.9-1.1c0.1,0,0.1-0.1,0-0.2l-2.3-1.3
					c-0.1-0.1-0.2-0.1-0.3,0l-1.9,1.1c-0.1,0-0.1,0.1,0,0.2L23.6,91z M20.8,92.6c0.1,0.1,0.2,0.1,0.3,0l1.9-1.1c0.1,0,0.1-0.1,0-0.2
					L20.8,90c-0.1-0.1-0.2-0.1-0.3,0l-1.9,1.1c-0.1,0-0.1,0.1,0,0.2L20.8,92.6z M81.1,74.6c-0.1-0.1-0.2-0.1-0.3,0L76,77.4
					c-0.1,0-0.1,0.1,0,0.2l2.3,1.3c0.1,0.1,0.2,0.1,0.3,0l4.8-2.8c0.1,0,0.1-0.1,0-0.2L81.1,74.6z M74.8,78.2
					c-0.1-0.1-0.2-0.1-0.3,0l-1.9,1.1c-0.1,0-0.1,0.1,0,0.2l2.3,1.3c0.1,0.1,0.2,0.1,0.3,0l1.9-1.1c0.1,0,0.1-0.1,0-0.2L74.8,78.2z
					 M36.2,99.5l1.9-1.1c0.1,0,0.1-0.1,0-0.2l-2.3-1.3c-0.1-0.1-0.2-0.1-0.3,0l-1.9,1.1c-0.1,0-0.1,0.1,0,0.2l2.3,1.3
					C36,99.6,36.1,99.6,36.2,99.5L36.2,99.5z M69.1,81.5c-0.1-0.1-0.2-0.1-0.3,0l-1.9,1.1c-0.1,0-0.1,0.1,0,0.2l2.3,1.3
					c0.1,0.1,0.2,0.1,0.3,0l1.9-1.1c0.1,0,0.1-0.1,0-0.2L69.1,81.5z M83.9,73c-0.1-0.1-0.2-0.1-0.3,0l-1.9,1.1c-0.1,0-0.1,0.1,0,0.2
					l2.3,1.3c0.1,0.1,0.2,0.1,0.3,0l1.9-1.1c0.1,0,0.1-0.1,0-0.2L83.9,73z M89,72.6l-5.5-3.2c-0.1-0.1-0.2-0.1-0.3,0l-1.9,1.1
					c-0.1,0-0.1,0.1,0,0.2l5.5,3.2c0.1,0.1,0.2,0.1,0.3,0l1.9-1.1C89.1,72.8,89.1,72.7,89,72.6L89,72.6z M58.5,87.6
					c-0.1-0.1-0.2-0.1-0.3,0L55.7,89c-0.1,0-0.1,0.1,0,0.2l2.3,1.3c0.1,0.1,0.2,0.1,0.3,0l2.4-1.4c0.1,0,0.1-0.1,0-0.2L58.5,87.6z
					 M65.6,83.5c-0.1-0.1-0.2-0.1-0.3,0l-3,1.7c-0.1,0-0.1,0.1,0,0.2l2.3,1.3c0.1,0.1,0.2,0.1,0.3,0l3-1.7c0.1,0,0.1-0.1,0-0.2
					L65.6,83.5z M51.9,91.4c-0.1-0.1-0.2-0.1-0.3,0l-16,9.2c-0.1,0-0.1,0.1,0,0.2l2.3,1.3c0.1,0.1,0.2,0.1,0.3,0l16-9.2
					c0.1,0,0.1-0.1,0-0.2L51.9,91.4z M35,101.2c-0.1-0.1-0.2-0.1-0.3,0l-2.4,1.4c-0.1,0-0.1,0.1,0,0.2l2.3,1.3
					c0.1,0.1,0.2,0.1,0.3,0l2.4-1.4c0.1,0,0.1-0.1,0-0.2L35,101.2z M55.2,89.6c-0.1-0.1-0.2-0.1-0.3,0l-2.4,1.4
					c-0.1,0-0.1,0.1,0,0.2l2.3,1.3c0.1,0.1,0.2,0.1,0.3,0l2.4-1.4c0.1,0,0.1-0.1,0-0.2L55.2,89.6z M31.7,103.1
					c-0.1-0.1-0.2-0.1-0.3,0l-2.4,1.4c-0.1,0-0.1,0.1,0,0.2l2.3,1.3c0.1,0.1,0.2,0.1,0.3,0l2.4-1.4c0.1,0,0.1-0.1,0-0.2L31.7,103.1z
					 M61.7,85.8c-0.1-0.1-0.2-0.1-0.3,0L59,87.1c-0.1,0-0.1,0.1,0,0.2l2.3,1.3c0.1,0.1,0.2,0.1,0.3,0l2.4-1.4c0.1,0,0.1-0.1,0-0.2
					L61.7,85.8z M71.9,79.9c-0.1-0.1-0.2-0.1-0.3,0L69.7,81c-0.1,0-0.1,0.1,0,0.2l2.3,1.3c0.1,0.1,0.2,0.1,0.3,0l1.9-1.1
					c0.1,0,0.1-0.1,0-0.2L71.9,79.9z M78.2,75.4l1.9-1.1c0.1,0,0.1-0.1,0-0.2l-2.3-1.3c-0.1-0.1-0.2-0.1-0.3,0l-1.9,1.1
					c-0.1,0-0.1,0.1,0,0.2l2.3,1.3C77.9,75.4,78.1,75.4,78.2,75.4L78.2,75.4z M65.4,75.3l1.9-1.1c0.1,0,0.1-0.1,0-0.2l-2.3-1.3
					c-0.1-0.1-0.2-0.1-0.3,0l-1.9,1.1c-0.1,0-0.1,0.1,0,0.2l2.3,1.3C65.2,75.3,65.3,75.3,65.4,75.3L65.4,75.3z M59,86.4l5.7-3.3
					c0.1,0,0.1-0.1,0-0.2l-2.3-1.3c-0.1-0.1-0.2-0.1-0.3,0l-5.7,3.3c-0.1,0-0.1,0.1,0,0.2l2.3,1.3C58.8,86.5,58.9,86.5,59,86.4
					L59,86.4z M75,77c0.1,0.1,0.2,0.1,0.3,0l1.9-1.1c0.1,0,0.1-0.1,0-0.2L75,74.4c-0.1-0.1-0.2-0.1-0.3,0l-1.9,1.1
					c-0.1,0-0.1,0.1,0,0.2L75,77z M72.1,75.1l1.9-1.1c0.1,0,0.1-0.1,0-0.2l-2.3-1.3c-0.1-0.1-0.2-0.1-0.3,0l-1.9,1.1
					c-0.1,0-0.1,0.1,0,0.2l2.3,1.3C71.9,75.2,72,75.2,72.1,75.1L72.1,75.1z M56.2,88.1l1.9-1.1c0.1,0,0.1-0.1,0-0.2l-2.3-1.3
					c-0.1-0.1-0.2-0.1-0.3,0l-1.9,1.1c-0.1,0-0.1,0.1,0,0.2l2.3,1.3C55.9,88.1,56.1,88.1,56.2,88.1L56.2,88.1z M68.7,80.6
					c0.1,0.1,0.2,0.1,0.3,0l1.9-1.1c0.1,0,0.1-0.1,0-0.2L68.7,78c-0.1-0.1-0.2-0.1-0.3,0l-1.9,1.1c-0.1,0-0.1,0.1,0,0.2L68.7,80.6z
					 M41.9,96.3l1.9-1.1c0.1,0,0.1-0.1,0-0.2l-2.3-1.3c-0.1-0.1-0.2-0.1-0.3,0l-1.9,1.1c-0.1,0-0.1,0.1,0,0.2l2.3,1.3
					C41.7,96.3,41.8,96.3,41.9,96.3L41.9,96.3z M44.8,94.6l1.9-1.1c0.1,0,0.1-0.1,0-0.2L44.5,92c-0.1-0.1-0.2-0.1-0.3,0l-1.9,1.1
					c-0.1,0-0.1,0.1,0,0.2l2.3,1.3C44.6,94.7,44.7,94.7,44.8,94.6z M39.1,97.9l1.9-1.1c0.1,0,0.1-0.1,0-0.2l-2.3-1.3
					c-0.1-0.1-0.2-0.1-0.3,0l-1.9,1.1c-0.1,0-0.1,0.1,0,0.2l2.3,1.3C38.9,98,39,98,39.1,97.9L39.1,97.9z M50.5,91.3l1.9-1.1
					c0.1,0,0.1-0.1,0-0.2l-2.3-1.3c-0.1-0.1-0.2-0.1-0.3,0l-1.9,1.1c-0.1,0-0.1,0.1,0,0.2l2.3,1.3C50.3,91.4,50.4,91.4,50.5,91.3
					L50.5,91.3z M47.6,93l1.9-1.1c0.1,0,0.1-0.1,0-0.2l-2.3-1.3c-0.1-0.1-0.2-0.1-0.3,0L45,91.5c-0.1,0-0.1,0.1,0,0.2l2.3,1.3
					C47.4,93,47.5,93,47.6,93L47.6,93z M53.3,89.7l1.9-1.1c0.1,0,0.1-0.1,0-0.2L53,87.1c-0.1-0.1-0.2-0.1-0.3,0l-1.9,1.1
					c-0.1,0-0.1,0.1,0,0.2l2.3,1.3C53.1,89.7,53.2,89.7,53.3,89.7L53.3,89.7z M66.3,65.4c0.1,0.1,0.2,0.1,0.3,0l1.9-1.1
					c0.1,0,0.1-0.1,0-0.2L68,63.8c-0.1-0.1-0.2-0.1-0.3,0l-1.9,1.1c-0.1,0-0.1,0.1,0,0.2L66.3,65.4z M52.3,74.4
					c0.1,0.1,0.2,0.1,0.3,0l1.9-1.1c0.1,0,0.1-0.1,0-0.2l-2.3-1.3c-0.1-0.1-0.2-0.1-0.3,0L50.1,73c-0.1,0-0.1,0.1,0,0.2L52.3,74.4z
					 M58,71.2c0.1,0.1,0.2,0.1,0.3,0l1.9-1.1c0.1,0,0.1-0.1,0-0.2L58,68.6c-0.1-0.1-0.2-0.1-0.3,0l-1.9,1.1c-0.1,0-0.1,0.1,0,0.2
					L58,71.2z M48.9,76.4c0.1,0.1,0.2,0.1,0.3,0l1.9-1.1c0.1,0,0.1-0.1,0-0.2l-2.3-1.3c-0.1-0.1-0.2-0.1-0.3,0L46.6,75
					c-0.1,0-0.1,0.1,0,0.2L48.9,76.4z M55.2,72.8c0.1,0.1,0.2,0.1,0.3,0l1.9-1.1c0.1,0,0.1-0.1,0-0.2l-2.3-1.3
					c-0.1-0.1-0.2-0.1-0.3,0l-1.9,1.1c-0.1,0-0.1,0.1,0,0.2L55.2,72.8z M43.2,79.7c0.1,0.1,0.2,0.1,0.3,0l1.9-1.1
					c0.1,0,0.1-0.1,0-0.2l-2.3-1.3c-0.1-0.1-0.2-0.1-0.3,0l-1.9,1.1c-0.1,0-0.1,0.1,0,0.2L43.2,79.7z M46,78.1
					c0.1,0.1,0.2,0.1,0.3,0l1.9-1.1c0.1,0,0.1-0.1,0-0.2L46,75.5c-0.1-0.1-0.2-0.1-0.3,0l-1.9,1.1c-0.1,0-0.1,0.1,0,0.2L46,78.1z
					 M60.6,68.7c0.1,0.1,0.2,0.1,0.3,0l1.9-1.1c0.1,0,0.1-0.1,0-0.2L62.3,67C62.2,67,62.1,67,62,67L60,68.2c-0.1,0-0.1,0.1,0,0.2
					L60.6,68.7z M69.2,63.8c0.1,0.1,0.2,0.1,0.3,0l1.9-1.1c0.1,0,0.1-0.1,0-0.2l-0.6-0.3c-0.1-0.1-0.2-0.1-0.3,0l-1.9,1.1
					c-0.1,0-0.1,0.1,0,0.2L69.2,63.8z M73.9,66.5c0.1,0.1,0.2,0.1,0.3,0l1.9-1.1c0.1,0,0.1-0.1,0-0.2l-2.3-1.3
					c-0.1-0.1-0.2-0.1-0.3,0L71.6,65c-0.1,0-0.1,0.1,0,0.2L73.9,66.5z M81,73.7l1.9-1.1c0.1,0,0.1-0.1,0-0.2l-2.3-1.3
					c-0.1-0.1-0.2-0.1-0.3,0l-1.9,1.1c-0.1,0-0.1,0.1,0,0.2l2.3,1.3C80.8,73.8,80.9,73.8,81,73.7L81,73.7z M63.5,67
					c0.1,0.1,0.2,0.1,0.3,0l1.9-1.1c0.1,0,0.1-0.1,0-0.2l-0.6-0.3c-0.1-0.1-0.2-0.1-0.3,0l-1.9,1.1c-0.1,0-0.1,0.1,0,0.2L63.5,67z
					 M40.3,81.4c0.1,0.1,0.2,0.1,0.3,0l1.9-1.1c0.1,0,0.1-0.1,0-0.2l-2.3-1.3c-0.1-0.1-0.2-0.1-0.3,0l-1.9,1.1c-0.1,0-0.1,0.1,0,0.2
					L40.3,81.4z"/>
				<path id="Caminho_59" class="st2" d="M51.9,99l21.3-12.3l13.1,7.6L65,106.6L51.9,99z"/>
			</g>
			<g id="Tab" transform="translate(121.068 90.709)">
				<path id="Caminho_60" class="st5" d="M-10.6,24.9l63.5-36.6c1.2-0.7,2.3-0.1,2.3,1.3v49.2c0,0.7-0.4,1.4-1,1.8L-11,78.2
					c-0.6,0.3-1,0.1-1-0.6V27.5C-12,26.4-11.4,25.5-10.6,24.9z"/>
				<path id="Caminho_61" class="st6" d="M55.2-9.2v-1.2c0-1.4-1-2-2.3-1.3l-63.5,36.6c-0.9,0.6-1.4,1.5-1.5,2.5v2.1L55.2-9.2z"/>
				<path id="Caminho_62" class="st4" d="M45.7-6.5c-0.5,0.3-0.7,0.8-0.8,1.3c0,0.5,0.3,0.7,0.8,0.4c0.5-0.3,0.7-0.8,0.8-1.3
					C46.5-6.6,46.1-6.8,45.7-6.5z"/>
				<path id="Caminho_63" class="st4" d="M48.8-8.3C48.3-8,48-7.5,48-7c0,0.5,0.3,0.7,0.8,0.4c0.5-0.3,0.7-0.8,0.8-1.3
					C49.6-8.4,49.2-8.6,48.8-8.3z"/>
				<path id="Caminho_64" class="st4" d="M51.9-10.1c-0.5,0.3-0.7,0.8-0.8,1.3c0,0.5,0.3,0.7,0.8,0.4c0.5-0.3,0.7-0.8,0.8-1.3
					C52.6-10.1,52.3-10.3,51.9-10.1z"/>
			</g>
			<g id="Lens" transform="translate(116.092 122.222)">
				<g id="Grupo_125" transform="translate(0 32.702)">
					<g id="Grupo_122-2" transform="translate(12.119 0)">
						
							<rect id="Retângulo_41" x="-13.8" y="-7.5" transform="matrix(0.5 -0.866 0.866 0.5 1.3639 -9.745)" class="st1" width="12.1" height="2.9"/>
						
							<rect id="Retângulo_42" x="-13.2" y="-6.4" transform="matrix(0.5 -0.866 0.866 0.5 1.3639 -9.0315)" class="st2" width="12.1" height="1.4"/>
					</g>
					<g id="Grupo_124" transform="translate(0 6.059)">
						<g id="Grupo_123">
							<path id="Caminho_65" class="st7" d="M-6.5,12.9c-1.1,2-6.4-1.2-5.3-3.1L2-11.9C2.1-12,2.3-12,2.4-12l2.8,1.6
								c0.1,0.1,0.2,0.2,0.1,0.4L-6.5,12.9z"/>
							<path id="Caminho_66" class="st8" d="M-6.5,12.9L5.3-10c0.1-0.1,0-0.3-0.1-0.4l-1.3-0.7L-9.6,13C-8.4,13.6-7,13.8-6.5,12.9z"
								/>
						</g>
					</g>
				</g>
				<g id="Grupo_126" transform="translate(12.768 0)">
					<path id="Caminho_67" class="st7" d="M21.5,0.6c0-0.2,0-0.3,0-0.5s0-0.3,0-0.5c0-0.1,0-0.2,0-0.3c0-0.3-0.1-0.5-0.1-0.8
						c0-0.1,0-0.2-0.1-0.4s0-0.2-0.1-0.3C21.1-2.5,21.1-2.7,21-3c0-0.1-0.1-0.3-0.1-0.4c0,0,0,0,0-0.1c0-0.1-0.1-0.3-0.1-0.4
						c-0.1-0.1-0.1-0.3-0.2-0.4c0-0.1-0.1-0.2-0.1-0.3c0-0.1-0.1-0.1-0.1-0.2c0-0.1-0.1-0.2-0.1-0.3c0,0,0,0,0-0.1
						c0-0.1-0.1-0.1-0.1-0.2c0,0-0.1-0.1-0.1-0.1c-0.2-0.3-0.4-0.6-0.7-0.9c0,0-0.1-0.1-0.1-0.1S19-6.6,19-6.6s-0.1-0.1-0.1-0.1
						c-0.1-0.1-0.3-0.3-0.4-0.4c-0.1-0.1-0.1-0.1-0.2-0.2S18-7.4,18-7.5c-0.1-0.1-0.2-0.2-0.4-0.2l-0.1-0.1l0,0l0,0l-5.7-3.3h0l0,0
						C10.6-11.7,9.4-12,8.1-12c-2.2,0.1-4.4,0.7-6.2,1.9C-5.8-5.7-12,5.1-12,14c0,4.4,1.5,7.5,4.1,9l0,0l0,0l5.7,3.3l0,0l0,0l0,0
						l0.1,0c0.1,0.1,0.2,0.1,0.3,0.2c0.1,0.1,0.3,0.1,0.4,0.2c0.1,0.1,0.3,0.1,0.4,0.1c0.1,0,0.1,0,0.2,0.1c0.1,0,0.1,0,0.2,0.1
						c0.1,0,0.1,0,0.2,0.1c0.1,0,0.1,0,0.2,0c0.1,0,0.2,0,0.3,0.1c0,0,0,0,0.1,0c0.1,0,0.2,0,0.4,0c2.5,0.1,5-0.5,7.1-1.9
						c7.7-4.4,13.9-15.2,13.9-24.1C21.6,1,21.6,0.8,21.5,0.6z M12.2-5.7c0.3,1.1,0.4,2.2,0.4,3.4c0,7.8-5.7,17.8-12.5,21.7
						c-1,0.6-2.1,1-3.2,1.3c-0.3-1.1-0.4-2.2-0.4-3.4C-3.5,9.5,2.3-0.4,9-4.4C10-4.9,11.1-5.4,12.2-5.7L12.2-5.7z"/>
					<path id="Caminho_68" class="st8" d="M-2.4,26.2L-8,23c-2.5-1.5-4.1-4.6-4.1-9c0.1-4.3,1.3-8.5,3.3-12.3L-3,5
						c-2,3.8-3.2,8-3.3,12.3C-6.3,21.7-4.8,24.7-2.4,26.2z"/>
					<path id="Caminho_69" class="st9" d="M21.5,0.6c0-0.2,0-0.3,0-0.5s0-0.3,0-0.5c0-0.1,0-0.2,0-0.3c0-0.3-0.1-0.5-0.1-0.8
						c0-0.1,0-0.2-0.1-0.4s0-0.2-0.1-0.3C21.1-2.5,21.1-2.7,21-3c0-0.1-0.1-0.3-0.1-0.4c0,0,0,0,0-0.1c0-0.1-0.1-0.3-0.1-0.4
						c-0.1-0.1-0.1-0.3-0.2-0.4c0-0.1-0.1-0.2-0.1-0.3c0-0.1-0.1-0.1-0.1-0.2c0-0.1-0.1-0.2-0.1-0.3c0,0,0,0,0-0.1
						c0-0.1-0.1-0.1-0.1-0.2c0,0-0.1-0.1-0.1-0.1c-0.2-0.3-0.4-0.6-0.7-0.9c0,0-0.1-0.1-0.1-0.1S19-6.6,19-6.6s-0.1-0.1-0.1-0.1
						c-0.1-0.1-0.3-0.3-0.4-0.4c-0.1-0.1-0.1-0.1-0.2-0.2S18-7.4,18-7.5c-0.1-0.1-0.2-0.2-0.4-0.2c-2.5-1.5-6.1-1.4-10,0.9
						C-0.1-2.4-6.3,8.4-6.3,17.3c0,4.5,1.6,7.6,4.2,9.1c0.1,0.1,0.2,0.1,0.3,0.2c0.1,0.1,0.3,0.1,0.4,0.2c0.1,0.1,0.3,0.1,0.4,0.1
						c0.1,0,0.1,0,0.2,0.1c0.1,0,0.1,0,0.2,0.1c0.1,0,0.1,0,0.2,0.1c0.1,0,0.1,0,0.2,0c0.1,0,0.2,0,0.3,0.1c0,0,0,0,0.1,0
						c0.1,0,0.2,0,0.4,0c2.5,0.1,5-0.5,7.1-1.9c7.7-4.4,13.9-15.2,13.9-24.1C21.6,1,21.6,0.8,21.5,0.6z M6.2,22.9
						c-1.4,0.9-3.1,1.4-4.8,1.5c-2.7,0-3.9-1.8-4.4-3.7c-0.3-1.1-0.4-2.2-0.4-3.4C-3.5,9.5,2.3-0.4,9-4.4c1-0.6,2.1-1,3.2-1.3
						c0.5-0.1,1.1-0.2,1.6-0.2c4.4,0,4.9,5,4.9,7.1C18.7,9.1,13,19,6.2,22.9L6.2,22.9z"/>
					<path id="Caminho_70" class="st8" d="M18.7,1.2C18.7,9.1,13,19,6.2,22.9c-1.4,0.9-3.1,1.4-4.8,1.5c-2.7,0-3.9-1.8-4.4-3.7
						c1.1-0.3,2.2-0.7,3.2-1.3C6.9,15.5,12.7,5.5,12.7-2.3c0-1.1-0.1-2.3-0.4-3.4c0.5-0.1,1.1-0.2,1.6-0.2
						C18.3-5.9,18.7-0.9,18.7,1.2z"/>
					<path id="Caminho_71" class="st10" d="M16.3-0.1c0,7.8-5.7,17.8-12.5,21.7C2.3,22.5,0.7,23-1,23.1c-0.3,0-0.6,0-0.8-0.1
						c-0.5-0.7-0.9-1.5-1.2-2.3c-0.3-1.1-0.4-2.2-0.4-3.4C-3.5,9.5,2.3-0.4,9-4.4c1-0.6,2.1-1,3.2-1.3c0.5-0.1,1.1-0.2,1.6-0.2
						c0.3,0,0.6,0,0.8,0.1C16.1-4.2,16.3-1.5,16.3-0.1z"/>
				</g>
			</g>
			<g id="Search_Taba" transform="translate(166.946 90.183)">
				<path id="Caminho_72" class="st11" d="M-12,23.7v8.9c0,0.7,0.5,0.9,1,0.6L47.6-0.5c0.6-0.4,1-1.1,1-1.8v-8.9
					c0-0.7-0.5-0.9-1-0.6L-11,21.9C-11.6,22.3-12,23-12,23.7z"/>
				<g id="Grupo_127" transform="translate(0 27.916)">
					<path id="Caminho_73" class="st6" d="M-11-6l10.4-6v11.4l-10.4,6c-0.6,0.3-1,0.1-1-0.6v-8.9C-12-4.9-11.6-5.6-11-6z"/>
					<path id="Caminho_74" class="st4" d="M-4-7c-0.8-0.4-1.7-0.3-2.3,0.2C-8-5.8-9-4-9.1-2.1c0,0.6,0.2,1.2,0.6,1.7l-1.1,1.9
						c-0.2,0.3-0.1,0.7,0.2,0.8c0.3,0.2,0.7,0.1,0.8-0.2l0,0l1.1-1.9c0.1,0,0.2,0,0.4,0c0.5,0,1-0.2,1.4-0.4C-4.1-1.2-3.1-3-3-4.9
						C-2.9-5.8-3.3-6.6-4-7z M-6.3-1.2c-0.3,0.4-0.9,0.4-1.3,0.1c-0.3-0.2-0.4-0.6-0.3-1C-7.8-3.6-7-5-5.7-5.8
						C-5.5-6-5.2-6.1-4.9-6.1c0.1,0,0.2,0,0.3,0.1c0.3,0.3,0.5,0.7,0.4,1.1C-4.3-3.4-5.1-2-6.3-1.2L-6.3-1.2z"/>
				</g>
			</g>
		</g>
		<path id="Subtração_9" class="st7" d="M176.9,1225.9L176.9,1225.9c-3.5-6.1-6.2-12.6-8.1-19.4c-1.7-6.3-2.6-12.7-2.8-19.2
			l3.1,1.8c0.6,12.5,4.2,24.6,10.5,35.4c21,36.4,66.9,50,104.3,30.9l3.1,1.8c-2.3,1.2-4.7,2.4-7.1,3.4c-10.1,4.3-21,6.5-31.9,6.4
			c-7.4,0-14.8-1-21.9-3c-6.9-1.9-13.5-4.7-19.7-8.4C194.2,1248.5,184,1238.2,176.9,1225.9z M209,1112.8L209,1112.8
			c2.3-1.2,4.7-2.4,7.1-3.4c10.1-4.3,21-6.5,31.9-6.4c7.4,0,14.8,1,21.9,3c6.9,1.9,13.5,4.7,19.7,8.4c12.2,7.2,22.4,17.5,29.5,29.7
			c3.5,6.1,6.2,12.6,8.1,19.4c1.7,6.3,2.6,12.7,2.8,19.2l-3.1-1.8c-0.6-12.5-4.2-24.6-10.5-35.4c-21-36.4-66.9-50-104.3-30.9
			L209,1112.8L209,1112.8z"/>
	</g>
</g>
</svg>
