<svg width="530" height="531" viewBox="0 0 530 531" fill="none" xmlns="http://www.w3.org/2000/svg">
<path d="M394.084 428.555C319.088 468.586 197.494 468.587 122.499 428.556C47.5033 388.524 47.5033 323.622 122.499 283.591C197.495 243.56 319.089 243.56 394.085 283.59C469.081 323.621 469.081 388.524 394.084 428.555Z" fill="#EBEBEB"/>
<path d="M409.084 363.157C409.084 365.902 407.029 369.315 404.493 370.778L275.888 445.028C273.353 446.492 269.242 446.492 266.708 445.028L90.7406 343.433C88.2061 341.97 86.1508 338.557 86.1508 335.812C86.1508 333.066 88.2051 329.653 90.7406 328.19L219.346 253.94C221.881 252.476 225.991 252.476 228.526 253.94L404.495 355.535C407.03 356.998 409.084 360.411 409.084 363.157Z" fill="#37474F"/>
<path d="M356.026 327.551L404.496 355.535C407.031 356.999 409.086 360.411 409.086 363.156C409.086 365.902 407.031 369.315 404.495 370.778L275.89 445.028C274.622 445.759 272.961 446.126 271.3 446.126V327.551H356.026Z" fill="#263238"/>
<path d="M413.39 355.698C415.768 354.326 417.696 350.839 417.696 347.913L417.697 194.44C417.697 191.514 415.642 187.954 413.107 186.49L237.14 84.8958C234.606 83.4319 230.622 83.3588 228.243 84.7315C225.865 86.1042 223.937 89.5905 223.937 92.5172V245.989C223.937 248.916 225.992 252.475 228.527 253.939L404.496 355.535C407.03 356.998 411.013 357.072 413.39 355.698Z" fill="#455A64"/>
<path d="M396.166 201.571L416.351 189.916C417.181 191.354 417.695 192.976 417.695 194.44L417.694 347.912C417.694 350.839 415.767 354.325 413.389 355.698C411.011 357.071 407.027 356.997 404.493 355.534L384.422 343.946L396.166 201.571Z" fill="#263238"/>
<path d="M409.086 199.413V352.885C409.086 355.812 407.031 356.999 404.496 355.535L228.528 253.94C225.993 252.477 223.938 248.917 223.938 245.99V92.5183C223.938 89.5916 225.993 88.4044 228.528 89.8683L404.496 191.463C407.031 192.927 409.086 196.486 409.086 199.413Z" fill="#37474F"/>
<path d="M404.496 360.835L275.889 435.085C273.355 436.549 269.244 436.549 266.709 435.085L90.7409 333.49C88.2054 332.026 88.2054 329.653 90.7409 328.19L219.346 253.94C221.881 252.476 225.992 252.476 228.526 253.94L404.496 355.535C407.03 356.998 407.03 359.372 404.496 360.835Z" fill="#455A64"/>
<path d="M402.025 199.98L230.995 101.236C229.474 100.359 228.242 101.07 228.242 102.826V235.68C228.242 237.437 229.474 239.573 230.995 240.45L402.025 339.191C403.547 340.069 404.779 339.358 404.779 337.601V204.75C404.779 202.993 403.547 200.858 402.025 199.98Z" fill="white"/>
<path d="M389.567 356.86L226.231 262.559C224.963 261.828 222.909 261.828 221.641 262.559L213.287 267.382C212.019 268.114 212.019 269.301 213.287 270.032L376.648 364.318C377.915 365.049 379.971 365.049 381.238 364.318L389.567 359.51C390.835 358.779 390.835 357.592 389.567 356.86Z" fill="#263238"/>
<path d="M368.037 369.29L204.702 274.988C203.435 274.257 201.38 274.257 200.113 274.988L148.727 304.656C147.459 305.388 147.459 306.575 148.727 307.306L311.875 401.479C313.143 402.21 315.199 402.213 316.469 401.486L368.033 371.933C369.302 371.205 369.305 370.022 368.037 369.29Z" fill="#263238"/>
<path d="M221.622 317.415L216.509 314.463C216.291 314.337 216.304 314.126 216.537 313.992L222.451 310.577C222.684 310.443 223.05 310.435 223.267 310.56L228.382 313.513C228.599 313.639 228.586 313.85 228.352 313.984L222.438 317.398C222.205 317.533 221.84 317.54 221.622 317.415ZM231.714 305.683L236.829 308.635C237.046 308.761 237.033 308.972 236.8 309.107L230.886 312.521C230.653 312.656 230.288 312.663 230.07 312.538L224.957 309.585C224.739 309.46 224.752 309.249 224.985 309.114L230.899 305.7C231.132 305.566 231.497 305.558 231.714 305.683ZM248.237 315.222L256.891 320.219C257.109 320.344 257.096 320.555 256.863 320.69L250.949 324.104C250.716 324.239 250.35 324.246 250.133 324.121L241.478 319.124C241.261 318.999 241.273 318.788 241.507 318.653L247.42 315.239C247.655 315.105 248.019 315.097 248.237 315.222ZM239.188 309.999L244.303 312.952C244.519 313.077 244.507 313.288 244.273 313.422L238.359 316.837C238.126 316.971 237.761 316.979 237.544 316.854L232.431 313.901C232.214 313.775 232.226 313.565 232.459 313.431L238.373 310.017C238.606 309.88 238.972 309.873 239.188 309.999ZM259.251 321.582L264.364 324.534C264.582 324.66 264.569 324.87 264.336 325.005L258.422 328.419C258.189 328.554 257.824 328.561 257.606 328.436L252.491 325.483C252.274 325.358 252.287 325.147 252.521 325.012L258.434 321.598C258.669 321.463 259.035 321.456 259.251 321.582ZM266.726 325.897L271.84 328.85C272.057 328.975 272.044 329.186 271.811 329.32L265.897 332.734C265.664 332.869 265.298 332.878 265.081 332.751L259.966 329.799C259.749 329.673 259.762 329.463 259.995 329.329L265.909 325.915C266.143 325.78 266.509 325.771 266.726 325.897ZM243.465 339.781L238.351 336.828C238.135 336.703 238.146 336.492 238.381 336.358L244.293 332.943C244.527 332.809 244.892 332.801 245.11 332.926L250.223 335.878C250.44 336.005 250.428 336.214 250.194 336.35L244.281 339.764C244.048 339.899 243.683 339.906 243.465 339.781ZM250.939 344.097L245.826 341.144C245.609 341.018 245.621 340.808 245.856 340.673L251.768 337.26C252.002 337.125 252.367 337.118 252.585 337.243L257.699 340.196C257.916 340.321 257.904 340.533 257.671 340.666L251.757 344.081C251.523 344.214 251.157 344.222 250.939 344.097ZM258.414 348.412L253.299 345.459C253.082 345.334 253.095 345.123 253.328 344.988L259.24 341.574C259.474 341.439 259.839 341.432 260.057 341.557L265.17 344.509C265.387 344.635 265.375 344.845 265.14 344.98L259.228 348.394C258.997 348.529 258.632 348.537 258.414 348.412ZM265.889 352.727L260.774 349.775C260.557 349.65 260.57 349.439 260.804 349.304L266.717 345.89C266.95 345.755 267.315 345.748 267.533 345.873L272.646 348.825C272.863 348.95 272.851 349.161 272.618 349.296L266.704 352.709C266.471 352.845 266.106 352.852 265.889 352.727ZM229.096 321.731L223.983 318.777C223.765 318.652 223.778 318.441 224.011 318.307L229.925 314.893C230.158 314.758 230.523 314.75 230.74 314.876L235.854 317.828C236.071 317.954 236.058 318.165 235.825 318.299L229.911 321.714C229.679 321.848 229.314 321.856 229.096 321.731ZM235.99 335.465L224.583 328.878C224.365 328.752 224.378 328.542 224.612 328.408L238.973 320.116C239.206 319.982 239.572 319.974 239.789 320.099L245.69 323.506C245.908 323.632 245.895 323.842 245.662 323.978L238.058 328.367C237.825 328.502 237.812 328.713 238.03 328.838L242.75 331.563C242.967 331.688 242.955 331.899 242.721 332.034L236.808 335.448C236.573 335.584 236.208 335.591 235.99 335.465ZM274.2 330.213L279.315 333.166C279.532 333.291 279.519 333.502 279.285 333.637L273.371 337.051C273.138 337.185 272.773 337.193 272.555 337.068L267.441 334.116C267.223 333.989 267.236 333.779 267.47 333.644L273.383 330.23C273.618 330.094 273.983 330.088 274.2 330.213ZM281.674 334.528L286.789 337.48C287.006 337.606 286.993 337.816 286.76 337.952L280.847 341.366C280.614 341.501 280.249 341.508 280.031 341.383L274.918 338.43C274.7 338.305 274.713 338.093 274.946 337.959L280.86 334.545C281.092 334.41 281.457 334.403 281.674 334.528ZM319.024 382.918C318.791 383.053 318.427 383.06 318.208 382.935L313.094 379.982C312.876 379.857 312.89 379.645 313.123 379.51L319.037 376.096C319.27 375.961 319.636 375.954 319.853 376.079L324.967 379.031C325.184 379.157 325.171 379.367 324.938 379.503L319.024 382.918ZM341.47 369.051L346.584 372.003C346.802 372.128 346.789 372.339 346.556 372.474L340.642 375.887C340.409 376.022 340.043 376.03 339.826 375.904L334.711 372.952C334.494 372.827 334.507 372.616 334.741 372.481L340.655 369.068C340.887 368.932 341.253 368.925 341.47 369.051ZM329.44 379.176C329.207 379.311 328.841 379.318 328.624 379.193L323.509 376.24C323.292 376.115 323.306 375.904 323.539 375.769L329.452 372.355C329.685 372.221 330.049 372.213 330.268 372.338L335.381 375.29C335.599 375.416 335.586 375.626 335.353 375.761L329.44 379.176ZM305.827 385.54L300.713 382.588C300.496 382.462 300.508 382.252 300.742 382.118L306.655 378.703C306.888 378.569 307.254 378.561 307.471 378.688L312.585 381.64C312.801 381.765 312.789 381.976 312.555 382.11L306.641 385.525C306.41 385.658 306.045 385.666 305.827 385.54ZM314.118 389.839C313.884 389.973 313.519 389.981 313.302 389.856L308.188 386.903C307.971 386.777 307.983 386.567 308.217 386.432L314.13 383.018C314.364 382.883 314.728 382.876 314.947 383.001L320.061 385.954C320.278 386.079 320.266 386.29 320.031 386.425L314.118 389.839ZM333.995 364.735L339.109 367.687C339.327 367.813 339.314 368.023 339.08 368.158L333.167 371.572C332.934 371.706 332.568 371.714 332.351 371.589L327.237 368.636C327.02 368.511 327.033 368.3 327.266 368.165L333.18 364.751C333.413 364.617 333.779 364.61 333.995 364.735ZM296.623 343.158L301.738 346.111C301.954 346.237 301.942 346.447 301.708 346.581L295.794 349.995C295.561 350.13 295.197 350.138 294.978 350.012L289.864 347.059C289.646 346.934 289.659 346.723 289.892 346.589L295.806 343.174C296.041 343.041 296.406 343.033 296.623 343.158ZM326.521 360.421L331.635 363.373C331.853 363.498 331.84 363.709 331.607 363.843L325.693 367.258C325.46 367.392 325.094 367.401 324.877 367.275L319.763 364.322C319.546 364.196 319.559 363.986 319.793 363.852L325.706 360.438C325.938 360.302 326.303 360.294 326.521 360.421ZM289.149 338.843L294.263 341.796C294.48 341.921 294.467 342.132 294.233 342.267L288.319 345.681C288.086 345.816 287.722 345.824 287.503 345.698L282.389 342.746C282.171 342.62 282.184 342.41 282.417 342.275L288.331 338.861C288.566 338.725 288.932 338.718 289.149 338.843ZM304.097 347.474L309.212 350.426C309.429 350.551 309.417 350.762 309.183 350.896L303.27 354.311C303.036 354.445 302.671 354.454 302.453 354.328L297.34 351.376C297.123 351.251 297.135 351.04 297.369 350.905L303.282 347.491C303.516 347.356 303.88 347.349 304.097 347.474ZM311.573 351.789L316.686 354.742C316.903 354.867 316.891 355.078 316.657 355.213L310.744 358.627C310.51 358.762 310.145 358.769 309.927 358.644L304.813 355.692C304.597 355.566 304.609 355.355 304.843 355.22L310.755 351.806C310.99 351.671 311.355 351.664 311.573 351.789ZM319.047 356.104L324.161 359.056C324.378 359.183 324.366 359.393 324.133 359.528L318.219 362.942C317.986 363.077 317.62 363.084 317.403 362.959L312.288 360.006C312.071 359.881 312.084 359.67 312.318 359.534L318.232 356.12C318.464 355.987 318.829 355.979 319.047 356.104ZM280.838 361.358L275.723 358.404C275.506 358.279 275.519 358.067 275.752 357.934L281.666 354.52C281.899 354.385 282.265 354.378 282.482 354.503L287.596 357.455C287.814 357.581 287.801 357.791 287.567 357.926L281.653 361.341C281.42 361.475 281.055 361.483 280.838 361.358ZM215.192 296.144L220.306 299.097C220.523 299.223 220.51 299.434 220.277 299.568L214.363 302.982C214.13 303.117 213.764 303.124 213.547 302.999L208.434 300.047C208.216 299.921 208.229 299.711 208.462 299.576L214.376 296.161C214.609 296.026 214.975 296.019 215.192 296.144ZM224.24 301.368L229.354 304.321C229.571 304.446 229.558 304.657 229.325 304.792L223.412 308.206C223.179 308.341 222.813 308.348 222.596 308.223L217.482 305.271C217.264 305.145 217.277 304.935 217.51 304.799L223.424 301.385C223.657 301.249 224.023 301.243 224.24 301.368ZM207.718 291.829L212.831 294.781C213.049 294.906 213.036 295.117 212.803 295.253L206.889 298.666C206.656 298.801 206.29 298.808 206.074 298.683L200.959 295.731C200.742 295.605 200.755 295.394 200.988 295.259L206.901 291.845C207.135 291.711 207.5 291.703 207.718 291.829ZM246.406 331.723L241.292 328.771C241.075 328.645 241.088 328.435 241.322 328.299L247.235 324.885C247.468 324.751 247.834 324.743 248.051 324.868L253.166 327.821C253.383 327.946 253.37 328.157 253.137 328.292L247.223 331.706C246.988 331.842 246.623 331.849 246.406 331.723ZM199.428 287.531C199.661 287.396 200.027 287.389 200.244 287.514L205.357 290.466C205.575 290.592 205.562 290.802 205.329 290.937L199.415 294.351C199.182 294.485 198.817 294.493 198.6 294.368L193.485 291.415C193.268 291.29 193.281 291.079 193.514 290.944L199.428 287.531ZM273.363 357.042L268.249 354.09C268.032 353.964 268.045 353.754 268.279 353.62L274.193 350.205C274.426 350.071 274.791 350.063 275.009 350.188L280.123 353.142C280.341 353.267 280.328 353.478 280.095 353.612L274.182 357.026C273.946 357.16 273.58 357.167 273.363 357.042ZM181.704 304.122L176.59 301.17C176.373 301.045 176.385 300.833 176.619 300.698L182.532 297.285C182.766 297.15 183.13 297.143 183.349 297.268L188.462 300.22C188.679 300.345 188.667 300.557 188.433 300.692L182.52 304.106C182.286 304.241 181.921 304.248 181.704 304.122ZM197.626 303.561L192.512 300.608C192.295 300.483 192.308 300.272 192.542 300.137L198.456 296.723C198.689 296.588 199.054 296.581 199.271 296.706L204.385 299.658C204.603 299.784 204.59 299.994 204.357 300.129L198.443 303.543C198.209 303.679 197.843 303.686 197.626 303.561ZM190.98 292.408C191.213 292.273 191.578 292.266 191.796 292.391L196.91 295.344C197.127 295.469 197.115 295.68 196.881 295.815L190.967 299.229C190.734 299.364 190.368 299.371 190.152 299.246L185.037 296.294C184.82 296.168 184.833 295.958 185.066 295.823L190.98 292.408ZM189.407 291.499L175.046 299.791C174.812 299.925 174.447 299.933 174.229 299.808L169.116 296.856C168.899 296.729 168.911 296.519 169.145 296.384L183.506 288.093C183.739 287.958 184.104 287.951 184.322 288.076L189.435 291.028C189.652 291.153 189.64 291.365 189.407 291.499ZM206.744 301.021L211.858 303.973C212.076 304.099 212.063 304.31 211.83 304.444L205.916 307.858C205.683 307.993 205.317 308.001 205.1 307.875L199.986 304.923C199.769 304.797 199.782 304.587 200.015 304.453L205.928 301.038C206.162 300.904 206.528 300.896 206.744 301.021ZM262.998 333.5L268.113 336.453C268.33 336.578 268.317 336.789 268.084 336.924L262.17 340.338C261.937 340.472 261.571 340.48 261.354 340.355L256.24 337.403C256.022 337.277 256.035 337.067 256.269 336.932L262.183 333.518C262.416 333.382 262.781 333.375 262.998 333.5ZM189.994 308.421C189.762 308.556 189.396 308.563 189.178 308.438L184.063 305.486C183.847 305.36 183.858 305.15 184.093 305.015L190.006 301.601C190.24 301.467 190.605 301.459 190.822 301.584L195.936 304.537C196.153 304.662 196.141 304.873 195.908 305.008L189.994 308.421ZM255.524 329.185L260.639 332.137C260.856 332.263 260.842 332.473 260.609 332.607L254.695 336.022C254.462 336.156 254.097 336.164 253.879 336.038L248.764 333.085C248.547 332.96 248.56 332.749 248.793 332.615L254.706 329.2C254.942 329.067 255.307 329.059 255.524 329.185ZM311.55 378.602C311.317 378.736 310.951 378.744 310.734 378.619L305.62 375.667C305.403 375.54 305.415 375.331 305.649 375.196L311.563 371.782C311.796 371.647 312.161 371.64 312.378 371.765L317.493 374.718C317.71 374.843 317.697 375.054 317.464 375.189L311.55 378.602ZM322.794 368.023L327.908 370.976C328.126 371.101 328.113 371.312 327.879 371.447L321.965 374.861C321.732 374.996 321.366 375.003 321.149 374.878L316.034 371.926C315.817 371.8 315.83 371.59 316.063 371.454L321.976 368.04C322.212 367.904 322.576 367.897 322.794 368.023ZM303.261 374.303L298.147 371.351C297.929 371.226 297.942 371.015 298.175 370.881L304.089 367.466C304.322 367.332 304.688 367.323 304.905 367.449L310.02 370.402C310.236 370.527 310.224 370.738 309.99 370.872L304.076 374.286C303.843 374.421 303.477 374.43 303.261 374.303ZM295.786 369.988L290.672 367.036C290.454 366.91 290.467 366.7 290.7 366.565L296.614 363.151C296.846 363.017 297.212 363.009 297.43 363.134L302.543 366.086C302.761 366.212 302.748 366.422 302.514 366.557L296.6 369.971C296.369 370.106 296.003 370.113 295.786 369.988ZM288.312 365.673L283.197 362.721C282.98 362.595 282.993 362.385 283.226 362.249L289.14 358.835C289.373 358.7 289.738 358.693 289.956 358.819L295.069 361.771C295.287 361.896 295.274 362.108 295.041 362.242L289.128 365.656C288.894 365.791 288.529 365.799 288.312 365.673ZM315.32 363.708L320.433 366.66C320.65 366.785 320.638 366.996 320.405 367.131L314.491 370.546C314.258 370.68 313.893 370.688 313.675 370.563L308.56 367.611C308.343 367.485 308.355 367.273 308.589 367.139L314.502 363.725C314.737 363.59 315.102 363.582 315.32 363.708ZM307.845 359.392L312.959 362.344C313.176 362.471 313.164 362.681 312.93 362.815L307.017 366.229C306.784 366.364 306.418 366.371 306.2 366.246L301.086 363.293C300.87 363.168 300.881 362.957 301.116 362.823L307.029 359.408C307.263 359.274 307.628 359.266 307.845 359.392ZM277.947 342.131L283.062 345.083C283.279 345.21 283.266 345.419 283.032 345.555L277.118 348.968C276.885 349.103 276.521 349.11 276.302 348.985L271.189 346.033C270.971 345.908 270.984 345.696 271.217 345.562L277.131 342.147C277.365 342.013 277.73 342.005 277.947 342.131ZM285.422 346.446L290.537 349.399C290.754 349.524 290.741 349.736 290.508 349.869L284.596 353.284C284.362 353.418 283.997 353.426 283.779 353.301L278.665 350.348C278.448 350.222 278.46 350.012 278.693 349.877L284.607 346.463C284.839 346.328 285.205 346.32 285.422 346.446ZM270.473 337.815L275.588 340.767C275.805 340.893 275.792 341.103 275.559 341.238L269.646 344.652C269.413 344.787 269.048 344.794 268.83 344.669L263.716 341.716C263.498 341.591 263.511 341.38 263.745 341.245L269.659 337.831C269.89 337.697 270.256 337.69 270.473 337.815ZM300.37 355.076L305.485 358.029C305.702 358.154 305.69 358.365 305.456 358.5L299.543 361.914C299.309 362.049 298.945 362.056 298.726 361.931L293.612 358.979C293.395 358.853 293.407 358.643 293.641 358.508L299.554 355.095C299.788 354.959 300.153 354.951 300.37 355.076ZM292.896 350.762L298.011 353.714C298.228 353.84 298.216 354.05 297.981 354.185L292.068 357.599C291.834 357.733 291.47 357.741 291.252 357.616L286.139 354.663C285.922 354.538 285.934 354.327 286.168 354.192L292.081 350.778C292.313 350.643 292.679 350.636 292.896 350.762ZM298.353 381.225L293.24 378.272C293.023 378.147 293.035 377.936 293.268 377.801L299.182 374.387C299.415 374.253 299.78 374.245 299.998 374.37L305.112 377.322C305.329 377.448 305.316 377.658 305.083 377.794L299.171 381.208C298.935 381.343 298.571 381.35 298.353 381.225ZM342.214 376.797L348.128 373.382C348.361 373.248 348.726 373.24 348.944 373.365L354.057 376.318C354.275 376.444 354.262 376.655 354.029 376.789L348.115 380.203C347.882 380.338 347.516 380.345 347.299 380.22L342.185 377.268C341.968 377.142 341.982 376.931 342.214 376.797ZM331.013 380.085L336.927 376.67C337.16 376.536 337.525 376.527 337.743 376.653L345.61 381.196C345.828 381.321 345.815 381.532 345.581 381.666L339.667 385.079C339.434 385.214 339.069 385.222 338.851 385.096L330.983 380.554C330.767 380.429 330.78 380.219 331.013 380.085ZM351.288 370.196L357.201 366.783C357.435 366.648 357.799 366.64 358.018 366.766L364.312 370.399C364.529 370.525 364.516 370.737 364.283 370.87L358.371 374.284C358.137 374.419 357.772 374.426 357.554 374.301L351.26 370.668C351.041 370.541 351.054 370.331 351.288 370.196ZM346.461 367.41C346.228 367.545 345.864 367.552 345.646 367.427L340.533 364.474C340.316 364.349 340.328 364.138 340.561 364.003L346.475 360.589C346.708 360.454 347.074 360.447 347.291 360.572L352.405 363.524C352.622 363.65 352.609 363.86 352.376 363.995L346.461 367.41ZM320.598 383.825L326.512 380.411C326.745 380.277 327.111 380.269 327.328 380.395L337.163 386.073C337.38 386.199 337.368 386.409 337.133 386.543L331.221 389.957C330.988 390.092 330.623 390.1 330.405 389.974L320.57 384.296C320.353 384.171 320.365 383.961 320.598 383.825ZM315.691 390.747L321.604 387.333C321.837 387.198 322.202 387.19 322.42 387.316L328.714 390.95C328.931 391.075 328.918 391.287 328.685 391.42L322.771 394.835C322.538 394.969 322.173 394.977 321.955 394.851L315.661 391.218C315.445 391.093 315.459 390.882 315.691 390.747ZM290.889 335.325C290.656 335.46 290.291 335.467 290.074 335.342L284.96 332.389C284.743 332.264 284.756 332.053 284.989 331.918L290.903 328.504C291.136 328.369 291.501 328.362 291.719 328.487L296.832 331.439C297.05 331.565 297.037 331.775 296.804 331.91L290.889 335.325ZM305.838 343.956C305.605 344.09 305.239 344.098 305.022 343.973L299.907 341.019C299.69 340.894 299.703 340.683 299.937 340.549L305.851 337.135C306.084 337 306.449 336.992 306.667 337.118L311.781 340.07C311.999 340.196 311.986 340.406 311.753 340.541L305.838 343.956ZM338.987 363.094C338.754 363.229 338.388 363.237 338.171 363.111L333.057 360.159C332.839 360.034 332.852 359.823 333.085 359.688L338.999 356.274C339.232 356.139 339.597 356.132 339.815 356.257L344.93 359.209C345.147 359.334 345.134 359.545 344.901 359.68L338.987 363.094ZM298.364 339.64C298.131 339.775 297.765 339.783 297.548 339.657L292.433 336.705C292.216 336.58 292.23 336.369 292.463 336.235L298.376 332.82C298.609 332.686 298.973 332.678 299.192 332.803L304.305 335.755C304.523 335.881 304.51 336.091 304.277 336.226L298.364 339.64ZM313.312 348.271C313.079 348.405 312.713 348.413 312.496 348.287L307.382 345.335C307.165 345.21 307.178 344.998 307.411 344.863L313.324 341.449C313.557 341.314 313.923 341.307 314.14 341.432L319.254 344.384C319.472 344.51 319.459 344.721 319.225 344.856L313.312 348.271ZM311.583 391.303C311.816 391.168 312.182 391.16 312.399 391.286L320.267 395.828C320.484 395.953 320.471 396.164 320.238 396.298L314.324 399.713C314.091 399.847 313.726 399.856 313.508 399.73L305.641 395.188C305.424 395.062 305.436 394.852 305.67 394.717L311.583 391.303ZM324.039 354.463C323.806 354.598 323.441 354.605 323.223 354.48L318.109 351.528C317.891 351.402 317.904 351.192 318.137 351.057L324.051 347.642C324.284 347.508 324.65 347.5 324.867 347.625L329.982 350.578C330.199 350.704 330.186 350.914 329.953 351.049L324.039 354.463ZM331.513 358.78C331.28 358.914 330.914 358.922 330.697 358.797L325.584 355.844C325.366 355.718 325.379 355.507 325.612 355.373L331.526 351.959C331.759 351.824 332.125 351.817 332.342 351.942L337.457 354.894C337.674 355.02 337.661 355.23 337.427 355.364L331.513 358.78ZM173.111 311.355C173.344 311.221 173.709 311.213 173.927 311.338L186.515 318.607C186.732 318.732 186.719 318.943 186.486 319.078L180.572 322.493C180.34 322.627 179.975 322.635 179.756 322.51L167.169 315.241C166.951 315.116 166.964 314.905 167.197 314.771L173.111 311.355ZM189.633 320.894C189.867 320.76 190.231 320.752 190.45 320.877L195.564 323.829C195.781 323.956 195.769 324.165 195.535 324.301L189.623 327.715C189.39 327.85 189.024 327.857 188.807 327.731L183.693 324.779C183.476 324.654 183.489 324.443 183.723 324.309L189.633 320.894ZM290.878 376.91L285.764 373.958C285.546 373.832 285.559 373.621 285.793 373.486L291.707 370.072C291.94 369.937 292.305 369.93 292.523 370.055L297.637 373.008C297.854 373.133 297.841 373.344 297.608 373.479L291.694 376.893C291.461 377.028 291.095 377.035 290.878 376.91ZM204.581 329.525C204.815 329.39 205.18 329.383 205.398 329.508L210.512 332.46C210.729 332.586 210.717 332.797 210.482 332.932L204.57 336.346C204.337 336.48 203.971 336.488 203.754 336.363L198.639 333.41C198.422 333.285 198.435 333.074 198.668 332.939L204.581 329.525ZM165.636 307.039C165.869 306.904 166.235 306.897 166.452 307.022L171.567 309.975C171.783 310.1 171.771 310.311 171.537 310.446L165.623 313.86C165.39 313.995 165.024 314.002 164.807 313.877L159.693 310.925C159.475 310.799 159.488 310.589 159.721 310.454L165.636 307.039ZM152.248 306.139L166.61 297.847C166.843 297.712 167.208 297.705 167.426 297.83L172.541 300.783C172.758 300.908 172.745 301.119 172.512 301.254L158.151 309.546C157.918 309.681 157.554 309.688 157.335 309.563L152.221 306.61C152.002 306.485 152.015 306.273 152.248 306.139ZM232.512 345.651C232.746 345.516 233.111 345.509 233.328 345.634L239.622 349.267C239.839 349.392 239.826 349.604 239.593 349.739L233.68 353.152C233.446 353.287 233.081 353.294 232.863 353.169L226.569 349.535C226.352 349.41 226.364 349.198 226.598 349.065L232.512 345.651ZM213.63 334.748C213.863 334.614 214.229 334.606 214.446 334.732L222.314 339.275C222.532 339.4 222.519 339.611 222.286 339.745L216.372 343.16C216.139 343.294 215.773 343.302 215.556 343.176L207.688 338.634C207.471 338.509 207.484 338.298 207.718 338.164L213.63 334.748ZM249.821 355.643C250.054 355.509 250.42 355.501 250.637 355.626L292.73 379.929C292.947 380.054 292.935 380.265 292.701 380.399L286.788 383.814C286.554 383.948 286.19 383.957 285.971 383.831L243.879 359.529C243.662 359.403 243.674 359.192 243.907 359.057L249.821 355.643ZM294.274 381.309C294.508 381.174 294.873 381.167 295.091 381.292L301.385 384.926C301.602 385.051 301.589 385.262 301.355 385.397L295.441 388.812C295.208 388.946 294.843 388.954 294.625 388.828L288.331 385.194C288.115 385.069 288.126 384.858 288.361 384.723L294.274 381.309ZM241.167 350.647C241.401 350.513 241.766 350.505 241.984 350.63L248.278 354.264C248.495 354.39 248.482 354.6 248.249 354.735L242.336 358.149C242.102 358.285 241.737 358.292 241.519 358.166L235.225 354.531C235.008 354.406 235.02 354.195 235.255 354.061L241.167 350.647ZM302.929 386.305C303.163 386.17 303.527 386.163 303.746 386.288L310.04 389.921C310.257 390.048 310.243 390.257 310.01 390.392L304.097 393.806C303.864 393.941 303.5 393.948 303.281 393.823L296.987 390.19C296.77 390.063 296.782 389.854 297.016 389.718L302.929 386.305ZM223.858 340.654C224.091 340.519 224.455 340.511 224.674 340.637L230.968 344.27C231.184 344.396 231.172 344.606 230.938 344.741L225.025 348.155C224.791 348.29 224.426 348.297 224.21 348.172L217.915 344.539C217.698 344.414 217.711 344.203 217.945 344.068L223.858 340.654ZM197.107 325.21C197.341 325.075 197.706 325.067 197.924 325.193L203.037 328.146C203.254 328.271 203.242 328.482 203.007 328.616L197.094 332.031C196.86 332.165 196.496 332.173 196.277 332.048L191.164 329.095C190.947 328.969 190.959 328.759 191.193 328.624L197.107 325.21ZM180.73 313.315L175.617 310.363C175.4 310.237 175.412 310.026 175.646 309.891L181.559 306.478C181.793 306.344 182.157 306.336 182.376 306.461L187.49 309.413C187.706 309.538 187.695 309.749 187.46 309.885L181.547 313.299C181.312 313.433 180.947 313.44 180.73 313.315ZM214.148 313.1L209.035 310.148C208.817 310.023 208.83 309.812 209.063 309.677L214.977 306.263C215.21 306.128 215.576 306.12 215.793 306.246L220.907 309.198C221.124 309.324 221.111 309.534 220.877 309.669L214.964 313.083C214.731 313.218 214.365 313.225 214.148 313.1ZM231.084 342.387L216.134 333.756C215.917 333.631 215.93 333.42 216.164 333.286L222.077 329.871C222.31 329.737 222.676 329.729 222.893 329.854L237.842 338.485C238.059 338.61 238.047 338.821 237.814 338.956L231.9 342.369C231.666 342.504 231.301 342.513 231.084 342.387ZM189.02 317.614C188.786 317.748 188.421 317.756 188.204 317.63L183.09 314.678C182.873 314.552 182.885 314.342 183.119 314.207L189.032 310.792C189.266 310.658 189.63 310.65 189.847 310.775L194.962 313.729C195.179 313.854 195.165 314.065 194.933 314.199L189.02 317.614ZM196.653 312.753L191.538 309.8C191.322 309.675 191.334 309.464 191.568 309.33L197.482 305.915C197.715 305.781 198.081 305.773 198.298 305.898L203.411 308.851C203.629 308.977 203.616 309.187 203.383 309.321L197.469 312.735C197.235 312.871 196.869 312.879 196.653 312.753ZM238.559 346.702L233.444 343.749C233.227 343.624 233.24 343.413 233.473 343.278L239.387 339.864C239.62 339.729 239.985 339.722 240.203 339.847L245.317 342.8C245.535 342.925 245.522 343.136 245.288 343.271L239.375 346.685C239.141 346.82 238.776 346.828 238.559 346.702ZM205.543 327.154C205.31 327.288 204.944 327.296 204.727 327.17L199.613 324.217C199.396 324.092 199.409 323.881 199.642 323.747L205.556 320.332C205.789 320.198 206.153 320.19 206.372 320.315L211.486 323.268C211.704 323.394 211.691 323.604 211.458 323.738L205.543 327.154ZM275.93 368.279L270.817 365.326C270.599 365.201 270.612 364.99 270.845 364.856L276.759 361.441C276.992 361.307 277.357 361.299 277.575 361.424L282.689 364.378C282.906 364.503 282.893 364.714 282.66 364.848L276.746 368.262C276.512 368.397 276.147 368.405 275.93 368.279ZM268.456 363.963L263.342 361.011C263.124 360.885 263.137 360.675 263.371 360.54L269.285 357.126C269.518 356.991 269.883 356.984 270.1 357.11L275.215 360.062C275.432 360.187 275.419 360.398 275.186 360.533L269.272 363.947C269.038 364.082 268.672 364.089 268.456 363.963ZM283.404 372.594L278.29 369.642C278.072 369.516 278.085 369.306 278.318 369.171L284.232 365.758C284.465 365.623 284.831 365.615 285.048 365.741L290.162 368.693C290.379 368.818 290.366 369.029 290.133 369.163L284.219 372.578C283.986 372.712 283.621 372.72 283.404 372.594ZM253.507 355.333L248.393 352.38C248.176 352.254 248.189 352.043 248.422 351.909L254.336 348.495C254.569 348.36 254.935 348.352 255.152 348.478L260.266 351.431C260.484 351.556 260.471 351.767 260.238 351.901L254.325 355.316C254.09 355.451 253.724 355.459 253.507 355.333ZM260.981 359.648L255.867 356.696C255.65 356.571 255.663 356.36 255.896 356.225L261.81 352.811C262.043 352.676 262.409 352.669 262.626 352.794L267.741 355.746C267.958 355.872 267.945 356.083 267.711 356.218L261.797 359.632C261.564 359.767 261.198 359.774 260.981 359.648ZM246.033 351.017L240.918 348.065C240.701 347.94 240.714 347.729 240.947 347.595L246.861 344.18C247.094 344.046 247.46 344.037 247.677 344.163L252.791 347.115C253.009 347.241 252.996 347.451 252.762 347.586L246.848 351C246.615 351.136 246.25 351.143 246.033 351.017ZM211.837 287.179C211.604 287.313 211.238 287.321 211.021 287.196L205.906 284.243C205.689 284.118 205.702 283.907 205.935 283.772L207.509 282.863C207.742 282.728 208.108 282.72 208.325 282.846L213.439 285.799C213.655 285.924 213.643 286.135 213.409 286.269L211.837 287.179ZM248.613 310.916C248.38 311.051 248.015 311.06 247.797 310.933L242.682 307.981C242.465 307.856 242.478 307.645 242.711 307.511L248.624 304.097C248.858 303.962 249.223 303.954 249.441 304.081L254.555 307.034C254.772 307.159 254.76 307.37 254.527 307.504L248.613 310.916ZM233.664 302.286C233.43 302.421 233.065 302.428 232.848 302.303L227.734 299.351C227.517 299.225 227.529 299.015 227.763 298.879L233.676 295.465C233.91 295.33 234.275 295.323 234.493 295.448L239.607 298.401C239.823 298.526 239.812 298.738 239.577 298.872L233.664 302.286ZM257.739 316.186C257.506 316.32 257.142 316.328 256.923 316.203L251.809 313.251C251.591 313.126 251.604 312.915 251.838 312.78L257.751 309.366C257.984 309.231 258.35 309.224 258.567 309.35L263.682 312.302C263.899 312.427 263.886 312.638 263.653 312.774L257.739 316.186ZM241.139 306.601C240.906 306.736 240.54 306.743 240.323 306.618L235.209 303.665C234.993 303.54 235.005 303.329 235.239 303.194L241.153 299.78C241.386 299.645 241.751 299.638 241.968 299.763L247.081 302.715C247.298 302.841 247.286 303.051 247.052 303.186L241.139 306.601ZM272.689 324.817C272.455 324.952 272.091 324.959 271.872 324.833L266.759 321.881C266.542 321.756 266.554 321.545 266.788 321.409L272.701 317.996C272.935 317.862 273.3 317.854 273.518 317.979L278.632 320.931C278.849 321.057 278.836 321.267 278.602 321.403L272.689 324.817ZM265.215 320.502C264.981 320.637 264.616 320.644 264.398 320.519L259.284 317.566C259.067 317.441 259.079 317.23 259.314 317.095L265.226 313.681C265.459 313.546 265.825 313.539 266.042 313.664L271.156 316.616C271.373 316.742 271.36 316.952 271.127 317.088L265.215 320.502ZM226.786 295.809C226.553 295.944 226.187 295.951 225.97 295.826L220.856 292.873C220.638 292.748 220.651 292.537 220.884 292.403L222.458 291.494C222.692 291.359 223.057 291.352 223.274 291.477L228.388 294.43C228.605 294.555 228.593 294.766 228.359 294.901L226.786 295.809ZM204.363 282.864C204.13 282.998 203.764 283.006 203.547 282.881L198.432 279.928C198.215 279.802 198.228 279.592 198.462 279.458L200.036 278.548C200.269 278.414 200.634 278.406 200.852 278.532L205.967 281.485C206.184 281.61 206.171 281.822 205.937 281.956L204.363 282.864ZM191.941 290.036C191.708 290.17 191.342 290.178 191.125 290.052L186.011 287.1C185.794 286.974 185.807 286.764 186.04 286.63L191.954 283.216C192.187 283.081 192.553 283.073 192.77 283.199L197.884 286.152C198.102 286.277 198.089 286.488 197.856 286.622L191.941 290.036ZM173.255 309L168.141 306.047C167.923 305.922 167.936 305.711 168.169 305.576L174.083 302.162C174.316 302.027 174.682 302.02 174.899 302.145L180.013 305.097C180.23 305.223 180.217 305.433 179.983 305.568L174.07 308.982C173.838 309.118 173.474 309.125 173.255 309ZM219.311 291.494C219.078 291.629 218.713 291.637 218.495 291.511L213.381 288.559C213.163 288.434 213.176 288.223 213.409 288.088L214.983 287.18C215.216 287.045 215.582 287.037 215.799 287.163L220.914 290.115C221.13 290.241 221.119 290.451 220.884 290.586L219.311 291.494ZM280.163 329.133C279.929 329.267 279.564 329.275 279.346 329.15L274.232 326.197C274.015 326.071 274.027 325.861 274.261 325.727L280.174 322.313C280.408 322.178 280.773 322.17 280.991 322.296L286.105 325.249C286.321 325.374 286.31 325.585 286.075 325.719L280.163 329.133Z" fill="#455A64"/>
<path d="M249.77 375.586L193.795 343.27L159.348 363.157L215.324 395.473L249.77 375.586Z" fill="#263238"/>
<path d="M374.143 212.727L207.351 116.431C204.089 114.547 201.42 116.088 201.42 119.855V249.04C201.42 250.789 202.659 252.936 204.174 253.81L375.205 352.551C376.72 353.426 377.959 352.71 377.959 350.961V219.337C377.959 216.913 376.242 213.938 374.143 212.727Z" fill="#F5F5F5"/>
<path d="M201.422 122.949V119.855C201.422 116.088 204.091 114.547 207.353 116.431L374.145 212.727C376.244 213.938 377.961 216.913 377.961 219.336V224.872L201.422 122.949Z" fill="#014B79"/>
<path d="M226.293 130.002C227.421 130.653 228.336 132.238 228.336 133.539C228.336 134.842 227.421 135.37 226.293 134.718C225.165 134.067 224.251 132.483 224.251 131.181C224.251 129.878 225.165 129.35 226.293 130.002Z" fill="white"/>
<path d="M218.188 125.322C219.316 125.973 220.23 127.557 220.23 128.859C220.23 130.162 219.316 130.69 218.188 130.039C217.06 129.387 216.145 127.803 216.145 126.5C216.145 125.199 217.06 124.671 218.188 125.322Z" fill="white"/>
<path d="M210.08 120.642C211.208 121.294 212.123 122.878 212.123 124.18C212.123 125.483 211.208 126.011 210.08 125.359C208.953 124.708 208.038 123.123 208.038 121.821C208.039 120.519 208.953 119.991 210.08 120.642Z" fill="white"/>
<path d="M336.806 288.115L343.295 284.368L359.191 311.9L352.702 315.646L336.806 288.115Z" fill="#37474F"/>
<path d="M336.802 288.116L340.047 286.242L355.943 313.774L352.698 315.647L336.802 288.116Z" fill="#263238"/>
<path d="M376.613 365.671C379.574 370.805 393.557 362.646 390.634 357.576L354.115 300.624C353.91 300.304 353.489 300.202 353.161 300.392L345.826 304.626C345.498 304.816 345.376 305.23 345.551 305.567L376.613 365.671Z" fill="#014B79"/>
<path opacity="0.1" d="M376.614 365.672L345.552 305.57C345.378 305.233 345.499 304.818 345.828 304.628L349.167 302.7L384.797 365.998C381.535 367.593 377.95 367.991 376.614 365.672Z" fill="black"/>
<path d="M269.274 231.584C269.285 231.149 269.306 230.725 269.338 230.301C269.359 229.877 269.391 229.464 269.433 229.05C269.454 228.775 269.486 228.499 269.518 228.224C269.592 227.503 269.698 226.793 269.815 226.114C269.868 225.807 269.921 225.489 269.984 225.181C270.037 224.884 270.101 224.598 270.164 224.312C270.345 223.528 270.535 222.764 270.758 222.033C270.875 221.683 270.981 221.333 271.097 220.994C271.118 220.941 271.14 220.888 271.15 220.835C271.277 220.496 271.394 220.167 271.521 219.849C271.67 219.478 271.818 219.108 271.988 218.758C272.104 218.493 272.221 218.238 272.359 217.984C272.433 217.793 272.528 217.613 272.634 217.433C272.74 217.21 272.857 216.988 272.984 216.776C273.016 216.723 273.037 216.67 273.069 216.627C273.175 216.436 273.291 216.245 273.408 216.055C273.482 215.927 273.567 215.811 273.641 215.694C274.203 214.814 274.807 214.009 275.464 213.267C275.581 213.14 275.698 213.013 275.804 212.885C275.899 212.779 275.994 212.684 276.09 212.589C276.206 212.461 276.334 212.345 276.461 212.218C276.821 211.857 277.182 211.528 277.563 211.232C277.743 211.073 277.934 210.924 278.125 210.786C278.316 210.638 278.507 210.5 278.708 210.363C279.015 210.14 279.333 209.928 279.651 209.748C279.736 209.695 279.821 209.642 279.906 209.589L279.959 209.546C279.969 209.546 279.969 209.546 279.969 209.546L294.99 200.876C295 200.876 295 200.876 295.011 200.876L295.096 200.823C297.852 199.254 301.032 198.438 304.53 198.438C309.448 198.438 315.002 200.049 320.885 203.441C341.089 215.111 357.477 243.488 357.477 266.829C357.477 278.468 353.406 286.651 346.824 290.488L346.76 290.52C346.76 290.52 346.76 290.52 346.76 290.53L331.729 299.19C331.729 299.201 331.729 299.201 331.719 299.201L331.655 299.244V299.233C331.591 299.265 331.538 299.297 331.475 299.328C331.189 299.498 330.902 299.646 330.606 299.784C330.245 299.964 329.874 300.123 329.503 300.272C329.175 300.41 328.835 300.537 328.496 300.643C328.316 300.706 328.136 300.759 327.956 300.802C327.765 300.876 327.574 300.929 327.373 300.971C327.171 301.035 326.98 301.077 326.779 301.12C326.631 301.162 326.493 301.194 326.344 301.215C326.09 301.268 325.814 301.321 325.549 301.353C325.486 301.374 325.433 301.385 325.369 301.385C325.051 301.438 324.733 301.48 324.415 301.512C318.967 302.084 312.628 300.547 305.844 296.636C285.63 284.965 269.242 256.578 269.242 233.248C269.242 232.686 269.253 232.135 269.274 231.584ZM293.791 215.079C292.826 218.365 292.635 221.758 292.635 223.984C292.635 244.569 307.698 270.655 325.527 280.948C328.421 282.612 331.241 283.789 333.869 284.414C334.823 281.128 335.025 277.736 335.025 275.5C335.025 254.914 319.962 228.828 302.133 218.535C299.24 216.871 296.421 215.705 293.791 215.079Z" fill="#014B79"/>
<path opacity="0.1" d="M332.238 298.903L346.826 290.483C353.408 286.635 357.479 278.452 357.479 266.834C357.479 256.425 354.214 245.02 348.818 234.547L333.79 243.213C339.196 253.686 342.45 265.092 342.45 275.501C342.45 286.885 338.577 294.959 332.238 298.903Z" fill="black"/>
<path opacity="0.4" d="M269.275 231.584C269.286 231.149 269.307 230.725 269.339 230.301C269.36 229.877 269.392 229.464 269.434 229.051C269.456 228.775 269.487 228.499 269.519 228.224C269.593 227.503 269.699 226.793 269.816 226.114C269.869 225.807 269.922 225.489 269.986 225.182C270.039 224.885 270.102 224.599 270.166 224.312C270.346 223.528 270.537 222.765 270.759 222.033C270.876 221.684 270.982 221.334 271.099 220.995C271.12 220.942 271.141 220.889 271.152 220.836C271.279 220.496 271.395 220.168 271.523 219.85C271.671 219.479 271.819 219.108 271.989 218.758C272.106 218.493 272.222 218.239 272.36 217.984C272.434 217.793 272.53 217.613 272.636 217.433C272.742 217.21 272.858 216.988 272.985 216.776C273.017 216.723 273.038 216.67 273.07 216.627C273.176 216.437 273.293 216.246 273.409 216.055C273.484 215.928 273.568 215.811 273.643 215.695C274.204 214.815 274.809 214.009 275.466 213.267C275.582 213.14 275.699 213.013 275.805 212.886C275.9 212.78 275.996 212.684 276.091 212.589C276.208 212.462 276.335 212.345 276.462 212.218C276.823 211.857 277.183 211.529 277.565 211.232C277.745 211.073 277.936 210.925 278.126 210.787C278.317 210.638 278.508 210.501 278.709 210.363C279.017 210.14 279.335 209.928 279.653 209.748C286.299 205.709 295.585 206.186 305.845 212.112C326.06 223.782 342.447 252.159 342.447 275.5C342.447 287.319 338.25 295.576 331.476 299.329C331.19 299.498 330.904 299.647 330.607 299.784C330.247 299.965 329.876 300.124 329.505 300.272C329.176 300.41 328.837 300.537 328.498 300.643C328.317 300.707 328.137 300.76 327.957 300.802C327.766 300.876 327.575 300.929 327.374 300.972C327.173 301.035 326.982 301.078 326.78 301.12C326.632 301.162 326.494 301.194 326.346 301.215C326.091 301.268 325.816 301.321 325.551 301.353C325.487 301.374 325.434 301.385 325.371 301.385C325.053 301.438 324.735 301.48 324.417 301.512C318.968 302.085 312.629 300.548 305.845 296.636C285.631 284.966 269.244 256.579 269.244 233.248C269.244 232.686 269.254 232.135 269.275 231.584ZM309.555 290.213C314.092 292.831 318.459 294.209 322.191 294.209C329.197 294.209 332.42 289.428 333.872 284.414C334.826 281.128 335.027 277.736 335.027 275.5C335.027 254.915 319.965 228.828 302.135 218.535C299.242 216.871 296.422 215.705 293.793 215.08C292.288 214.719 290.857 214.539 289.5 214.539C277.914 214.539 276.674 227.62 276.674 233.248C276.674 253.833 291.726 279.92 309.555 290.213Z" fill="white"/>
<path opacity="0.1" d="M276.674 233.248C276.674 253.833 291.726 279.92 309.555 290.212C314.092 292.831 318.459 294.209 322.19 294.209C329.197 294.209 332.419 289.428 333.871 284.414C331.243 283.789 328.423 282.612 325.529 280.948C307.7 270.655 292.637 244.569 292.637 223.984C292.637 221.758 292.828 218.366 293.793 215.08C292.288 214.719 290.857 214.539 289.5 214.539C277.914 214.539 276.674 227.619 276.674 233.248Z" fill="black"/>
<path opacity="0.7" d="M283.077 229.655C283.077 250.24 298.129 276.326 315.958 286.619C320.495 289.237 324.862 290.615 328.593 290.615C329.378 290.615 330.12 290.552 330.809 290.435C332.271 288.718 333.236 286.598 333.872 284.414C334.826 281.128 335.027 277.736 335.027 275.5C335.027 254.914 319.965 228.828 302.136 218.535C299.242 216.871 296.422 215.705 293.793 215.08C292.288 214.719 290.857 214.539 289.5 214.539C288.705 214.539 287.974 214.603 287.274 214.719C283.617 219.033 283.077 225.955 283.077 229.655Z" fill="white"/>
<path d="M257.398 208.189V231.657C257.398 233.413 256.166 234.126 254.645 233.247L100.84 144.448C99.3185 143.57 98.0857 141.434 98.0857 139.678L98.0868 116.208C98.0868 114.452 99.3196 113.74 100.841 114.618L254.645 203.419C256.165 204.296 257.398 206.432 257.398 208.189Z" fill="#E6E6E6"/>
<path d="M254.643 203.419L227.252 187.604L227.255 217.436L254.643 233.248C256.164 234.126 257.396 233.415 257.396 231.658V208.19C257.398 206.432 256.164 204.296 254.643 203.419Z" fill="#014B79"/>
<path d="M236.314 200.628C238.047 199.628 240.233 199.788 242.471 201.081C246.539 203.428 249.725 208.948 249.725 213.645C249.725 215.522 249.215 217.072 248.274 218.166L251.189 223.212C251.628 223.972 251.368 224.945 250.607 225.384C250.357 225.529 250.083 225.598 249.813 225.598C249.264 225.598 248.73 225.313 248.435 224.802L245.52 219.755C245.209 219.813 244.892 219.853 244.564 219.853C243.401 219.853 242.149 219.484 240.881 218.752C236.813 216.404 233.627 210.886 233.627 206.189C233.627 203.603 234.581 201.629 236.314 200.628ZM242.471 215.997C243.665 216.686 244.752 216.852 245.448 216.448C246.146 216.047 246.545 215.024 246.545 213.645C246.545 210.1 243.951 205.607 240.881 203.834C240.115 203.392 239.395 203.167 238.793 203.167C238.455 203.167 238.155 203.238 237.904 203.383C237.207 203.786 236.807 204.808 236.807 206.188C236.807 209.732 239.4 214.225 242.471 215.997Z" fill="white"/>
</svg>
