<svg width="1081" height="1080" viewBox="0 0 1081 1080" fill="none" xmlns="http://www.w3.org/2000/svg">
<rect width="1080" height="1080" transform="translate(0.5)" fill="white"/>
<path d="M183.555 655.945C232.365 611.075 280.895 567.775 331.835 525.405C357.845 504.175 384.515 483.825 413.775 466.645C539.025 394.925 697.445 383.565 831.195 437.625C854.025 447.075 877.605 458.435 897.445 472.135C858.455 458.495 819.465 448.465 779.135 442.675C669.105 426.785 554.135 441.995 454.315 490.565C418.425 507.925 386.335 530.095 352.545 553.055C298.405 589.765 242.805 628.375 183.565 655.935L183.555 655.945Z" fill="black"/>
<path d="M862.535 480.975C874.405 484.335 887.745 489.545 891.695 501.235C895.635 512.915 888.035 525.385 879.005 533.795C856.345 554.895 823.905 562.665 792.935 562.155C761.975 561.645 731.685 553.755 701.395 547.365C655.495 537.685 608.885 531.375 562.075 528.465C538.665 527.015 515.205 526.405 491.755 526.665C477.605 526.815 454.945 526.735 420.675 536.045C468.015 505.785 506.545 492.745 523.515 487.335C544.035 480.795 564.925 475.395 586.035 471.125C629.025 462.435 672.975 458.495 716.835 459.405C766.055 460.425 815.165 467.565 862.545 480.985L862.535 480.975Z" fill="#008CFF"/>
<path d="M807.855 596.875C819.645 600.495 833.065 605.445 837.015 617.135C840.955 628.815 833.355 641.285 824.325 649.695C801.665 670.795 747.165 676.725 716.205 676.215C685.245 675.705 584.255 650.895 553.955 644.515C508.055 634.835 461.445 628.525 414.635 625.615C391.225 624.165 367.765 623.555 344.315 623.815C330.165 623.965 307.505 623.885 273.235 633.195C320.575 602.935 341.985 578.765 390.815 559.825C476.175 526.715 652.095 549.055 807.865 596.895L807.855 596.875Z" fill="#008CFF"/>
</svg>
