<svg width="715" height="274" viewBox="0 0 715 274" fill="none" xmlns="http://www.w3.org/2000/svg">
<path d="M0.554993 252.945C49.365 208.075 97.895 164.775 148.835 122.405C174.845 101.175 201.515 80.8252 230.775 63.6452C356.025 -8.07478 514.445 -19.4348 648.195 34.6252C671.025 44.0752 694.605 55.4352 714.445 69.1352C675.455 55.4952 636.465 45.4652 596.135 39.6752C486.105 23.7852 371.135 38.9952 271.315 87.5652C235.425 104.925 203.335 127.095 169.545 150.055C115.405 186.765 59.805 225.375 0.564987 252.935L0.554993 252.945Z" fill="black"/>
<path d="M679.535 77.9752C691.405 81.3352 704.745 86.5452 708.695 98.2352C712.635 109.915 705.035 122.385 696.005 130.795C673.345 151.895 640.905 159.665 609.935 159.155C578.975 158.645 548.685 150.755 518.395 144.365C472.495 134.685 425.885 128.375 379.075 125.465C355.665 124.015 332.205 123.405 308.755 123.665C294.605 123.815 271.945 123.735 237.675 133.045C285.015 102.785 323.545 89.7452 340.515 84.3352C361.035 77.7952 381.925 72.3952 403.035 68.1252C446.025 59.4352 489.975 55.4952 533.835 56.4052C583.055 57.4252 632.165 64.5652 679.545 77.9852L679.535 77.9752Z" fill="#008CFF"/>
<path d="M624.855 193.875C636.645 197.495 650.065 202.445 654.015 214.135C657.955 225.815 650.355 238.285 641.325 246.695C618.665 267.795 564.165 273.725 533.205 273.215C502.245 272.705 401.255 247.895 370.955 241.515C325.055 231.835 278.445 225.525 231.635 222.615C208.225 221.165 184.765 220.555 161.315 220.815C147.165 220.965 124.505 220.885 90.235 230.195C137.575 199.935 158.985 175.765 207.815 156.825C293.175 123.715 469.095 146.055 624.865 193.895L624.855 193.875Z" fill="#008CFF"/>
</svg>
