<svg width="145" height="72" viewBox="0 0 145 72" fill="none" xmlns="http://www.w3.org/2000/svg">
<path fill-rule="evenodd" clip-rule="evenodd" d="M126.13 6.87356L142.088 34.472L126.13 62.0704H94.2113L86.7805 49.219H85.0608L93.1374 63.1875C93.2705 63.4175 93.5161 63.5592 93.7819 63.5592H126.56C126.826 63.5592 127.071 63.4175 127.204 63.1875L143.592 34.8446C143.725 34.6141 143.725 34.3299 143.592 34.0994L127.204 5.75655C127.071 5.52647 126.826 5.38477 126.56 5.38477H93.7819C93.5161 5.38477 93.2705 5.52647 93.1374 5.75655L85.1644 19.5458H86.8842L94.2113 6.87356H126.13Z" fill="white"/>
<path d="M135.607 58.022L130.93 65.9699L121.553 65.9699L116.876 58.022L121.553 50.0742H130.93L135.607 58.022Z" fill="white" stroke="white" stroke-width="1.4888"/>
<path d="M2.55674 20.3183C2.2691 20.4047 1.98146 20.6351 1.80888 20.9231C1.52124 21.3695 1.52124 21.6575 1.55 31.8671L1.59315 42.3647L2.06776 42.7823C2.6718 43.3295 3.47719 43.3583 4.06685 42.8543L4.46955 42.5087L4.54146 34.8911L4.61337 27.2879L8.23764 34.5023C10.697 39.4127 11.9913 41.8175 12.2502 42.0335C12.6817 42.3791 13.257 42.4223 13.8322 42.1631C14.2206 41.9759 14.2349 41.9615 20.4911 29.2319L21.5841 26.9999L21.6561 34.6319C21.6992 38.8223 21.7855 42.3791 21.843 42.5087C22.03 42.8831 22.6053 43.1999 23.0943 43.1999C23.6264 43.1999 24.3167 42.8687 24.4462 42.5519C24.4893 42.4223 24.5325 37.5407 24.5325 31.6943C24.5325 19.9151 24.59 20.5919 23.5689 20.3183C23.1374 20.1887 22.9361 20.2175 22.519 20.4191C22.0444 20.6495 21.7711 21.1679 17.6291 29.6927L13.2426 38.7215L8.75539 29.7359C5.77831 23.7743 4.15315 20.6783 3.93742 20.5343C3.44843 20.2319 3.08888 20.1743 2.55674 20.3183Z" fill="white"/>
<path d="M79.2271 20.2607C79.0545 20.2895 78.7381 20.5199 78.5368 20.7503L78.1772 21.1967V28.5551C78.1772 34.4879 78.2204 36.1295 78.393 36.9359C79.3422 41.4287 83.6999 44.1935 88.2159 43.1279C90.9341 42.4799 93.2352 40.2479 94.055 37.4543C94.357 36.4463 94.357 34.0415 94.0694 32.9327C93.4078 30.3983 91.5525 28.2959 89.2658 27.4607C88.2734 27.1007 86.4181 26.9855 85.3251 27.2159C84.2033 27.4463 82.9233 28.1231 82.0029 28.9583C81.5714 29.3471 81.1831 29.6639 81.1399 29.6639C81.0968 29.6639 81.0536 27.7487 81.0536 25.4159V21.1679L80.6653 20.7503C80.2483 20.3183 79.788 20.1599 79.2271 20.2607ZM88.1152 29.8799C89.539 30.3839 90.7327 31.6367 91.2936 33.2351C91.5238 33.8831 91.5669 34.3295 91.5238 35.4239C91.4806 36.6191 91.4231 36.9215 91.006 37.7999C90.0568 39.8159 88.4891 40.7951 86.2168 40.7951C85.1381 40.7951 84.8649 40.7375 84.0595 40.3631C82.3624 39.5567 81.3125 38.1167 81.0105 36.1439C80.5359 33.0911 82.348 30.2543 85.1381 29.6639C85.9004 29.5055 87.3098 29.6063 88.1152 29.8799Z" fill="white"/>
<path d="M35.6066 27.3023C33.3774 27.8927 31.3351 29.5487 30.3859 31.5359C29.2497 33.9695 29.2641 36.6623 30.4291 39.1247C32.6007 43.6463 38.3248 44.7551 42.0641 41.3855L42.7976 40.7231V41.3135C42.7976 42.0623 43.114 42.8399 43.4879 43.0415C44.0488 43.3439 44.883 43.2287 45.3001 42.8255L45.674 42.4367V38.2463C45.674 33.6095 45.5877 32.9183 44.7967 31.3487C44.1351 30.0527 42.5387 28.5119 41.2012 27.8639C40.6115 27.5903 39.7918 27.3023 39.3603 27.2159C38.2816 27.0143 36.5414 27.0575 35.6066 27.3023ZM38.9864 29.7359C41.3882 30.3551 42.9414 32.5007 42.9414 35.1791C42.9414 38.4911 40.8273 40.7663 37.7639 40.7951C35.8942 40.8239 34.341 40.0175 33.2911 38.5055C31.1194 35.3375 32.7302 30.7007 36.3257 29.7503C37.3612 29.4767 37.9509 29.4767 38.9864 29.7359Z" fill="white"/>
<path d="M55.4968 27.3456C55.0797 27.504 54.4613 27.8208 54.1017 28.0656C53.7422 28.3104 53.4258 28.512 53.3682 28.512C53.3251 28.512 53.21 28.3104 53.1237 28.08C52.8217 27.1728 51.5417 26.928 50.837 27.6336L50.4199 28.0512V35.136C50.4199 42.3792 50.4343 42.5952 50.9808 43.0128C51.2685 43.2288 52.2177 43.2576 52.606 43.0416C53.2388 42.696 53.2963 42.2064 53.2963 37.2528C53.2963 32.2128 53.3395 31.8816 54.0873 30.9024C54.2887 30.6432 54.7777 30.2544 55.166 30.0384C56.5754 29.2608 58.704 29.6064 59.5381 30.7296C60.2285 31.6512 60.2572 31.896 60.3291 37.4112L60.4154 42.6528L60.7606 42.9264C61.264 43.344 62.2707 43.3008 62.7165 42.84C62.9179 42.6528 63.0761 42.3504 63.0761 42.1632C63.0905 41.976 63.1049 39.7296 63.1192 37.152C63.1624 32.6016 63.1768 32.4432 63.4932 31.7088C64.0972 30.3552 65.2046 29.6496 66.7435 29.6496C67.8078 29.6496 68.57 29.9376 69.2316 30.5712C70.0514 31.3632 70.1233 31.8816 70.1233 37.2528C70.1233 41.256 70.1664 42.1344 70.339 42.48C70.6123 43.0128 70.9574 43.2 71.6765 43.2C72.1511 43.2 72.3237 43.1136 72.6257 42.7536L72.9997 42.3072V37.2384C72.9997 31.8528 72.9422 31.248 72.2662 29.9232C71.806 29.016 70.7561 27.9792 69.85 27.5472C69.1884 27.2304 68.7858 27.144 67.664 27.1008C65.6217 27.0144 64.126 27.504 62.8604 28.6704C62.5296 28.9728 62.1988 29.232 62.1413 29.232C62.0694 29.232 61.8105 28.9728 61.5372 28.656C61.2496 28.3392 60.6455 27.8928 60.099 27.6192C59.2361 27.2016 58.9916 27.144 57.6972 27.1152C56.561 27.0864 56.0864 27.144 55.4968 27.3456Z" fill="white"/>
<path d="M104.007 27.3023C101.519 27.9071 99.4628 29.8511 98.6286 32.3855C98.1396 33.8975 98.1109 36.3167 98.5711 37.7999C100.052 42.6095 105.705 44.7407 110.594 42.3359C112.22 41.5295 112.637 40.8239 111.975 39.9887C111.457 39.3263 110.983 39.3551 109.43 40.1327C108.121 40.7807 107.977 40.8239 106.711 40.8671C105.144 40.9247 104.266 40.6943 103.101 39.9311C101.965 39.1823 101.217 38.0447 100.843 36.5327L100.757 36.1439H106.726H112.709L113.054 35.7839C113.356 35.4959 113.413 35.2943 113.413 34.6031C113.399 31.8095 111.903 29.0735 109.732 27.9071C108.265 27.1151 105.848 26.8559 104.007 27.3023ZM107.589 29.6783C108.38 29.8799 109.401 30.6575 109.933 31.4639C110.451 32.2415 110.896 33.4655 110.767 33.7679C110.695 33.9551 109.962 33.9839 105.791 33.9839C100.196 33.9839 100.642 34.1135 101.203 32.6159C102.109 30.1823 104.77 28.9583 107.589 29.6783Z" fill="white"/>
<path d="M122.114 27.2158C117.857 28.0798 115.297 32.2702 116.189 36.9646C116.505 38.635 117.138 39.8878 118.231 40.9678C120.748 43.5022 124.976 44.0638 128.414 42.3214C130.068 41.4862 130.499 40.723 129.751 39.9598C129.133 39.3406 128.802 39.355 127.277 40.1182L125.868 40.8238H124.214C122.675 40.8238 122.488 40.795 121.712 40.4206C120.23 39.6862 118.965 38.1166 118.663 36.6046L118.562 36.1438H124.559H130.542L130.887 35.7838C131.319 35.3662 131.362 34.4734 131.031 32.9038C130.413 29.9518 128.371 27.7918 125.667 27.2302C124.804 27.0574 122.977 27.043 122.114 27.2158ZM125.868 29.8798C127.191 30.4702 128.284 31.939 128.471 33.4222L128.557 33.9838H123.639H118.735V33.5806C118.735 32.9758 119.411 31.6798 120.072 30.9886C121.525 29.4766 123.941 29.0158 125.868 29.8798Z" fill="white"/>
<path d="M5.14537 48.3119C5.00155 48.6287 5.01593 48.6719 5.23166 48.6719C5.37548 48.6719 5.64874 48.5135 5.8357 48.3119L6.16649 47.9519H5.73503C5.41863 47.9519 5.26042 48.0383 5.14537 48.3119Z" fill="white"/>
<path d="M1.37744 52.1278V55.0078H1.8089H2.24036V53.7118V52.4158H2.81564C3.29025 52.4158 3.39092 52.3726 3.39092 52.1422C3.39092 51.9118 3.27587 51.8542 2.85879 51.811L2.31227 51.7678L2.26913 50.8606L2.22598 49.9678H3.03137C3.77924 49.9678 3.82238 49.9534 3.82238 49.6078C3.82238 49.2478 3.808 49.2478 2.59991 49.2478H1.37744V52.1278Z" fill="white"/>
<path d="M4.62766 49.6366C4.48384 50.3998 3.82227 54.5902 3.82227 54.7918C3.82227 54.9214 3.96609 55.0078 4.18182 55.0078C4.48384 55.0078 4.55575 54.9214 4.62766 54.4318C4.71395 53.8846 4.74271 53.8558 5.26047 53.8558C5.7926 53.8558 5.82137 53.8846 5.90766 54.4318C5.99395 54.9502 6.0371 55.0078 6.43979 55.0078C6.84249 55.0078 6.87125 54.979 6.79934 54.6046C6.7562 54.3886 6.54047 53.0926 6.32474 51.7246L5.93642 49.2478H5.31799C4.77148 49.2478 4.69957 49.291 4.62766 49.6366ZM5.67755 52.9486C5.69193 53.2222 5.62002 53.2798 5.26047 53.2798C5.03035 53.2798 4.82901 53.2222 4.82901 53.1358C4.82901 52.8334 5.14541 50.7454 5.21732 50.5438C5.30361 50.3422 5.66316 52.2142 5.67755 52.9486Z" fill="white"/>
<path d="M7.41772 52.1134V55.0078H8.46761C9.41682 55.0078 9.56064 54.9646 9.87705 54.6334C10.1647 54.331 10.2222 54.115 10.2222 53.395C10.2222 52.6606 10.1647 52.4878 9.89143 52.2574L9.56064 51.9982L9.87705 51.5662C10.1359 51.2206 10.1791 51.0046 10.1072 50.4718C10.0065 49.507 9.77637 49.3342 8.49638 49.2766L7.41772 49.219V52.1134ZM9.1148 50.1406C9.33053 50.3566 9.34491 51.0478 9.14357 51.4222C9.05727 51.5806 8.84154 51.6958 8.6402 51.6958C8.29503 51.6958 8.28065 51.6526 8.28065 50.8318C8.28065 50.0254 8.30941 49.9678 8.61143 49.9678C8.7984 49.9678 9.01413 50.0398 9.1148 50.1406ZM9.21548 53.3518V54.2158L8.75525 54.259L8.28065 54.3022V53.3518V52.4014L8.75525 52.4446L9.21548 52.4878V53.3518Z" fill="white"/>
<path d="M10.8694 52.1278V55.0078H11.3008H11.7323V53.7694V52.5454L12.135 52.5886C12.5089 52.6318 12.5233 52.675 12.5665 53.4958C12.624 54.8638 12.6815 55.0078 13.1849 55.0078H13.6163L13.5444 53.8414C13.5013 52.9198 13.4294 52.603 13.1993 52.387C12.926 52.099 12.926 52.0846 13.1849 51.8254C13.3862 51.6238 13.4581 51.3502 13.4581 50.7022C13.4581 49.5502 13.113 49.2478 11.7898 49.2478H10.8694V52.1278ZM12.5665 50.8174C12.6096 51.6238 12.4946 51.8398 11.9912 51.8398C11.7755 51.8398 11.7323 51.6958 11.7323 50.8894V49.9534L12.135 49.9966C12.4946 50.0398 12.5233 50.083 12.5665 50.8174Z" fill="white"/>
<path d="M14.1772 52.1278V55.0078H14.6087H15.0402V52.1278V49.2478H14.6087H14.1772V52.1278Z" fill="white"/>
<path d="M16.2052 49.5503C15.8313 49.9679 15.7162 50.7743 15.7738 52.6751C15.8457 54.5039 16.0326 54.9359 16.838 55.0943C17.8735 55.2815 18.492 54.7055 18.492 53.5679C18.492 53.0207 18.4632 52.9919 18.0749 52.9919C17.6722 52.9919 17.6434 53.0207 17.6003 53.6687C17.5571 54.3023 17.5284 54.3599 17.1976 54.3599H16.838L16.7949 52.1855C16.7661 50.3423 16.7949 49.9823 16.9819 49.9103C17.3989 49.7519 17.6291 49.9823 17.6291 50.5583C17.6291 51.0911 17.6578 51.1199 18.0605 51.1199C18.4632 51.1199 18.492 51.0911 18.492 50.5583C18.492 50.2127 18.3769 49.8671 18.1899 49.6223C17.9455 49.3055 17.7873 49.2479 17.1976 49.2479C16.6655 49.2479 16.421 49.3199 16.2052 49.5503Z" fill="white"/>
<path d="M19.4413 51.6526C19.2255 52.9918 19.0242 54.2878 18.9667 54.547C18.8948 55.0078 18.9091 55.0222 19.2974 54.979C19.657 54.9358 19.7289 54.8638 19.7864 54.4318C19.844 53.9854 19.9159 53.9278 20.3473 53.8846C20.8939 53.827 21.0808 54.0142 21.0808 54.6046C21.0808 54.9646 21.1383 55.0078 21.5267 55.0078C21.9437 55.0078 21.9725 54.979 21.9006 54.6046C21.8574 54.3886 21.6417 53.0926 21.4116 51.7246L21.0233 49.2478H20.4192H19.8296L19.4413 51.6526ZM20.7788 52.819C20.7932 53.2654 20.7644 53.2942 20.4049 53.251C20.0309 53.2078 20.0022 53.1646 20.0453 52.6318C20.0597 52.315 20.1604 51.595 20.2467 51.0478L20.4192 50.0398L20.5918 51.1918C20.6925 51.8254 20.7788 52.5598 20.7788 52.819Z" fill="white"/>
<path d="M23.8132 52.1278V55.0078H25.0357C26.2438 55.0078 26.2582 55.0078 26.2582 54.6622C26.2582 54.331 26.2006 54.3022 25.5103 54.259L24.7481 54.2158V53.3518V52.4878L25.3665 52.4446C25.8986 52.4014 25.9705 52.3582 25.9705 52.0558C25.9705 51.7534 25.8986 51.7102 25.3665 51.667L24.7481 51.6238V50.8318V50.0398L25.5103 49.9966C26.2006 49.9534 26.2582 49.9246 26.2582 49.5934C26.2582 49.2478 26.2438 49.2478 25.0357 49.2478H23.8132V52.1278Z" fill="white"/>
<path d="M28.2717 52.1278V55.0078H29.4942C30.7023 55.0078 30.7167 55.0078 30.7167 54.6478C30.7167 54.3022 30.6735 54.2878 29.9257 54.2878H29.1346V53.3518V52.4158H29.7818C30.3715 52.4158 30.429 52.387 30.429 52.0702C30.429 51.7534 30.3571 51.7102 29.825 51.667L29.2066 51.6238L29.1634 50.7886L29.1203 49.9678H29.9257C30.6735 49.9678 30.7167 49.9534 30.7167 49.6078C30.7167 49.2478 30.7023 49.2478 29.4942 49.2478H28.2717V52.1278Z" fill="white"/>
<path d="M31.6515 49.6079C31.407 49.8527 31.292 50.1119 31.292 50.4719C31.292 51.1487 31.5509 51.6239 32.3563 52.4015C33.061 53.0927 33.2767 53.6543 33.0178 54.1295C32.7302 54.6911 32.0111 54.4175 32.0111 53.7551C32.0111 53.4959 31.9248 53.4239 31.6515 53.4239C31.3639 53.4239 31.292 53.4959 31.292 53.7839C31.292 54.8351 32.2412 55.4399 33.2048 54.9935C33.6363 54.7919 33.8808 54.3023 33.8808 53.6255C33.8808 52.9919 33.6075 52.4735 32.9459 51.8399C31.9967 50.9327 31.781 50.0975 32.4569 49.8959C32.8309 49.7663 33.1617 50.0543 33.1617 50.4863C33.1617 50.7599 33.2336 50.8319 33.5212 50.8319C33.8088 50.8319 33.8808 50.7599 33.8808 50.4575C33.8808 50.0543 33.6506 49.5215 33.3918 49.3631C33.3055 49.3055 32.9603 49.2479 32.6151 49.2479C32.1549 49.2479 31.9104 49.3343 31.6515 49.6079Z" fill="white"/>
<path d="M34.9163 49.5791C34.6142 49.8959 34.5999 50.0543 34.5999 52.1567C34.5999 54.7343 34.6861 54.9647 35.6929 55.1087C36.5414 55.2239 37.0304 54.7631 37.1455 53.7407C37.2318 53.0063 37.2174 52.9919 36.8434 52.9919C36.5414 52.9919 36.4695 53.0639 36.4695 53.3375C36.4695 53.9135 36.2106 54.4319 35.923 54.4319C35.3909 54.4319 35.319 54.1583 35.319 52.0991C35.319 50.2991 35.3477 50.1119 35.5922 49.9679C36.0237 49.7375 36.3257 49.9535 36.412 50.5583C36.4983 51.0335 36.5558 51.1199 36.8578 51.1199C37.203 51.1199 37.2174 51.0911 37.1167 50.4287C36.9873 49.4927 36.7284 49.2479 35.8942 49.2479C35.3765 49.2479 35.1464 49.3199 34.9163 49.5791Z" fill="white"/>
<path d="M38.2097 49.5216C37.8071 49.9248 37.7208 50.544 37.7783 52.6176C37.8502 54.6912 37.9796 54.9648 39.0151 55.1088C39.4754 55.1664 39.6623 55.1232 40.0075 54.8208L40.4246 54.4608V52.1568C40.4246 50.0976 40.3958 49.824 40.1513 49.5504C39.7774 49.1328 38.6124 49.1184 38.2097 49.5216ZM39.4897 49.968C39.6623 50.0688 39.7199 50.4864 39.7486 51.8688C39.8062 53.7696 39.6623 54.432 39.2309 54.432C38.6987 54.432 38.6268 54.1584 38.6268 52.128C38.6268 49.9104 38.785 49.5216 39.4897 49.968Z" fill="white"/>
<path d="M41.2156 52.1278V55.0078H42.3661C43.5023 55.0078 43.5167 55.0078 43.5167 54.6478C43.5167 54.3166 43.4736 54.2878 42.7976 54.2878H42.0785V51.7678V49.2478H41.647H41.2156V52.1278Z" fill="white"/>
<path d="M44.8974 49.4206C44.8687 49.5214 44.6673 50.7022 44.4516 52.0558C44.2503 53.395 44.0345 54.619 44.0058 54.7486C43.9482 54.9502 44.0201 55.0078 44.2934 55.0078C44.6098 55.0078 44.6817 54.9358 44.7536 54.4318C44.8399 53.8558 44.8543 53.8558 45.4727 53.8558C46.048 53.8558 46.1055 53.8846 46.1055 54.2014C46.1055 54.7774 46.2637 55.0078 46.6377 55.0078C46.9397 55.0078 46.9828 54.9502 46.9253 54.6766C46.8822 54.5038 46.6808 53.2078 46.4507 51.7966L46.048 49.2478H45.5015C45.1851 49.2478 44.9262 49.3198 44.8974 49.4206ZM45.746 51.7102C45.861 52.459 45.9617 53.107 45.9617 53.1646C45.9617 53.323 45.1276 53.3086 45.0413 53.1502C44.9981 53.0782 45.0269 52.4878 45.1132 51.8254C45.372 49.7806 45.4583 49.7662 45.746 51.7102Z" fill="white"/>
<path d="M48.9817 52.1278V55.0078H49.9597C50.837 55.0078 50.9808 54.9646 51.2972 54.6334C51.628 54.2734 51.6424 54.187 51.6424 52.3006C51.6424 51.2206 51.5992 50.155 51.5417 49.9534C51.3979 49.4638 50.8801 49.2478 49.8446 49.2478H48.9817V52.1278ZM50.7794 52.1278V54.2158H50.2761H49.7727L49.7296 52.0846L49.6864 49.9534L50.2329 49.9966L50.7794 50.0398V52.1278Z" fill="white"/>
<path d="M52.4333 52.1278V55.0078H53.5839C54.7201 55.0078 54.7345 55.0078 54.7345 54.6478C54.7345 54.3022 54.6913 54.2878 53.9435 54.2878H53.1525V53.3518V52.4158H53.7996C54.3893 52.4158 54.4468 52.387 54.4468 52.0702C54.4468 51.7534 54.3749 51.7102 53.8428 51.667L53.2244 51.6238L53.1812 50.7886L53.1381 49.9678H53.9435C54.6913 49.9678 54.7345 49.9534 54.7345 49.6078C54.7345 49.2478 54.7201 49.2478 53.5839 49.2478H52.4333V52.1278Z" fill="white"/>
<path d="M57.0501 49.6223C56.4748 50.3567 56.7049 51.3503 57.6829 52.2719C58.3733 52.9199 58.6609 53.5679 58.4739 54.0719C58.2438 54.6911 57.4672 54.4607 57.4672 53.7551C57.4672 53.4959 57.3809 53.4239 57.1076 53.4239C56.8056 53.4239 56.7481 53.4959 56.7481 53.8415C56.7481 54.4607 56.8775 54.7055 57.3378 54.9359C58.5171 55.5551 59.5814 54.5759 59.2649 53.1503C59.2218 52.9055 58.7903 52.2863 58.3157 51.7679C57.8555 51.2495 57.4672 50.7023 57.4672 50.5583C57.4672 50.2991 57.8124 49.8239 57.9849 49.8239C58.2726 49.8239 58.6178 50.1839 58.6178 50.4719C58.6178 50.7599 58.6897 50.8319 58.9917 50.8319C59.3512 50.8319 59.3656 50.8031 59.2937 50.3135C59.1643 49.5215 58.8335 49.2479 58.0281 49.2479C57.4672 49.2479 57.2946 49.3055 57.0501 49.6223Z" fill="white"/>
<path d="M60.4442 49.4207C60.0415 49.7375 59.9121 50.3711 59.9121 52.1711C59.9121 54.3311 60.1135 54.8639 60.962 55.0799C61.3935 55.1807 61.6092 55.1519 61.8968 54.9935C62.5728 54.6191 62.6591 54.2591 62.6159 51.9695C62.5584 49.4495 62.4721 49.2479 61.3503 49.2479C60.9908 49.2479 60.5737 49.3343 60.4442 49.4207ZM61.638 49.9679C61.8105 50.0687 61.8681 50.4863 61.8968 51.8687C61.9544 53.7695 61.8105 54.4319 61.3791 54.4319C60.8469 54.4319 60.775 54.1583 60.775 52.1279C60.775 49.9103 60.9332 49.5215 61.638 49.9679Z" fill="white"/>
<path d="M63.3638 52.1278V55.0078H63.7952H64.2267V53.7118V52.4158H64.802C65.2766 52.4158 65.3773 52.3726 65.3773 52.1422C65.3773 51.9118 65.2622 51.8542 64.8451 51.811L64.2986 51.7678L64.2555 50.8606L64.2123 49.9678H64.9458C65.6217 49.9678 65.6649 49.939 65.6649 49.6078C65.6649 49.2478 65.6505 49.2478 64.5143 49.2478H63.3638V52.1278Z" fill="white"/>
<path d="M66.2402 49.6078C66.2402 49.9102 66.3121 49.9678 66.6717 49.9678H67.1032V52.4878V55.0078H67.5346H67.9661V52.4878V49.9678H68.4694C68.9153 49.9678 68.9728 49.9246 68.9728 49.6078C68.9728 49.2478 68.9728 49.2478 67.6065 49.2478C66.2402 49.2478 66.2402 49.2478 66.2402 49.6078Z" fill="white"/>
<path d="M69.4043 49.5646C69.4043 49.9822 69.8358 54.2734 69.922 54.6766C69.9652 54.9502 70.0803 55.0078 70.4829 55.0078C70.8856 55.0078 71.0007 54.9502 71.0438 54.6766C71.1158 54.3742 71.4178 51.5518 71.4178 51.2638C71.4178 51.1774 71.4753 51.1198 71.5328 51.1198C71.6047 51.1198 71.7342 51.9982 71.8349 53.0782L72.0218 55.0222L72.554 54.979L73.0717 54.9358L73.3162 52.6318C73.647 49.4782 73.647 49.2478 73.2874 49.2478C73.1149 49.2478 72.9998 49.3486 72.9854 49.4926C72.9423 50.731 72.6115 53.1358 72.4964 53.1358C72.3814 53.1358 72.0506 50.731 72.0074 49.4926C71.9931 49.3198 71.878 49.2478 71.576 49.2478C71.1877 49.2478 71.1445 49.291 71.0726 49.8526C70.9719 50.6302 70.6987 53.2222 70.6987 53.4238C70.6987 53.4958 70.6411 53.5678 70.5692 53.5678C70.5117 53.5678 70.411 53.0062 70.3535 52.3006C70.1378 49.3342 70.1234 49.2478 69.7495 49.2478C69.4906 49.2478 69.4043 49.3342 69.4043 49.5646Z" fill="white"/>
<path d="M74.812 49.6365C74.6538 50.4285 74.0066 54.5901 74.0066 54.8061C74.0066 54.9501 74.1216 55.0077 74.3374 54.9789C74.5963 54.9501 74.6682 54.8349 74.6969 54.3885C74.7401 53.8557 74.7545 53.8557 75.3729 53.8557C75.9913 53.8557 75.9913 53.8557 76.092 54.4317C76.1783 54.9213 76.2502 55.0077 76.5378 55.0077C76.9693 55.0077 76.9693 55.0653 76.4515 51.9837C76.2214 50.6013 76.0201 49.4205 76.0201 49.3485C76.0201 49.2909 75.7612 49.2477 75.4592 49.2477C74.9558 49.2477 74.8839 49.2909 74.812 49.6365ZM75.7037 51.7101C75.8043 52.4157 75.8475 53.0637 75.8043 53.1501C75.7037 53.3085 75.0565 53.3229 74.9702 53.1645C74.927 53.1069 74.9558 52.6749 75.0277 52.1997C75.3585 49.9245 75.4592 49.8525 75.7037 51.7101Z" fill="white"/>
<path d="M77.6021 52.1134V55.0078H77.9616C78.3212 55.0078 78.3212 54.9934 78.3212 53.7694V52.5454L78.7958 52.5886C79.256 52.6318 79.256 52.6318 79.2991 53.4958C79.3567 54.8206 79.4142 55.0078 79.8456 55.0078H80.2196L80.1764 53.7694C80.1333 52.7614 80.0758 52.5022 79.8456 52.3294C79.5724 52.1422 79.5724 52.1278 79.8456 51.8254C80.047 51.595 80.1189 51.307 80.1189 50.6734C80.1189 49.5358 79.9176 49.3486 78.6088 49.2766L77.6021 49.219V52.1134ZM79.2991 50.731C79.3567 51.523 79.1697 51.8398 78.6663 51.8398C78.3355 51.8398 78.3212 51.7966 78.3212 50.8894V49.9534L78.7958 49.9966C79.2416 50.0398 79.256 50.0686 79.2991 50.731Z" fill="white"/>
<path d="M80.9099 52.1278V55.0078H82.1324C83.3405 55.0078 83.3549 55.0078 83.3549 54.6478C83.3549 54.3022 83.3117 54.2878 82.5638 54.2878H81.7728V53.3518V52.4158H82.42C83.0097 52.4158 83.0672 52.387 83.0672 52.0558C83.0672 51.7246 83.0097 51.6958 82.42 51.6958H81.7728V50.8318V49.9678H82.5638C83.3117 49.9678 83.3549 49.9534 83.3549 49.6078C83.3549 49.2478 83.3405 49.2478 82.1324 49.2478H80.9099V52.1278Z" fill="white"/>
</svg>
